<?xml version="1.0" encoding="UTF-8"?>
<svg xmlns="http://www.w3.org/2000/svg" viewBox="0 0 256 256" role="img" aria-label="Lu Xun avatar 50">
  <defs>
    <linearGradient id="bg-c_022-50" x1="0" x2="1" y1="0" y2="1">
      <stop offset="0%" stop-color="#215583" />
      <stop offset="100%" stop-color="#f19e4a" />
    </linearGradient>
    <radialGradient id="glow-c_022-50" cx="50%" cy="38%" r="60%">
      <stop offset="0%" stop-color="#fff4d5" stop-opacity="0.94" />
      <stop offset="100%" stop-color="#2b5f8d" stop-opacity="0" />
    </radialGradient>
  </defs>
  <rect width="256" height="256" rx="36" fill="url(#bg-c_022-50)" />
  <rect x="12" y="12" width="232" height="232" rx="28" fill="url(#glow-c_022-50)" opacity="0.75" />
  <path d="M206 138 Q222 110 206 82 Q188 110 206 138 Z" fill="#2b5f8d" opacity="0.8" /><path d="M206 122 Q214 106 206 94 Q198 106 206 122 Z" fill="#e89541" opacity="0.9" />
  <circle cx="128" cy="128" r="104" fill="none" stroke="#efe0c1" stroke-width="8" opacity="0.85" />
  <path d="M52 222 Q128 170 204 222 V256 H52 Z" fill="#d7cebc" />
  <path d="M68 210 Q128 191 188 210" fill="none" stroke="#e89541" stroke-width="8" stroke-linecap="round" opacity="0.8" />
  <path d="M86 206 Q128 170 170 206" fill="none" stroke="#f7e8c9" stroke-width="6" stroke-linecap="round" opacity="0.65" />
  <ellipse cx="128" cy="146" rx="82" ry="92" fill="#f7e8c9" />
  <path d="M84 132 Q128 64 172 132 L168 92 Q128 47 88 92 Z" fill="#30221e" />
  <path d="M80 134 Q74 162 92 188" fill="none" stroke="#30221e" stroke-width="16" stroke-linecap="round" opacity="0.95" />
  <path d="M176 134 Q182 162 164 188" fill="none" stroke="#30221e" stroke-width="16" stroke-linecap="round" opacity="0.95" />
  
      <path d="M56 101 Q128 25 200 101 L184 156 Q128 126 72 156 Z" fill="#2b5f8d" opacity="0.92" />
      <path d="M80 111 Q128 69 176 111" fill="none" stroke="#e89541" stroke-width="6" stroke-linecap="round" />
    
  <path d="M93 93 Q103 87 115 93" fill="none" stroke="#30221e" stroke-width="5" stroke-linecap="round" />
  <path d="M141 93 Q153 87 163 93" fill="none" stroke="#30221e" stroke-width="5" stroke-linecap="round" />
  <ellipse cx="103" cy="105" rx="7" ry="5" fill="#251b1a" />
  <ellipse cx="153" cy="105" rx="7" ry="5" fill="#251b1a" />
  <circle cx="101" cy="104" r="2" fill="#fff8ee" opacity="0.8" />
  <circle cx="151" cy="104" r="2" fill="#fff8ee" opacity="0.8" />
  <path d="M128 115 Q120 133 128 143 Q136 133 128 115" fill="#e9dabb" opacity="0.68" />
  <path d="M104 161 Q128 175 152 161" fill="none" stroke="#3a2c28" stroke-width="5" stroke-linecap="round" />
  <path d="M41 232 Q128 180 215 232" fill="none" stroke="#efe6d4" stroke-width="12" stroke-linecap="round" opacity="0.55" />
  
  <circle cx="128" cy="206" r="34" fill="#1f5381" opacity="0.92" />
  <path d="M96 216 Q128 174 160 216" fill="none" stroke="#e89541" stroke-width="6" /><path d="M128 174 L128 228" stroke="#f7e8c9" stroke-width="5" />
  <text x="128" y="92" text-anchor="middle" font-size="18" font-weight="700" font-family="Georgia, serif" fill="#ebdcbd" opacity="0.75">LX</text>
</svg>