<?xml version="1.0" encoding="UTF-8"?>
<svg xmlns="http://www.w3.org/2000/svg" viewBox="0 0 256 256" role="img" aria-label="Lu Xun avatar 31">
  <defs>
    <linearGradient id="bg-c_022-31" x1="0" x2="1" y1="0" y2="1">
      <stop offset="0%" stop-color="#356997" />
      <stop offset="100%" stop-color="#ed9a46" />
    </linearGradient>
    <radialGradient id="glow-c_022-31" cx="50%" cy="38%" r="60%">
      <stop offset="0%" stop-color="#fff4d5" stop-opacity="0.94" />
      <stop offset="100%" stop-color="#2b5f8d" stop-opacity="0" />
    </radialGradient>
  </defs>
  <rect width="256" height="256" rx="36" fill="url(#bg-c_022-31)" />
  <rect x="12" y="12" width="232" height="232" rx="28" fill="url(#glow-c_022-31)" opacity="0.75" />
  <path d="M206 138 Q222 110 206 82 Q188 110 206 138 Z" fill="#2b5f8d" opacity="0.8" /><path d="M206 122 Q214 106 206 94 Q198 106 206 122 Z" fill="#f7a450" opacity="0.9" />
  <circle cx="128" cy="128" r="104" fill="none" stroke="#efe0c1" stroke-width="8" opacity="0.85" />
  <path d="M52 222 Q128 167 204 222 V256 H52 Z" fill="#c9c0ae" />
  <path d="M68 210 Q128 187 188 210" fill="none" stroke="#f7a450" stroke-width="8" stroke-linecap="round" opacity="0.8" />
  <path d="M86 206 Q128 170 170 206" fill="none" stroke="#f7e8c9" stroke-width="6" stroke-linecap="round" opacity="0.65" />
  <ellipse cx="128" cy="146" rx="79" ry="98" fill="#efe0c1" />
  <path d="M84 132 Q128 56 172 132 L168 92 Q128 46 88 92 Z" fill="#362824" />
  <path d="M80 134 Q74 162 92 188" fill="none" stroke="#362824" stroke-width="16" stroke-linecap="round" opacity="0.95" />
  <path d="M176 134 Q182 162 164 188" fill="none" stroke="#362824" stroke-width="16" stroke-linecap="round" opacity="0.95" />
  
      <path d="M56 102 Q128 26 200 102 L184 156 Q128 126 72 156 Z" fill="#2b5f8d" opacity="0.92" />
      <path d="M80 112 Q128 70 176 112" fill="none" stroke="#f7a450" stroke-width="6" stroke-linecap="round" />
    
  <path d="M94 99 Q104 93 116 99" fill="none" stroke="#362824" stroke-width="5" stroke-linecap="round" />
  <path d="M140 99 Q152 93 162 99" fill="none" stroke="#362824" stroke-width="5" stroke-linecap="round" />
  <ellipse cx="104" cy="111" rx="7" ry="5" fill="#251b1a" />
  <ellipse cx="152" cy="111" rx="7" ry="5" fill="#251b1a" />
  <circle cx="102" cy="110" r="2" fill="#fff8ee" opacity="0.8" />
  <circle cx="150" cy="110" r="2" fill="#fff8ee" opacity="0.8" />
  <path d="M128 121 Q120 139 128 149 Q136 139 128 121" fill="#e1d2b3" opacity="0.68" />
  <path d="M104 167 Q128 181 152 167" fill="none" stroke="#40322e" stroke-width="5" stroke-linecap="round" />
  <path d="M30 232 Q128 180 226 232" fill="none" stroke="#e1d8c6" stroke-width="12" stroke-linecap="round" opacity="0.55" />
  
  <circle cx="128" cy="206" r="34" fill="#1f5381" opacity="0.92" />
  <path d="M96 216 Q128 174 160 216" fill="none" stroke="#f7a450" stroke-width="6" /><path d="M128 174 L128 228" stroke="#f7e8c9" stroke-width="5" />
  <text x="128" y="92" text-anchor="middle" font-size="18" font-weight="700" font-family="Georgia, serif" fill="#ebdcbd" opacity="0.75">LX</text>
</svg>