<?xml version="1.0" encoding="UTF-8"?>
<svg xmlns="http://www.w3.org/2000/svg" viewBox="0 0 256 256" role="img" aria-label="Lu Xun avatar 85">
  <defs>
    <linearGradient id="bg-c_022-85" x1="0" x2="1" y1="0" y2="1">
      <stop offset="0%" stop-color="#346896" />
      <stop offset="100%" stop-color="#f9a652" />
    </linearGradient>
    <radialGradient id="glow-c_022-85" cx="50%" cy="38%" r="60%">
      <stop offset="0%" stop-color="#fff4d5" stop-opacity="0.94" />
      <stop offset="100%" stop-color="#2b5f8d" stop-opacity="0" />
    </radialGradient>
  </defs>
  <rect width="256" height="256" rx="36" fill="url(#bg-c_022-85)" />
  <rect x="12" y="12" width="232" height="232" rx="28" fill="url(#glow-c_022-85)" opacity="0.75" />
  <path d="M206 138 Q222 110 206 82 Q188 110 206 138 Z" fill="#2b5f8d" opacity="0.8" /><path d="M206 122 Q214 106 206 94 Q198 106 206 122 Z" fill="#fba854" opacity="0.9" />
  <circle cx="128" cy="128" r="104" fill="none" stroke="#efe0c1" stroke-width="8" opacity="0.85" />
  <path d="M52 222 Q128 172 204 222 V256 H52 Z" fill="#c8bfad" />
  <path d="M68 210 Q128 185 188 210" fill="none" stroke="#fba854" stroke-width="8" stroke-linecap="round" opacity="0.8" />
  <path d="M86 206 Q128 170 170 206" fill="none" stroke="#f7e8c9" stroke-width="6" stroke-linecap="round" opacity="0.65" />
  <ellipse cx="128" cy="146" rx="87" ry="100" fill="#e9dabb" />
  <path d="M84 132 Q128 63 172 132 L168 92 Q128 45 88 92 Z" fill="#2f211d" />
  <path d="M80 134 Q74 162 92 188" fill="none" stroke="#2f211d" stroke-width="16" stroke-linecap="round" opacity="0.95" />
  <path d="M176 134 Q182 162 164 188" fill="none" stroke="#2f211d" stroke-width="16" stroke-linecap="round" opacity="0.95" />
  
      <path d="M56 95 Q128 19 200 95 L184 156 Q128 126 72 156 Z" fill="#2b5f8d" opacity="0.92" />
      <path d="M80 105 Q128 63 176 105" fill="none" stroke="#fba854" stroke-width="6" stroke-linecap="round" />
    
  <path d="M92 94 Q102 88 114 94" fill="none" stroke="#2f211d" stroke-width="5" stroke-linecap="round" />
  <path d="M142 94 Q154 88 164 94" fill="none" stroke="#2f211d" stroke-width="5" stroke-linecap="round" />
  <ellipse cx="102" cy="106" rx="7" ry="5" fill="#251b1a" />
  <ellipse cx="154" cy="106" rx="7" ry="5" fill="#251b1a" />
  <circle cx="100" cy="105" r="2" fill="#fff8ee" opacity="0.8" />
  <circle cx="152" cy="105" r="2" fill="#fff8ee" opacity="0.8" />
  <path d="M128 116 Q120 134 128 144 Q136 134 128 116" fill="#dbccad" opacity="0.68" />
  <path d="M104 162 Q128 176 152 162" fill="none" stroke="#392b27" stroke-width="5" stroke-linecap="round" />
  <path d="M28 232 Q128 180 228 232" fill="none" stroke="#e0d7c5" stroke-width="12" stroke-linecap="round" opacity="0.55" />
  
  <circle cx="128" cy="206" r="34" fill="#1f5381" opacity="0.92" />
  <path d="M96 216 Q128 174 160 216" fill="none" stroke="#fba854" stroke-width="6" /><path d="M128 174 L128 228" stroke="#f7e8c9" stroke-width="5" />
  <text x="128" y="92" text-anchor="middle" font-size="18" font-weight="700" font-family="Georgia, serif" fill="#ebdcbd" opacity="0.75">LX</text>
</svg>