<?xml version="1.0" encoding="UTF-8"?>
<svg xmlns="http://www.w3.org/2000/svg" viewBox="0 0 256 256" role="img" aria-label="Guo Jia avatar 51">
  <defs>
    <linearGradient id="bg-c_019-51" x1="0" x2="1" y1="0" y2="1">
      <stop offset="0%" stop-color="#2d394c" />
      <stop offset="100%" stop-color="#bd9950" />
    </linearGradient>
    <radialGradient id="glow-c_019-51" cx="50%" cy="38%" r="60%">
      <stop offset="0%" stop-color="#f9fcff" stop-opacity="0.94" />
      <stop offset="100%" stop-color="#384457" stop-opacity="0" />
    </radialGradient>
  </defs>
  <rect width="256" height="256" rx="36" fill="url(#bg-c_019-51)" />
  <rect x="12" y="12" width="232" height="232" rx="28" fill="url(#glow-c_019-51)" opacity="0.75" />
  <path d="M44 76 L52 96 L74 98 L56 112 L62 134 L44 120 L26 134 L32 112 L14 98 L36 96 Z" fill="#c19d54" opacity="0.8" />
  <circle cx="128" cy="128" r="104" fill="none" stroke="#e5e8ec" stroke-width="8" opacity="0.85" />
  <path d="M52 222 Q128 161 204 222 V256 H52 Z" fill="#686c7b" />
  <path d="M68 210 Q128 187 188 210" fill="none" stroke="#c19d54" stroke-width="8" stroke-linecap="round" opacity="0.8" />
  <path d="M86 206 Q128 170 170 206" fill="none" stroke="#edf0f4" stroke-width="6" stroke-linecap="round" opacity="0.65" />
  <ellipse cx="128" cy="146" rx="80" ry="96" fill="#f3f6fa" />
  <path d="M84 132 Q128 68 172 132 L168 92 Q128 47 88 92 Z" fill="#171211" />
  <path d="M80 134 Q74 162 92 188" fill="none" stroke="#171211" stroke-width="16" stroke-linecap="round" opacity="0.95" />
  <path d="M176 134 Q182 162 164 188" fill="none" stroke="#171211" stroke-width="16" stroke-linecap="round" opacity="0.95" />
  
      <path d="M56 100 Q128 24 200 100 L184 156 Q128 126 72 156 Z" fill="#384457" opacity="0.92" />
      <path d="M80 110 Q128 68 176 110" fill="none" stroke="#c19d54" stroke-width="6" stroke-linecap="round" />
    
  <path d="M91 98 Q101 92 113 98" fill="none" stroke="#171211" stroke-width="5" stroke-linecap="round" />
  <path d="M143 98 Q155 92 165 98" fill="none" stroke="#171211" stroke-width="5" stroke-linecap="round" />
  <ellipse cx="101" cy="110" rx="7" ry="5" fill="#251b1a" />
  <ellipse cx="155" cy="110" rx="7" ry="5" fill="#251b1a" />
  <circle cx="99" cy="109" r="2" fill="#fff8ee" opacity="0.8" />
  <circle cx="153" cy="109" r="2" fill="#fff8ee" opacity="0.8" />
  <path d="M128 120 Q120 138 128 148 Q136 138 128 120" fill="#e5e8ec" opacity="0.68" />
  <path d="M104 166 Q128 180 152 166" fill="none" stroke="#211c1b" stroke-width="5" stroke-linecap="round" />
  <path d="M45 232 Q128 180 211 232" fill="none" stroke="#808493" stroke-width="12" stroke-linecap="round" opacity="0.55" />
  
  <circle cx="128" cy="206" r="34" fill="#2c384b" opacity="0.92" />
  <path d="M96 216 Q128 174 160 216" fill="none" stroke="#c19d54" stroke-width="6" /><path d="M128 174 L128 228" stroke="#edf0f4" stroke-width="5" />
  <text x="128" y="92" text-anchor="middle" font-size="18" font-weight="700" font-family="Georgia, serif" fill="#e1e4e8" opacity="0.75">GJ</text>
</svg>