<?xml version="1.0" encoding="UTF-8"?>
<svg xmlns="http://www.w3.org/2000/svg" viewBox="0 0 256 256" role="img" aria-label="Guo Jia avatar 64">
  <defs>
    <linearGradient id="bg-c_019-64" x1="0" x2="1" y1="0" y2="1">
      <stop offset="0%" stop-color="#3d495c" />
      <stop offset="100%" stop-color="#be9a51" />
    </linearGradient>
    <radialGradient id="glow-c_019-64" cx="50%" cy="38%" r="60%">
      <stop offset="0%" stop-color="#f9fcff" stop-opacity="0.94" />
      <stop offset="100%" stop-color="#384457" stop-opacity="0" />
    </radialGradient>
  </defs>
  <rect width="256" height="256" rx="36" fill="url(#bg-c_019-64)" />
  <rect x="12" y="12" width="232" height="232" rx="28" fill="url(#glow-c_019-64)" opacity="0.75" />
  <path d="M44 76 L52 96 L74 98 L56 112 L62 134 L44 120 L26 134 L32 112 L14 98 L36 96 Z" fill="#c9a55c" opacity="0.8" />
  <circle cx="128" cy="128" r="104" fill="none" stroke="#e5e8ec" stroke-width="8" opacity="0.85" />
  <path d="M52 222 Q128 172 204 222 V256 H52 Z" fill="#6c707f" />
  <path d="M68 210 Q128 188 188 210" fill="none" stroke="#c9a55c" stroke-width="8" stroke-linecap="round" opacity="0.8" />
  <path d="M86 206 Q128 170 170 206" fill="none" stroke="#edf0f4" stroke-width="6" stroke-linecap="round" opacity="0.65" />
  <ellipse cx="128" cy="146" rx="83" ry="93" fill="#e1e4e8" />
  <path d="M84 132 Q128 65 172 132 L168 92 Q128 47 88 92 Z" fill="#221d1c" />
  <path d="M80 134 Q74 162 92 188" fill="none" stroke="#221d1c" stroke-width="16" stroke-linecap="round" opacity="0.95" />
  <path d="M176 134 Q182 162 164 188" fill="none" stroke="#221d1c" stroke-width="16" stroke-linecap="round" opacity="0.95" />
  
      <path d="M56 93 Q128 17 200 93 L184 156 Q128 126 72 156 Z" fill="#384457" opacity="0.92" />
      <path d="M80 103 Q128 61 176 103" fill="none" stroke="#c9a55c" stroke-width="6" stroke-linecap="round" />
    
  <path d="M96 93 Q106 87 118 93" fill="none" stroke="#221d1c" stroke-width="5" stroke-linecap="round" />
  <path d="M138 93 Q150 87 160 93" fill="none" stroke="#221d1c" stroke-width="5" stroke-linecap="round" />
  <ellipse cx="106" cy="105" rx="7" ry="5" fill="#251b1a" />
  <ellipse cx="150" cy="105" rx="7" ry="5" fill="#251b1a" />
  <circle cx="104" cy="104" r="2" fill="#fff8ee" opacity="0.8" />
  <circle cx="148" cy="104" r="2" fill="#fff8ee" opacity="0.8" />
  <path d="M128 115 Q120 133 128 143 Q136 133 128 115" fill="#d3d6da" opacity="0.68" />
  <path d="M104 161 Q128 175 152 161" fill="none" stroke="#2c2726" stroke-width="5" stroke-linecap="round" />
  <path d="M29 232 Q128 180 227 232" fill="none" stroke="#848897" stroke-width="12" stroke-linecap="round" opacity="0.55" />
  
  <circle cx="128" cy="206" r="34" fill="#2c384b" opacity="0.92" />
  <path d="M96 216 Q128 174 160 216" fill="none" stroke="#c9a55c" stroke-width="6" /><path d="M128 174 L128 228" stroke="#edf0f4" stroke-width="5" />
  <text x="128" y="92" text-anchor="middle" font-size="18" font-weight="700" font-family="Georgia, serif" fill="#e1e4e8" opacity="0.75">GJ</text>
</svg>