<?xml version="1.0" encoding="UTF-8"?>
<svg xmlns="http://www.w3.org/2000/svg" viewBox="0 0 256 256" role="img" aria-label="Guo Jia avatar 46">
  <defs>
    <linearGradient id="bg-c_019-46" x1="0" x2="1" y1="0" y2="1">
      <stop offset="0%" stop-color="#384457" />
      <stop offset="100%" stop-color="#c8a45b" />
    </linearGradient>
    <radialGradient id="glow-c_019-46" cx="50%" cy="38%" r="60%">
      <stop offset="0%" stop-color="#f9fcff" stop-opacity="0.94" />
      <stop offset="100%" stop-color="#384457" stop-opacity="0" />
    </radialGradient>
  </defs>
  <rect width="256" height="256" rx="36" fill="url(#bg-c_019-46)" />
  <rect x="12" y="12" width="232" height="232" rx="28" fill="url(#glow-c_019-46)" opacity="0.75" />
  <path d="M44 76 L52 96 L74 98 L56 112 L62 134 L44 120 L26 134 L32 112 L14 98 L36 96 Z" fill="#c39f56" opacity="0.8" />
  <circle cx="128" cy="128" r="104" fill="none" stroke="#e5e8ec" stroke-width="8" opacity="0.85" />
  <path d="M52 222 Q128 174 204 222 V256 H52 Z" fill="#6c707f" />
  <path d="M68 210 Q128 185 188 210" fill="none" stroke="#c39f56" stroke-width="8" stroke-linecap="round" opacity="0.8" />
  <path d="M86 206 Q128 170 170 206" fill="none" stroke="#edf0f4" stroke-width="6" stroke-linecap="round" opacity="0.65" />
  <ellipse cx="128" cy="146" rx="88" ry="98" fill="#dfe2e6" />
  <path d="M84 132 Q128 57 172 132 L168 92 Q128 42 88 92 Z" fill="#1e1918" />
  <path d="M80 134 Q74 162 92 188" fill="none" stroke="#1e1918" stroke-width="16" stroke-linecap="round" opacity="0.95" />
  <path d="M176 134 Q182 162 164 188" fill="none" stroke="#1e1918" stroke-width="16" stroke-linecap="round" opacity="0.95" />
  
      <path d="M56 102 Q128 26 200 102 L184 156 Q128 126 72 156 Z" fill="#384457" opacity="0.92" />
      <path d="M80 112 Q128 70 176 112" fill="none" stroke="#c39f56" stroke-width="6" stroke-linecap="round" />
    
  <path d="M95 97 Q105 91 117 97" fill="none" stroke="#1e1918" stroke-width="5" stroke-linecap="round" />
  <path d="M139 97 Q151 91 161 97" fill="none" stroke="#1e1918" stroke-width="5" stroke-linecap="round" />
  <ellipse cx="105" cy="109" rx="7" ry="5" fill="#251b1a" />
  <ellipse cx="151" cy="109" rx="7" ry="5" fill="#251b1a" />
  <circle cx="103" cy="108" r="2" fill="#fff8ee" opacity="0.8" />
  <circle cx="149" cy="108" r="2" fill="#fff8ee" opacity="0.8" />
  <path d="M128 119 Q120 137 128 147 Q136 137 128 119" fill="#d1d4d8" opacity="0.68" />
  <path d="M104 165 Q128 179 152 165" fill="none" stroke="#282322" stroke-width="5" stroke-linecap="round" />
  <path d="M41 232 Q128 180 215 232" fill="none" stroke="#848897" stroke-width="12" stroke-linecap="round" opacity="0.55" />
  
  <circle cx="128" cy="206" r="34" fill="#2c384b" opacity="0.92" />
  <path d="M96 216 Q128 174 160 216" fill="none" stroke="#c39f56" stroke-width="6" /><path d="M128 174 L128 228" stroke="#edf0f4" stroke-width="5" />
  <text x="128" y="92" text-anchor="middle" font-size="18" font-weight="700" font-family="Georgia, serif" fill="#e1e4e8" opacity="0.75">GJ</text>
</svg>