<?xml version="1.0" encoding="UTF-8"?>
<svg xmlns="http://www.w3.org/2000/svg" viewBox="0 0 256 256" role="img" aria-label="Guo Jia avatar 88">
  <defs>
    <linearGradient id="bg-c_019-88" x1="0" x2="1" y1="0" y2="1">
      <stop offset="0%" stop-color="#354154" />
      <stop offset="100%" stop-color="#d1ad64" />
    </linearGradient>
    <radialGradient id="glow-c_019-88" cx="50%" cy="38%" r="60%">
      <stop offset="0%" stop-color="#f9fcff" stop-opacity="0.94" />
      <stop offset="100%" stop-color="#384457" stop-opacity="0" />
    </radialGradient>
  </defs>
  <rect width="256" height="256" rx="36" fill="url(#bg-c_019-88)" />
  <rect x="12" y="12" width="232" height="232" rx="28" fill="url(#glow-c_019-88)" opacity="0.75" />
  <path d="M44 76 L52 96 L74 98 L56 112 L62 134 L44 120 L26 134 L32 112 L14 98 L36 96 Z" fill="#cfab62" opacity="0.8" />
  <circle cx="128" cy="128" r="104" fill="none" stroke="#e5e8ec" stroke-width="8" opacity="0.85" />
  <path d="M52 222 Q128 164 204 222 V256 H52 Z" fill="#696d7c" />
  <path d="M68 210 Q128 187 188 210" fill="none" stroke="#cfab62" stroke-width="8" stroke-linecap="round" opacity="0.8" />
  <path d="M86 206 Q128 170 170 206" fill="none" stroke="#edf0f4" stroke-width="6" stroke-linecap="round" opacity="0.65" />
  <ellipse cx="128" cy="146" rx="83" ry="91" fill="#f4f7fb" />
  <path d="M84 132 Q128 63 172 132 L168 92 Q128 46 88 92 Z" fill="#1c1716" />
  <path d="M80 134 Q74 162 92 188" fill="none" stroke="#1c1716" stroke-width="16" stroke-linecap="round" opacity="0.95" />
  <path d="M176 134 Q182 162 164 188" fill="none" stroke="#1c1716" stroke-width="16" stroke-linecap="round" opacity="0.95" />
  
      <path d="M56 94 Q128 18 200 94 L184 156 Q128 126 72 156 Z" fill="#384457" opacity="0.92" />
      <path d="M80 104 Q128 62 176 104" fill="none" stroke="#cfab62" stroke-width="6" stroke-linecap="round" />
    
  <path d="M91 93 Q101 87 113 93" fill="none" stroke="#1c1716" stroke-width="5" stroke-linecap="round" />
  <path d="M143 93 Q155 87 165 93" fill="none" stroke="#1c1716" stroke-width="5" stroke-linecap="round" />
  <ellipse cx="101" cy="105" rx="7" ry="5" fill="#251b1a" />
  <ellipse cx="155" cy="105" rx="7" ry="5" fill="#251b1a" />
  <circle cx="99" cy="104" r="2" fill="#fff8ee" opacity="0.8" />
  <circle cx="153" cy="104" r="2" fill="#fff8ee" opacity="0.8" />
  <path d="M128 115 Q120 133 128 143 Q136 133 128 115" fill="#e6e9ed" opacity="0.68" />
  <path d="M104 161 Q128 175 152 161" fill="none" stroke="#262120" stroke-width="5" stroke-linecap="round" />
  <path d="M33 232 Q128 180 223 232" fill="none" stroke="#818594" stroke-width="12" stroke-linecap="round" opacity="0.55" />
  
  <circle cx="128" cy="206" r="34" fill="#2c384b" opacity="0.92" />
  <path d="M96 216 Q128 174 160 216" fill="none" stroke="#cfab62" stroke-width="6" /><path d="M128 174 L128 228" stroke="#edf0f4" stroke-width="5" />
  <text x="128" y="92" text-anchor="middle" font-size="18" font-weight="700" font-family="Georgia, serif" fill="#e1e4e8" opacity="0.75">GJ</text>
</svg>