<?xml version="1.0" encoding="UTF-8"?>
<svg xmlns="http://www.w3.org/2000/svg" viewBox="0 0 256 256" role="img" aria-label="Guo Jia avatar 50">
  <defs>
    <linearGradient id="bg-c_019-50" x1="0" x2="1" y1="0" y2="1">
      <stop offset="0%" stop-color="#2f3b4e" />
      <stop offset="100%" stop-color="#be9a51" />
    </linearGradient>
    <radialGradient id="glow-c_019-50" cx="50%" cy="38%" r="60%">
      <stop offset="0%" stop-color="#f9fcff" stop-opacity="0.94" />
      <stop offset="100%" stop-color="#384457" stop-opacity="0" />
    </radialGradient>
  </defs>
  <rect width="256" height="256" rx="36" fill="url(#bg-c_019-50)" />
  <rect x="12" y="12" width="232" height="232" rx="28" fill="url(#glow-c_019-50)" opacity="0.75" />
  <path d="M44 76 L52 96 L74 98 L56 112 L62 134 L44 120 L26 134 L32 112 L14 98 L36 96 Z" fill="#d0ac63" opacity="0.8" />
  <circle cx="128" cy="128" r="104" fill="none" stroke="#e5e8ec" stroke-width="8" opacity="0.85" />
  <path d="M52 222 Q128 164 204 222 V256 H52 Z" fill="#6b6f7e" />
  <path d="M68 210 Q128 184 188 210" fill="none" stroke="#d0ac63" stroke-width="8" stroke-linecap="round" opacity="0.8" />
  <path d="M86 206 Q128 170 170 206" fill="none" stroke="#edf0f4" stroke-width="6" stroke-linecap="round" opacity="0.65" />
  <ellipse cx="128" cy="146" rx="79" ry="98" fill="#f5f8fc" />
  <path d="M84 132 Q128 68 172 132 L168 92 Q128 44 88 92 Z" fill="#2a2524" />
  <path d="M80 134 Q74 162 92 188" fill="none" stroke="#2a2524" stroke-width="16" stroke-linecap="round" opacity="0.95" />
  <path d="M176 134 Q182 162 164 188" fill="none" stroke="#2a2524" stroke-width="16" stroke-linecap="round" opacity="0.95" />
  
      <path d="M56 102 Q128 26 200 102 L184 156 Q128 126 72 156 Z" fill="#384457" opacity="0.92" />
      <path d="M80 112 Q128 70 176 112" fill="none" stroke="#d0ac63" stroke-width="6" stroke-linecap="round" />
    
  <path d="M90 96 Q100 90 112 96" fill="none" stroke="#2a2524" stroke-width="5" stroke-linecap="round" />
  <path d="M144 96 Q156 90 166 96" fill="none" stroke="#2a2524" stroke-width="5" stroke-linecap="round" />
  <ellipse cx="100" cy="108" rx="7" ry="5" fill="#251b1a" />
  <ellipse cx="156" cy="108" rx="7" ry="5" fill="#251b1a" />
  <circle cx="98" cy="107" r="2" fill="#fff8ee" opacity="0.8" />
  <circle cx="154" cy="107" r="2" fill="#fff8ee" opacity="0.8" />
  <path d="M128 118 Q120 136 128 146 Q136 136 128 118" fill="#e7eaee" opacity="0.68" />
  <path d="M104 164 Q128 178 152 164" fill="none" stroke="#342f2e" stroke-width="5" stroke-linecap="round" />
  <path d="M29 232 Q128 180 227 232" fill="none" stroke="#838796" stroke-width="12" stroke-linecap="round" opacity="0.55" />
  
  <circle cx="128" cy="206" r="34" fill="#2c384b" opacity="0.92" />
  <path d="M96 216 Q128 174 160 216" fill="none" stroke="#d0ac63" stroke-width="6" /><path d="M128 174 L128 228" stroke="#edf0f4" stroke-width="5" />
  <text x="128" y="92" text-anchor="middle" font-size="18" font-weight="700" font-family="Georgia, serif" fill="#e1e4e8" opacity="0.75">GJ</text>
</svg>