<?xml version="1.0" encoding="UTF-8"?>
<svg xmlns="http://www.w3.org/2000/svg" viewBox="0 0 256 256" role="img" aria-label="Guo Jia avatar 65">
  <defs>
    <linearGradient id="bg-c_019-65" x1="0" x2="1" y1="0" y2="1">
      <stop offset="0%" stop-color="#333f52" />
      <stop offset="100%" stop-color="#caa65d" />
    </linearGradient>
    <radialGradient id="glow-c_019-65" cx="50%" cy="38%" r="60%">
      <stop offset="0%" stop-color="#f9fcff" stop-opacity="0.94" />
      <stop offset="100%" stop-color="#384457" stop-opacity="0" />
    </radialGradient>
  </defs>
  <rect width="256" height="256" rx="36" fill="url(#bg-c_019-65)" />
  <rect x="12" y="12" width="232" height="232" rx="28" fill="url(#glow-c_019-65)" opacity="0.75" />
  <path d="M44 76 L52 96 L74 98 L56 112 L62 134 L44 120 L26 134 L32 112 L14 98 L36 96 Z" fill="#cca85f" opacity="0.8" />
  <circle cx="128" cy="128" r="104" fill="none" stroke="#e5e8ec" stroke-width="8" opacity="0.85" />
  <path d="M52 222 Q128 173 204 222 V256 H52 Z" fill="#727685" />
  <path d="M68 210 Q128 194 188 210" fill="none" stroke="#cca85f" stroke-width="8" stroke-linecap="round" opacity="0.8" />
  <path d="M86 206 Q128 170 170 206" fill="none" stroke="#edf0f4" stroke-width="6" stroke-linecap="round" opacity="0.65" />
  <ellipse cx="128" cy="146" rx="85" ry="94" fill="#e2e5e9" />
  <path d="M84 132 Q128 58 172 132 L168 92 Q128 44 88 92 Z" fill="#1b1615" />
  <path d="M80 134 Q74 162 92 188" fill="none" stroke="#1b1615" stroke-width="16" stroke-linecap="round" opacity="0.95" />
  <path d="M176 134 Q182 162 164 188" fill="none" stroke="#1b1615" stroke-width="16" stroke-linecap="round" opacity="0.95" />
  
      <path d="M56 96 Q128 20 200 96 L184 156 Q128 126 72 156 Z" fill="#384457" opacity="0.92" />
      <path d="M80 106 Q128 64 176 106" fill="none" stroke="#cca85f" stroke-width="6" stroke-linecap="round" />
    
  <path d="M91 95 Q101 89 113 95" fill="none" stroke="#1b1615" stroke-width="5" stroke-linecap="round" />
  <path d="M143 95 Q155 89 165 95" fill="none" stroke="#1b1615" stroke-width="5" stroke-linecap="round" />
  <ellipse cx="101" cy="107" rx="7" ry="5" fill="#251b1a" />
  <ellipse cx="155" cy="107" rx="7" ry="5" fill="#251b1a" />
  <circle cx="99" cy="106" r="2" fill="#fff8ee" opacity="0.8" />
  <circle cx="153" cy="106" r="2" fill="#fff8ee" opacity="0.8" />
  <path d="M128 117 Q120 135 128 145 Q136 135 128 117" fill="#d4d7db" opacity="0.68" />
  <path d="M104 163 Q128 177 152 163" fill="none" stroke="#25201f" stroke-width="5" stroke-linecap="round" />
  <path d="M34 232 Q128 180 222 232" fill="none" stroke="#8a8e9d" stroke-width="12" stroke-linecap="round" opacity="0.55" />
  
  <circle cx="128" cy="206" r="34" fill="#2c384b" opacity="0.92" />
  <path d="M96 216 Q128 174 160 216" fill="none" stroke="#cca85f" stroke-width="6" /><path d="M128 174 L128 228" stroke="#edf0f4" stroke-width="5" />
  <text x="128" y="92" text-anchor="middle" font-size="18" font-weight="700" font-family="Georgia, serif" fill="#e1e4e8" opacity="0.75">GJ</text>
</svg>