<?xml version="1.0" encoding="UTF-8"?>
<svg xmlns="http://www.w3.org/2000/svg" viewBox="0 0 256 256" role="img" aria-label="Guo Jia avatar 23">
  <defs>
    <linearGradient id="bg-c_019-23" x1="0" x2="1" y1="0" y2="1">
      <stop offset="0%" stop-color="#303c4f" />
      <stop offset="100%" stop-color="#c19d54" />
    </linearGradient>
    <radialGradient id="glow-c_019-23" cx="50%" cy="38%" r="60%">
      <stop offset="0%" stop-color="#f9fcff" stop-opacity="0.94" />
      <stop offset="100%" stop-color="#384457" stop-opacity="0" />
    </radialGradient>
  </defs>
  <rect width="256" height="256" rx="36" fill="url(#bg-c_019-23)" />
  <rect x="12" y="12" width="232" height="232" rx="28" fill="url(#glow-c_019-23)" opacity="0.75" />
  <path d="M44 76 L52 96 L74 98 L56 112 L62 134 L44 120 L26 134 L32 112 L14 98 L36 96 Z" fill="#bc984f" opacity="0.8" />
  <circle cx="128" cy="128" r="104" fill="none" stroke="#e5e8ec" stroke-width="8" opacity="0.85" />
  <path d="M52 222 Q128 160 204 222 V256 H52 Z" fill="#757988" />
  <path d="M68 210 Q128 185 188 210" fill="none" stroke="#bc984f" stroke-width="8" stroke-linecap="round" opacity="0.8" />
  <path d="M86 206 Q128 170 170 206" fill="none" stroke="#edf0f4" stroke-width="6" stroke-linecap="round" opacity="0.65" />
  <ellipse cx="128" cy="146" rx="81" ry="99" fill="#e6e9ed" />
  <path d="M84 132 Q128 59 172 132 L168 92 Q128 39 88 92 Z" fill="#262120" />
  <path d="M80 134 Q74 162 92 188" fill="none" stroke="#262120" stroke-width="16" stroke-linecap="round" opacity="0.95" />
  <path d="M176 134 Q182 162 164 188" fill="none" stroke="#262120" stroke-width="16" stroke-linecap="round" opacity="0.95" />
  
      <path d="M56 97 Q128 21 200 97 L184 156 Q128 126 72 156 Z" fill="#384457" opacity="0.92" />
      <path d="M80 107 Q128 65 176 107" fill="none" stroke="#bc984f" stroke-width="6" stroke-linecap="round" />
    
  <path d="M92 94 Q102 88 114 94" fill="none" stroke="#262120" stroke-width="5" stroke-linecap="round" />
  <path d="M142 94 Q154 88 164 94" fill="none" stroke="#262120" stroke-width="5" stroke-linecap="round" />
  <ellipse cx="102" cy="106" rx="7" ry="5" fill="#251b1a" />
  <ellipse cx="154" cy="106" rx="7" ry="5" fill="#251b1a" />
  <circle cx="100" cy="105" r="2" fill="#fff8ee" opacity="0.8" />
  <circle cx="152" cy="105" r="2" fill="#fff8ee" opacity="0.8" />
  <path d="M128 116 Q120 134 128 144 Q136 134 128 116" fill="#d8dbdf" opacity="0.68" />
  <path d="M104 162 Q128 176 152 162" fill="none" stroke="#302b2a" stroke-width="5" stroke-linecap="round" />
  <path d="M45 232 Q128 180 211 232" fill="none" stroke="#8d91a0" stroke-width="12" stroke-linecap="round" opacity="0.55" />
  
  <circle cx="128" cy="206" r="34" fill="#2c384b" opacity="0.92" />
  <path d="M96 216 Q128 174 160 216" fill="none" stroke="#bc984f" stroke-width="6" /><path d="M128 174 L128 228" stroke="#edf0f4" stroke-width="5" />
  <text x="128" y="92" text-anchor="middle" font-size="18" font-weight="700" font-family="Georgia, serif" fill="#e1e4e8" opacity="0.75">GJ</text>
</svg>