<?xml version="1.0" encoding="UTF-8"?>
<svg xmlns="http://www.w3.org/2000/svg" viewBox="0 0 256 256" role="img" aria-label="Ma Chao avatar 86">
  <defs>
    <linearGradient id="bg-c_013-86" x1="0" x2="1" y1="0" y2="1">
      <stop offset="0%" stop-color="#277546" />
      <stop offset="100%" stop-color="#e1c163" />
    </linearGradient>
    <radialGradient id="glow-c_013-86" cx="50%" cy="38%" r="60%">
      <stop offset="0%" stop-color="#fef2c9" stop-opacity="0.94" />
      <stop offset="100%" stop-color="#2c7a4b" stop-opacity="0" />
    </radialGradient>
  </defs>
  <rect width="256" height="256" rx="36" fill="url(#bg-c_013-86)" />
  <rect x="12" y="12" width="232" height="232" rx="28" fill="url(#glow-c_013-86)" opacity="0.75" />
  <path d="M58 76 L74 94 L54 100 L66 116 L42 112 L36 134 L28 108 L6 112 L18 96 L0 86 L24 84 L18 60 L36 76 Z" fill="#daba5c" opacity="0.55" />
  <circle cx="128" cy="128" r="104" fill="none" stroke="#eadeb5" stroke-width="8" opacity="0.85" />
  <path d="M52 222 Q128 174 204 222 V256 H52 Z" fill="#d6dbd5" />
  <path d="M68 210 Q128 185 188 210" fill="none" stroke="#daba5c" stroke-width="8" stroke-linecap="round" opacity="0.8" />
  <path d="M86 206 Q128 170 170 206" fill="none" stroke="#f2e6bd" stroke-width="6" stroke-linecap="round" opacity="0.65" />
  <ellipse cx="128" cy="146" rx="86" ry="100" fill="#efe3ba" />
  <path d="M84 132 Q128 67 172 132 L168 92 Q128 47 88 92 Z" fill="#342620" />
  <path d="M80 134 Q74 162 92 188" fill="none" stroke="#342620" stroke-width="16" stroke-linecap="round" opacity="0.95" />
  <path d="M176 134 Q182 162 164 188" fill="none" stroke="#342620" stroke-width="16" stroke-linecap="round" opacity="0.95" />
  
      <path d="M68 87 Q128 25 188 87 L176 124 Q128 96 80 124 Z" fill="#2c7a4b" />
      <path d="M94 85 Q128 51 162 85" fill="none" stroke="#daba5c" stroke-width="8" stroke-linecap="round" />
    
  <path d="M91 93 Q101 87 113 93" fill="none" stroke="#342620" stroke-width="5" stroke-linecap="round" />
  <path d="M143 93 Q155 87 165 93" fill="none" stroke="#342620" stroke-width="5" stroke-linecap="round" />
  <ellipse cx="101" cy="105" rx="7" ry="5" fill="#251b1a" />
  <ellipse cx="155" cy="105" rx="7" ry="5" fill="#251b1a" />
  <circle cx="99" cy="104" r="2" fill="#fff8ee" opacity="0.8" />
  <circle cx="153" cy="104" r="2" fill="#fff8ee" opacity="0.8" />
  <path d="M128 115 Q120 133 128 143 Q136 133 128 115" fill="#e1d5ac" opacity="0.68" />
  <path d="M104 161 Q128 175 152 161" fill="none" stroke="#3e302a" stroke-width="5" stroke-linecap="round" />
  <path d="M41 232 Q128 180 215 232" fill="none" stroke="#eef3ed" stroke-width="12" stroke-linecap="round" opacity="0.55" />
  
  <circle cx="128" cy="206" r="34" fill="#206e3f" opacity="0.92" />
  <path d="M128 182 L128 228 M118 194 L128 174 L138 194" stroke="#daba5c" stroke-width="6" stroke-linecap="round" stroke-linejoin="round" />
  <text x="128" y="92" text-anchor="middle" font-size="18" font-weight="700" font-family="Georgia, serif" fill="#e6dab1" opacity="0.75">MC</text>
</svg>