<?xml version="1.0" encoding="UTF-8"?>
<svg xmlns="http://www.w3.org/2000/svg" viewBox="0 0 256 256" role="img" aria-label="Ma Chao avatar 32">
  <defs>
    <linearGradient id="bg-c_013-32" x1="0" x2="1" y1="0" y2="1">
      <stop offset="0%" stop-color="#2c7a4b" />
      <stop offset="100%" stop-color="#d8b85a" />
    </linearGradient>
    <radialGradient id="glow-c_013-32" cx="50%" cy="38%" r="60%">
      <stop offset="0%" stop-color="#fef2c9" stop-opacity="0.94" />
      <stop offset="100%" stop-color="#2c7a4b" stop-opacity="0" />
    </radialGradient>
  </defs>
  <rect width="256" height="256" rx="36" fill="url(#bg-c_013-32)" />
  <rect x="12" y="12" width="232" height="232" rx="28" fill="url(#glow-c_013-32)" opacity="0.75" />
  <path d="M58 76 L74 94 L54 100 L66 116 L42 112 L36 134 L28 108 L6 112 L18 96 L0 86 L24 84 L18 60 L36 76 Z" fill="#d2b254" opacity="0.55" />
  <circle cx="128" cy="128" r="104" fill="none" stroke="#eadeb5" stroke-width="8" opacity="0.85" />
  <path d="M52 222 Q128 163 204 222 V256 H52 Z" fill="#dbe0da" />
  <path d="M68 210 Q128 185 188 210" fill="none" stroke="#d2b254" stroke-width="8" stroke-linecap="round" opacity="0.8" />
  <path d="M86 206 Q128 170 170 206" fill="none" stroke="#f2e6bd" stroke-width="6" stroke-linecap="round" opacity="0.65" />
  <ellipse cx="128" cy="146" rx="84" ry="100" fill="#fbefc6" />
  <path d="M84 132 Q128 70 172 132 L168 92 Q128 44 88 92 Z" fill="#271913" />
  <path d="M80 134 Q74 162 92 188" fill="none" stroke="#271913" stroke-width="16" stroke-linecap="round" opacity="0.95" />
  <path d="M176 134 Q182 162 164 188" fill="none" stroke="#271913" stroke-width="16" stroke-linecap="round" opacity="0.95" />
  
      <path d="M68 82 Q128 20 188 82 L176 124 Q128 96 80 124 Z" fill="#2c7a4b" />
      <path d="M94 80 Q128 46 162 80" fill="none" stroke="#d2b254" stroke-width="8" stroke-linecap="round" />
    
  <path d="M95 96 Q105 90 117 96" fill="none" stroke="#271913" stroke-width="5" stroke-linecap="round" />
  <path d="M139 96 Q151 90 161 96" fill="none" stroke="#271913" stroke-width="5" stroke-linecap="round" />
  <ellipse cx="105" cy="108" rx="7" ry="5" fill="#251b1a" />
  <ellipse cx="151" cy="108" rx="7" ry="5" fill="#251b1a" />
  <circle cx="103" cy="107" r="2" fill="#fff8ee" opacity="0.8" />
  <circle cx="149" cy="107" r="2" fill="#fff8ee" opacity="0.8" />
  <path d="M128 118 Q120 136 128 146 Q136 136 128 118" fill="#ede1b8" opacity="0.68" />
  <path d="M104 164 Q128 178 152 164" fill="none" stroke="#31231d" stroke-width="5" stroke-linecap="round" />
  <path d="M35 232 Q128 180 221 232" fill="none" stroke="#f3f8f2" stroke-width="12" stroke-linecap="round" opacity="0.55" />
  
  <circle cx="128" cy="206" r="34" fill="#206e3f" opacity="0.92" />
  <path d="M128 182 L128 228 M118 194 L128 174 L138 194" stroke="#d2b254" stroke-width="6" stroke-linecap="round" stroke-linejoin="round" />
  <text x="128" y="92" text-anchor="middle" font-size="18" font-weight="700" font-family="Georgia, serif" fill="#e6dab1" opacity="0.75">MC</text>
</svg>