<?xml version="1.0" encoding="UTF-8"?>
<svg xmlns="http://www.w3.org/2000/svg" viewBox="0 0 256 256" role="img" aria-label="Ma Chao avatar 16">
  <defs>
    <linearGradient id="bg-c_013-16" x1="0" x2="1" y1="0" y2="1">
      <stop offset="0%" stop-color="#227041" />
      <stop offset="100%" stop-color="#d1b153" />
    </linearGradient>
    <radialGradient id="glow-c_013-16" cx="50%" cy="38%" r="60%">
      <stop offset="0%" stop-color="#fef2c9" stop-opacity="0.94" />
      <stop offset="100%" stop-color="#2c7a4b" stop-opacity="0" />
    </radialGradient>
  </defs>
  <rect width="256" height="256" rx="36" fill="url(#bg-c_013-16)" />
  <rect x="12" y="12" width="232" height="232" rx="28" fill="url(#glow-c_013-16)" opacity="0.75" />
  <path d="M58 76 L74 94 L54 100 L66 116 L42 112 L36 134 L28 108 L6 112 L18 96 L0 86 L24 84 L18 60 L36 76 Z" fill="#e1c163" opacity="0.55" />
  <circle cx="128" cy="128" r="104" fill="none" stroke="#eadeb5" stroke-width="8" opacity="0.85" />
  <path d="M52 222 Q128 169 204 222 V256 H52 Z" fill="#dbe0da" />
  <path d="M68 210 Q128 191 188 210" fill="none" stroke="#e1c163" stroke-width="8" stroke-linecap="round" opacity="0.8" />
  <path d="M86 206 Q128 170 170 206" fill="none" stroke="#f2e6bd" stroke-width="6" stroke-linecap="round" opacity="0.65" />
  <ellipse cx="128" cy="146" rx="85" ry="91" fill="#faeec5" />
  <path d="M84 132 Q128 63 172 132 L168 92 Q128 39 88 92 Z" fill="#2f211b" />
  <path d="M80 134 Q74 162 92 188" fill="none" stroke="#2f211b" stroke-width="16" stroke-linecap="round" opacity="0.95" />
  <path d="M176 134 Q182 162 164 188" fill="none" stroke="#2f211b" stroke-width="16" stroke-linecap="round" opacity="0.95" />
  
      <path d="M68 87 Q128 25 188 87 L176 124 Q128 96 80 124 Z" fill="#2c7a4b" />
      <path d="M94 85 Q128 51 162 85" fill="none" stroke="#e1c163" stroke-width="8" stroke-linecap="round" />
    
  <path d="M92 95 Q102 89 114 95" fill="none" stroke="#2f211b" stroke-width="5" stroke-linecap="round" />
  <path d="M142 95 Q154 89 164 95" fill="none" stroke="#2f211b" stroke-width="5" stroke-linecap="round" />
  <ellipse cx="102" cy="107" rx="7" ry="5" fill="#251b1a" />
  <ellipse cx="154" cy="107" rx="7" ry="5" fill="#251b1a" />
  <circle cx="100" cy="106" r="2" fill="#fff8ee" opacity="0.8" />
  <circle cx="152" cy="106" r="2" fill="#fff8ee" opacity="0.8" />
  <path d="M128 117 Q120 135 128 145 Q136 135 128 117" fill="#ece0b7" opacity="0.68" />
  <path d="M104 163 Q128 177 152 163" fill="none" stroke="#392b25" stroke-width="5" stroke-linecap="round" />
  <path d="M38 232 Q128 180 218 232" fill="none" stroke="#f3f8f2" stroke-width="12" stroke-linecap="round" opacity="0.55" />
  
  <circle cx="128" cy="206" r="34" fill="#206e3f" opacity="0.92" />
  <path d="M128 182 L128 228 M118 194 L128 174 L138 194" stroke="#e1c163" stroke-width="6" stroke-linecap="round" stroke-linejoin="round" />
  <text x="128" y="92" text-anchor="middle" font-size="18" font-weight="700" font-family="Georgia, serif" fill="#e6dab1" opacity="0.75">MC</text>
</svg>