<?xml version="1.0" encoding="UTF-8"?>
<svg xmlns="http://www.w3.org/2000/svg" viewBox="0 0 256 256" role="img" aria-label="Zhou Yu avatar 25">
  <defs>
    <linearGradient id="bg-c_002-25" x1="0" x2="1" y1="0" y2="1">
      <stop offset="0%" stop-color="#245886" />
      <stop offset="100%" stop-color="#fba854" />
    </linearGradient>
    <radialGradient id="glow-c_002-25" cx="50%" cy="38%" r="60%">
      <stop offset="0%" stop-color="#fff4d5" stop-opacity="0.94" />
      <stop offset="100%" stop-color="#2b5f8d" stop-opacity="0" />
    </radialGradient>
  </defs>
  <rect width="256" height="256" rx="36" fill="url(#bg-c_002-25)" />
  <rect x="12" y="12" width="232" height="232" rx="28" fill="url(#glow-c_002-25)" opacity="0.75" />
  <path d="M206 138 Q222 110 206 82 Q188 110 206 138 Z" fill="#2b5f8d" opacity="0.8" /><path d="M206 122 Q214 106 206 94 Q198 106 206 122 Z" fill="#eb9844" opacity="0.9" />
  <circle cx="128" cy="128" r="104" fill="none" stroke="#efe0c1" stroke-width="8" opacity="0.85" />
  <path d="M52 222 Q128 168 204 222 V256 H52 Z" fill="#fbf2e6" />
  <path d="M68 210 Q128 188 188 210" fill="none" stroke="#eb9844" stroke-width="8" stroke-linecap="round" opacity="0.8" />
  <path d="M86 206 Q128 170 170 206" fill="none" stroke="#f7e8c9" stroke-width="6" stroke-linecap="round" opacity="0.65" />
  <ellipse cx="128" cy="146" rx="88" ry="94" fill="#eadbbc" />
  <path d="M84 132 Q128 67 172 132 L168 92 Q128 44 88 92 Z" fill="#2d1f1b" />
  <path d="M80 134 Q74 162 92 188" fill="none" stroke="#2d1f1b" stroke-width="16" stroke-linecap="round" opacity="0.95" />
  <path d="M176 134 Q182 162 164 188" fill="none" stroke="#2d1f1b" stroke-width="16" stroke-linecap="round" opacity="0.95" />
  
    <path d="M78 85 Q128 33 178 85" fill="none" stroke="#eb9844" stroke-width="12" stroke-linecap="round" />
    <rect x="92" y="85" width="72" height="18" rx="9" fill="#2b5f8d" />
  
  <path d="M90 97 Q100 91 112 97" fill="none" stroke="#2d1f1b" stroke-width="5" stroke-linecap="round" />
  <path d="M144 97 Q156 91 166 97" fill="none" stroke="#2d1f1b" stroke-width="5" stroke-linecap="round" />
  <ellipse cx="100" cy="109" rx="7" ry="5" fill="#251b1a" />
  <ellipse cx="156" cy="109" rx="7" ry="5" fill="#251b1a" />
  <circle cx="98" cy="108" r="2" fill="#fff8ee" opacity="0.8" />
  <circle cx="154" cy="108" r="2" fill="#fff8ee" opacity="0.8" />
  <path d="M128 119 Q120 137 128 147 Q136 137 128 119" fill="#dccdae" opacity="0.68" />
  <path d="M104 165 Q128 179 152 165" fill="none" stroke="#372925" stroke-width="5" stroke-linecap="round" />
  <path d="M29 232 Q128 180 227 232" fill="none" stroke="#fffffe" stroke-width="12" stroke-linecap="round" opacity="0.55" />
  
  <circle cx="128" cy="206" r="34" fill="#1f5381" opacity="0.92" />
  <path d="M96 216 Q128 174 160 216" fill="none" stroke="#eb9844" stroke-width="6" /><path d="M128 174 L128 228" stroke="#f7e8c9" stroke-width="5" />
  <text x="128" y="92" text-anchor="middle" font-size="18" font-weight="700" font-family="Georgia, serif" fill="#ebdcbd" opacity="0.75">ZY</text>
</svg>