<?xml version="1.0" encoding="UTF-8"?>
<svg xmlns="http://www.w3.org/2000/svg" viewBox="0 0 256 256" role="img" aria-label="Zhou Yu avatar 33">
  <defs>
    <linearGradient id="bg-c_002-33" x1="0" x2="1" y1="0" y2="1">
      <stop offset="0%" stop-color="#235785" />
      <stop offset="100%" stop-color="#ec9945" />
    </linearGradient>
    <radialGradient id="glow-c_002-33" cx="50%" cy="38%" r="60%">
      <stop offset="0%" stop-color="#fff4d5" stop-opacity="0.94" />
      <stop offset="100%" stop-color="#2b5f8d" stop-opacity="0" />
    </radialGradient>
  </defs>
  <rect width="256" height="256" rx="36" fill="url(#bg-c_002-33)" />
  <rect x="12" y="12" width="232" height="232" rx="28" fill="url(#glow-c_002-33)" opacity="0.75" />
  <path d="M206 138 Q222 110 206 82 Q188 110 206 138 Z" fill="#2b5f8d" opacity="0.8" /><path d="M206 122 Q214 106 206 94 Q198 106 206 122 Z" fill="#f29f4b" opacity="0.9" />
  <circle cx="128" cy="128" r="104" fill="none" stroke="#efe0c1" stroke-width="8" opacity="0.85" />
  <path d="M52 222 Q128 164 204 222 V256 H52 Z" fill="#fff8ec" />
  <path d="M68 210 Q128 187 188 210" fill="none" stroke="#f29f4b" stroke-width="8" stroke-linecap="round" opacity="0.8" />
  <path d="M86 206 Q128 170 170 206" fill="none" stroke="#f7e8c9" stroke-width="6" stroke-linecap="round" opacity="0.65" />
  <ellipse cx="128" cy="146" rx="82" ry="93" fill="#f2e3c4" />
  <path d="M84 132 Q128 69 172 132 L168 92 Q128 38 88 92 Z" fill="#2f211d" />
  <path d="M80 134 Q74 162 92 188" fill="none" stroke="#2f211d" stroke-width="16" stroke-linecap="round" opacity="0.95" />
  <path d="M176 134 Q182 162 164 188" fill="none" stroke="#2f211d" stroke-width="16" stroke-linecap="round" opacity="0.95" />
  
    <path d="M78 78 Q128 26 178 78" fill="none" stroke="#f29f4b" stroke-width="12" stroke-linecap="round" />
    <rect x="92" y="78" width="72" height="18" rx="9" fill="#2b5f8d" />
  
  <path d="M96 98 Q106 92 118 98" fill="none" stroke="#2f211d" stroke-width="5" stroke-linecap="round" />
  <path d="M138 98 Q150 92 160 98" fill="none" stroke="#2f211d" stroke-width="5" stroke-linecap="round" />
  <ellipse cx="106" cy="110" rx="7" ry="5" fill="#251b1a" />
  <ellipse cx="150" cy="110" rx="7" ry="5" fill="#251b1a" />
  <circle cx="104" cy="109" r="2" fill="#fff8ee" opacity="0.8" />
  <circle cx="148" cy="109" r="2" fill="#fff8ee" opacity="0.8" />
  <path d="M128 120 Q120 138 128 148 Q136 138 128 120" fill="#e4d5b6" opacity="0.68" />
  <path d="M104 166 Q128 180 152 166" fill="none" stroke="#392b27" stroke-width="5" stroke-linecap="round" />
  <path d="M41 232 Q128 180 215 232" fill="none" stroke="#ffffff" stroke-width="12" stroke-linecap="round" opacity="0.55" />
  
  <circle cx="128" cy="206" r="34" fill="#1f5381" opacity="0.92" />
  <path d="M96 216 Q128 174 160 216" fill="none" stroke="#f29f4b" stroke-width="6" /><path d="M128 174 L128 228" stroke="#f7e8c9" stroke-width="5" />
  <text x="128" y="92" text-anchor="middle" font-size="18" font-weight="700" font-family="Georgia, serif" fill="#ebdcbd" opacity="0.75">ZY</text>
</svg>