<?xml version="1.0" encoding="UTF-8"?>
<svg xmlns="http://www.w3.org/2000/svg" viewBox="0 0 256 256" role="img" aria-label="Lu Bu avatar 77">
  <defs>
    <linearGradient id="bg-c_006-77" x1="0" x2="1" y1="0" y2="1">
      <stop offset="0%" stop-color="#7f355a" />
      <stop offset="100%" stop-color="#d9a052" />
    </linearGradient>
    <radialGradient id="glow-c_006-77" cx="50%" cy="38%" r="60%">
      <stop offset="0%" stop-color="#fff5ea" stop-opacity="0.94" />
      <stop offset="100%" stop-color="#7f355a" stop-opacity="0" />
    </radialGradient>
  </defs>
  <rect width="256" height="256" rx="36" fill="url(#bg-c_006-77)" />
  <rect x="12" y="12" width="232" height="232" rx="28" fill="url(#glow-c_006-77)" opacity="0.75" />
  <path d="M58 76 L74 94 L54 100 L66 116 L42 112 L36 134 L28 108 L6 112 L18 96 L0 86 L24 84 L18 60 L36 76 Z" fill="#e7ae60" opacity="0.55" />
  <circle cx="128" cy="128" r="104" fill="none" stroke="#f0e1d6" stroke-width="8" opacity="0.85" />
  <path d="M52 222 Q128 169 204 222 V256 H52 Z" fill="#4a2746" />
  <path d="M68 210 Q128 188 188 210" fill="none" stroke="#e7ae60" stroke-width="8" stroke-linecap="round" opacity="0.8" />
  <path d="M86 206 Q128 170 170 206" fill="none" stroke="#f8e9de" stroke-width="6" stroke-linecap="round" opacity="0.65" />
  <ellipse cx="128" cy="146" rx="88" ry="93" fill="#e9dacf" />
  <path d="M84 132 Q128 65 172 132 L168 92 Q128 44 88 92 Z" fill="#1f1312" />
  <path d="M80 134 Q74 162 92 188" fill="none" stroke="#1f1312" stroke-width="16" stroke-linecap="round" opacity="0.95" />
  <path d="M176 134 Q182 162 164 188" fill="none" stroke="#1f1312" stroke-width="16" stroke-linecap="round" opacity="0.95" />
  
      <path d="M68 83 Q128 21 188 83 L176 124 Q128 96 80 124 Z" fill="#7f355a" />
      <path d="M94 81 Q128 47 162 81" fill="none" stroke="#e7ae60" stroke-width="8" stroke-linecap="round" />
    
  <path d="M93 93 Q103 87 115 93" fill="none" stroke="#1f1312" stroke-width="5" stroke-linecap="round" />
  <path d="M141 93 Q153 87 163 93" fill="none" stroke="#1f1312" stroke-width="5" stroke-linecap="round" />
  <ellipse cx="103" cy="105" rx="7" ry="5" fill="#251b1a" />
  <ellipse cx="153" cy="105" rx="7" ry="5" fill="#251b1a" />
  <circle cx="101" cy="104" r="2" fill="#fff8ee" opacity="0.8" />
  <circle cx="151" cy="104" r="2" fill="#fff8ee" opacity="0.8" />
  <path d="M128 115 Q120 133 128 143 Q136 133 128 115" fill="#dbccc1" opacity="0.68" />
  <path d="M104 161 Q128 175 152 161" fill="none" stroke="#291d1c" stroke-width="5" stroke-linecap="round" />
  <path d="M27 232 Q128 180 229 232" fill="none" stroke="#623f5e" stroke-width="12" stroke-linecap="round" opacity="0.55" />
  
      <path d="M128 160 Q116 182 128 200 Q140 182 128 160 Z" fill="#1f1312" opacity="0.9" />
      <path d="M106 148 Q128 158 150 148" fill="none" stroke="#1f1312" stroke-width="5" stroke-linecap="round" />
    
  <circle cx="128" cy="206" r="34" fill="#73294e" opacity="0.92" />
  <path d="M128 178 L128 230" stroke="#e7ae60" stroke-width="6" stroke-linecap="round" /><path d="M110 188 Q128 172 146 188" fill="none" stroke="#f8e9de" stroke-width="5" />
  <text x="128" y="92" text-anchor="middle" font-size="18" font-weight="700" font-family="Georgia, serif" fill="#ecddd2" opacity="0.75">LB</text>
</svg>