<?xml version="1.0" encoding="UTF-8"?>
<svg xmlns="http://www.w3.org/2000/svg" viewBox="0 0 256 256" role="img" aria-label="Lu Bu avatar 67">
  <defs>
    <linearGradient id="bg-c_006-67" x1="0" x2="1" y1="0" y2="1">
      <stop offset="0%" stop-color="#762c51" />
      <stop offset="100%" stop-color="#ecb365" />
    </linearGradient>
    <radialGradient id="glow-c_006-67" cx="50%" cy="38%" r="60%">
      <stop offset="0%" stop-color="#fff5ea" stop-opacity="0.94" />
      <stop offset="100%" stop-color="#7f355a" stop-opacity="0" />
    </radialGradient>
  </defs>
  <rect width="256" height="256" rx="36" fill="url(#bg-c_006-67)" />
  <rect x="12" y="12" width="232" height="232" rx="28" fill="url(#glow-c_006-67)" opacity="0.75" />
  <path d="M58 76 L74 94 L54 100 L66 116 L42 112 L36 134 L28 108 L6 112 L18 96 L0 86 L24 84 L18 60 L36 76 Z" fill="#eeb567" opacity="0.55" />
  <circle cx="128" cy="128" r="104" fill="none" stroke="#f0e1d6" stroke-width="8" opacity="0.85" />
  <path d="M52 222 Q128 171 204 222 V256 H52 Z" fill="#3d1a39" />
  <path d="M68 210 Q128 186 188 210" fill="none" stroke="#eeb567" stroke-width="8" stroke-linecap="round" opacity="0.8" />
  <path d="M86 206 Q128 170 170 206" fill="none" stroke="#f8e9de" stroke-width="6" stroke-linecap="round" opacity="0.65" />
  <ellipse cx="128" cy="146" rx="79" ry="96" fill="#fff5ea" />
  <path d="M84 132 Q128 59 172 132 L168 92 Q128 44 88 92 Z" fill="#201413" />
  <path d="M80 134 Q74 162 92 188" fill="none" stroke="#201413" stroke-width="16" stroke-linecap="round" opacity="0.95" />
  <path d="M176 134 Q182 162 164 188" fill="none" stroke="#201413" stroke-width="16" stroke-linecap="round" opacity="0.95" />
  
      <path d="M68 82 Q128 20 188 82 L176 124 Q128 96 80 124 Z" fill="#7f355a" />
      <path d="M94 80 Q128 46 162 80" fill="none" stroke="#eeb567" stroke-width="8" stroke-linecap="round" />
    
  <path d="M92 97 Q102 91 114 97" fill="none" stroke="#201413" stroke-width="5" stroke-linecap="round" />
  <path d="M142 97 Q154 91 164 97" fill="none" stroke="#201413" stroke-width="5" stroke-linecap="round" />
  <ellipse cx="102" cy="109" rx="7" ry="5" fill="#251b1a" />
  <ellipse cx="154" cy="109" rx="7" ry="5" fill="#251b1a" />
  <circle cx="100" cy="108" r="2" fill="#fff8ee" opacity="0.8" />
  <circle cx="152" cy="108" r="2" fill="#fff8ee" opacity="0.8" />
  <path d="M128 119 Q120 137 128 147 Q136 137 128 119" fill="#f1e7dc" opacity="0.68" />
  <path d="M104 165 Q128 179 152 165" fill="none" stroke="#2a1e1d" stroke-width="5" stroke-linecap="round" />
  <path d="M46 232 Q128 180 210 232" fill="none" stroke="#553251" stroke-width="12" stroke-linecap="round" opacity="0.55" />
  
      <path d="M128 160 Q116 182 128 200 Q140 182 128 160 Z" fill="#201413" opacity="0.9" />
      <path d="M106 148 Q128 158 150 148" fill="none" stroke="#201413" stroke-width="5" stroke-linecap="round" />
    
  <circle cx="128" cy="206" r="34" fill="#73294e" opacity="0.92" />
  <path d="M128 178 L128 230" stroke="#eeb567" stroke-width="6" stroke-linecap="round" /><path d="M110 188 Q128 172 146 188" fill="none" stroke="#f8e9de" stroke-width="5" />
  <text x="128" y="92" text-anchor="middle" font-size="18" font-weight="700" font-family="Georgia, serif" fill="#ecddd2" opacity="0.75">LB</text>
</svg>