<?xml version="1.0" encoding="UTF-8"?>
<svg xmlns="http://www.w3.org/2000/svg" viewBox="0 0 256 256" role="img" aria-label="Sun Ce avatar 34">
  <defs>
    <linearGradient id="bg-c_021-34" x1="0" x2="1" y1="0" y2="1">
      <stop offset="0%" stop-color="#295d8b" />
      <stop offset="100%" stop-color="#fca955" />
    </linearGradient>
    <radialGradient id="glow-c_021-34" cx="50%" cy="38%" r="60%">
      <stop offset="0%" stop-color="#fff4d5" stop-opacity="0.94" />
      <stop offset="100%" stop-color="#2b5f8d" stop-opacity="0" />
    </radialGradient>
  </defs>
  <rect width="256" height="256" rx="36" fill="url(#bg-c_021-34)" />
  <rect x="12" y="12" width="232" height="232" rx="28" fill="url(#glow-c_021-34)" opacity="0.75" />
  <path d="M18 182 Q42 160 66 182 T114 182" fill="none" stroke="#f19e4a" stroke-width="6" opacity="0.75" />
  <circle cx="128" cy="128" r="104" fill="none" stroke="#efe0c1" stroke-width="8" opacity="0.85" />
  <path d="M52 222 Q128 169 204 222 V256 H52 Z" fill="#d3a46a" />
  <path d="M68 210 Q128 186 188 210" fill="none" stroke="#f19e4a" stroke-width="8" stroke-linecap="round" opacity="0.8" />
  <path d="M86 206 Q128 170 170 206" fill="none" stroke="#f7e8c9" stroke-width="6" stroke-linecap="round" opacity="0.65" />
  <ellipse cx="128" cy="146" rx="83" ry="93" fill="#fcedce" />
  <path d="M84 132 Q128 60 172 132 L168 92 Q128 46 88 92 Z" fill="#281a16" />
  <path d="M80 134 Q74 162 92 188" fill="none" stroke="#281a16" stroke-width="16" stroke-linecap="round" opacity="0.95" />
  <path d="M176 134 Q182 162 164 188" fill="none" stroke="#281a16" stroke-width="16" stroke-linecap="round" opacity="0.95" />
  
    <path d="M78 79 Q128 27 178 79" fill="none" stroke="#f19e4a" stroke-width="12" stroke-linecap="round" />
    <rect x="92" y="79" width="72" height="18" rx="9" fill="#2b5f8d" />
  
  <path d="M90 97 Q100 91 112 97" fill="none" stroke="#281a16" stroke-width="5" stroke-linecap="round" />
  <path d="M144 97 Q156 91 166 97" fill="none" stroke="#281a16" stroke-width="5" stroke-linecap="round" />
  <ellipse cx="100" cy="109" rx="7" ry="5" fill="#251b1a" />
  <ellipse cx="156" cy="109" rx="7" ry="5" fill="#251b1a" />
  <circle cx="98" cy="108" r="2" fill="#fff8ee" opacity="0.8" />
  <circle cx="154" cy="108" r="2" fill="#fff8ee" opacity="0.8" />
  <path d="M128 119 Q120 137 128 147 Q136 137 128 119" fill="#eedfc0" opacity="0.68" />
  <path d="M104 165 Q128 179 152 165" fill="none" stroke="#322420" stroke-width="5" stroke-linecap="round" />
  <path d="M36 232 Q128 180 220 232" fill="none" stroke="#ebbc82" stroke-width="12" stroke-linecap="round" opacity="0.55" />
  
  <circle cx="128" cy="206" r="34" fill="#1f5381" opacity="0.92" />
  <path d="M128 182 L128 228 M118 194 L128 174 L138 194" stroke="#f19e4a" stroke-width="6" stroke-linecap="round" stroke-linejoin="round" />
  <text x="128" y="92" text-anchor="middle" font-size="18" font-weight="700" font-family="Georgia, serif" fill="#ebdcbd" opacity="0.75">SC</text>
</svg>