<?xml version="1.0" encoding="UTF-8"?>
<svg xmlns="http://www.w3.org/2000/svg" viewBox="0 0 256 256" role="img" aria-label="Sun Ce avatar 93">
  <defs>
    <linearGradient id="bg-c_021-93" x1="0" x2="1" y1="0" y2="1">
      <stop offset="0%" stop-color="#2f6391" />
      <stop offset="100%" stop-color="#e89541" />
    </linearGradient>
    <radialGradient id="glow-c_021-93" cx="50%" cy="38%" r="60%">
      <stop offset="0%" stop-color="#fff4d5" stop-opacity="0.94" />
      <stop offset="100%" stop-color="#2b5f8d" stop-opacity="0" />
    </radialGradient>
  </defs>
  <rect width="256" height="256" rx="36" fill="url(#bg-c_021-93)" />
  <rect x="12" y="12" width="232" height="232" rx="28" fill="url(#glow-c_021-93)" opacity="0.75" />
  <path d="M18 182 Q42 160 66 182 T114 182" fill="none" stroke="#f9a652" stroke-width="6" opacity="0.75" />
  <circle cx="128" cy="128" r="104" fill="none" stroke="#efe0c1" stroke-width="8" opacity="0.85" />
  <path d="M52 222 Q128 161 204 222 V256 H52 Z" fill="#d5a66c" />
  <path d="M68 210 Q128 187 188 210" fill="none" stroke="#f9a652" stroke-width="8" stroke-linecap="round" opacity="0.8" />
  <path d="M86 206 Q128 170 170 206" fill="none" stroke="#f7e8c9" stroke-width="6" stroke-linecap="round" opacity="0.65" />
  <ellipse cx="128" cy="146" rx="89" ry="99" fill="#fff0d1" />
  <path d="M84 132 Q128 56 172 132 L168 92 Q128 42 88 92 Z" fill="#261814" />
  <path d="M80 134 Q74 162 92 188" fill="none" stroke="#261814" stroke-width="16" stroke-linecap="round" opacity="0.95" />
  <path d="M176 134 Q182 162 164 188" fill="none" stroke="#261814" stroke-width="16" stroke-linecap="round" opacity="0.95" />
  
    <path d="M78 76 Q128 24 178 76" fill="none" stroke="#f9a652" stroke-width="12" stroke-linecap="round" />
    <rect x="92" y="76" width="72" height="18" rx="9" fill="#2b5f8d" />
  
  <path d="M95 93 Q105 87 117 93" fill="none" stroke="#261814" stroke-width="5" stroke-linecap="round" />
  <path d="M139 93 Q151 87 161 93" fill="none" stroke="#261814" stroke-width="5" stroke-linecap="round" />
  <ellipse cx="105" cy="105" rx="7" ry="5" fill="#251b1a" />
  <ellipse cx="151" cy="105" rx="7" ry="5" fill="#251b1a" />
  <circle cx="103" cy="104" r="2" fill="#fff8ee" opacity="0.8" />
  <circle cx="149" cy="104" r="2" fill="#fff8ee" opacity="0.8" />
  <path d="M128 115 Q120 133 128 143 Q136 133 128 115" fill="#f1e2c3" opacity="0.68" />
  <path d="M104 161 Q128 175 152 161" fill="none" stroke="#30221e" stroke-width="5" stroke-linecap="round" />
  <path d="M37 232 Q128 180 219 232" fill="none" stroke="#edbe84" stroke-width="12" stroke-linecap="round" opacity="0.55" />
  
  <circle cx="128" cy="206" r="34" fill="#1f5381" opacity="0.92" />
  <path d="M128 182 L128 228 M118 194 L128 174 L138 194" stroke="#f9a652" stroke-width="6" stroke-linecap="round" stroke-linejoin="round" />
  <text x="128" y="92" text-anchor="middle" font-size="18" font-weight="700" font-family="Georgia, serif" fill="#ebdcbd" opacity="0.75">SC</text>
</svg>