<?xml version="1.0" encoding="UTF-8"?>
<svg xmlns="http://www.w3.org/2000/svg" viewBox="0 0 256 256" role="img" aria-label="Zhen Ji avatar 13">
  <defs>
    <linearGradient id="bg-c_030-13" x1="0" x2="1" y1="0" y2="1">
      <stop offset="0%" stop-color="#344053" />
      <stop offset="100%" stop-color="#bc984f" />
    </linearGradient>
    <radialGradient id="glow-c_030-13" cx="50%" cy="38%" r="60%">
      <stop offset="0%" stop-color="#f9fcff" stop-opacity="0.94" />
      <stop offset="100%" stop-color="#384457" stop-opacity="0" />
    </radialGradient>
  </defs>
  <rect width="256" height="256" rx="36" fill="url(#bg-c_030-13)" />
  <rect x="12" y="12" width="232" height="232" rx="28" fill="url(#glow-c_030-13)" opacity="0.75" />
  <path d="M36 170 Q72 130 86 182 T138 184" fill="none" stroke="#d0ac63" stroke-width="7" stroke-linecap="round" opacity="0.8" />
  <circle cx="128" cy="128" r="104" fill="none" stroke="#e5e8ec" stroke-width="8" opacity="0.85" />
  <path d="M52 222 Q128 166 204 222 V256 H52 Z" fill="#d4cde8" />
  <path d="M68 210 Q128 189 188 210" fill="none" stroke="#d0ac63" stroke-width="8" stroke-linecap="round" opacity="0.8" />
  <path d="M86 206 Q128 170 170 206" fill="none" stroke="#edf0f4" stroke-width="6" stroke-linecap="round" opacity="0.65" />
  <ellipse cx="128" cy="146" rx="83" ry="93" fill="#ebeef2" />
  <path d="M84 132 Q128 68 172 132 L168 92 Q128 45 88 92 Z" fill="#272221" />
  <path d="M80 134 Q74 162 92 188" fill="none" stroke="#272221" stroke-width="16" stroke-linecap="round" opacity="0.95" />
  <path d="M176 134 Q182 162 164 188" fill="none" stroke="#272221" stroke-width="16" stroke-linecap="round" opacity="0.95" />
  
      <circle cx="128" cy="56" r="16" fill="#d0ac63" />
      <circle cx="108" cy="72" r="14" fill="#384457" />
      <circle cx="148" cy="72" r="14" fill="#384457" />
      <circle cx="128" cy="86" r="14" fill="#4c586b" />
    
  <path d="M92 98 Q102 92 114 98" fill="none" stroke="#272221" stroke-width="5" stroke-linecap="round" />
  <path d="M142 98 Q154 92 164 98" fill="none" stroke="#272221" stroke-width="5" stroke-linecap="round" />
  <ellipse cx="102" cy="110" rx="7" ry="5" fill="#251b1a" />
  <ellipse cx="154" cy="110" rx="7" ry="5" fill="#251b1a" />
  <circle cx="100" cy="109" r="2" fill="#fff8ee" opacity="0.8" />
  <circle cx="152" cy="109" r="2" fill="#fff8ee" opacity="0.8" />
  <path d="M128 120 Q120 138 128 148 Q136 138 128 120" fill="#dde0e4" opacity="0.68" />
  <path d="M104 166 Q128 180 152 166" fill="none" stroke="#312c2b" stroke-width="5" stroke-linecap="round" />
  <path d="M44 232 Q128 180 212 232" fill="none" stroke="#ece5ff" stroke-width="12" stroke-linecap="round" opacity="0.55" />
  
  <circle cx="128" cy="206" r="34" fill="#2c384b" opacity="0.92" />
  <path d="M128 184 L142 212 L128 228 L114 212 Z" fill="#d0ac63" /><path d="M100 210 Q128 178 156 210" fill="none" stroke="#edf0f4" stroke-width="5" />
  <text x="128" y="92" text-anchor="middle" font-size="18" font-weight="700" font-family="Georgia, serif" fill="#e1e4e8" opacity="0.75">ZJ</text>
</svg>