<?xml version="1.0" encoding="UTF-8"?>
<svg xmlns="http://www.w3.org/2000/svg" viewBox="0 0 256 256" role="img" aria-label="Zhen Ji avatar 39">
  <defs>
    <linearGradient id="bg-c_030-39" x1="0" x2="1" y1="0" y2="1">
      <stop offset="0%" stop-color="#344053" />
      <stop offset="100%" stop-color="#cba75e" />
    </linearGradient>
    <radialGradient id="glow-c_030-39" cx="50%" cy="38%" r="60%">
      <stop offset="0%" stop-color="#f9fcff" stop-opacity="0.94" />
      <stop offset="100%" stop-color="#384457" stop-opacity="0" />
    </radialGradient>
  </defs>
  <rect width="256" height="256" rx="36" fill="url(#bg-c_030-39)" />
  <rect x="12" y="12" width="232" height="232" rx="28" fill="url(#glow-c_030-39)" opacity="0.75" />
  <path d="M36 170 Q72 130 86 182 T138 184" fill="none" stroke="#c8a45b" stroke-width="7" stroke-linecap="round" opacity="0.8" />
  <circle cx="128" cy="128" r="104" fill="none" stroke="#e5e8ec" stroke-width="8" opacity="0.85" />
  <path d="M52 222 Q128 172 204 222 V256 H52 Z" fill="#e5def9" />
  <path d="M68 210 Q128 188 188 210" fill="none" stroke="#c8a45b" stroke-width="8" stroke-linecap="round" opacity="0.8" />
  <path d="M86 206 Q128 170 170 206" fill="none" stroke="#edf0f4" stroke-width="6" stroke-linecap="round" opacity="0.65" />
  <ellipse cx="128" cy="146" rx="81" ry="100" fill="#fbfeff" />
  <path d="M84 132 Q128 66 172 132 L168 92 Q128 38 88 92 Z" fill="#1e1918" />
  <path d="M80 134 Q74 162 92 188" fill="none" stroke="#1e1918" stroke-width="16" stroke-linecap="round" opacity="0.95" />
  <path d="M176 134 Q182 162 164 188" fill="none" stroke="#1e1918" stroke-width="16" stroke-linecap="round" opacity="0.95" />
  
      <circle cx="128" cy="52" r="16" fill="#c8a45b" />
      <circle cx="108" cy="68" r="14" fill="#384457" />
      <circle cx="148" cy="68" r="14" fill="#384457" />
      <circle cx="128" cy="82" r="14" fill="#4c586b" />
    
  <path d="M92 94 Q102 88 114 94" fill="none" stroke="#1e1918" stroke-width="5" stroke-linecap="round" />
  <path d="M142 94 Q154 88 164 94" fill="none" stroke="#1e1918" stroke-width="5" stroke-linecap="round" />
  <ellipse cx="102" cy="106" rx="7" ry="5" fill="#251b1a" />
  <ellipse cx="154" cy="106" rx="7" ry="5" fill="#251b1a" />
  <circle cx="100" cy="105" r="2" fill="#fff8ee" opacity="0.8" />
  <circle cx="152" cy="105" r="2" fill="#fff8ee" opacity="0.8" />
  <path d="M128 116 Q120 134 128 144 Q136 134 128 116" fill="#edf0f1" opacity="0.68" />
  <path d="M104 162 Q128 176 152 162" fill="none" stroke="#282322" stroke-width="5" stroke-linecap="round" />
  <path d="M28 232 Q128 180 228 232" fill="none" stroke="#fdf6ff" stroke-width="12" stroke-linecap="round" opacity="0.55" />
  
  <circle cx="128" cy="206" r="34" fill="#2c384b" opacity="0.92" />
  <path d="M128 184 L142 212 L128 228 L114 212 Z" fill="#c8a45b" /><path d="M100 210 Q128 178 156 210" fill="none" stroke="#edf0f4" stroke-width="5" />
  <text x="128" y="92" text-anchor="middle" font-size="18" font-weight="700" font-family="Georgia, serif" fill="#e1e4e8" opacity="0.75">ZJ</text>
</svg>