<?xml version="1.0" encoding="UTF-8"?>
<svg xmlns="http://www.w3.org/2000/svg" viewBox="0 0 256 256" role="img" aria-label="Zhen Ji avatar 35">
  <defs>
    <linearGradient id="bg-c_030-35" x1="0" x2="1" y1="0" y2="1">
      <stop offset="0%" stop-color="#333f52" />
      <stop offset="100%" stop-color="#c9a55c" />
    </linearGradient>
    <radialGradient id="glow-c_030-35" cx="50%" cy="38%" r="60%">
      <stop offset="0%" stop-color="#f9fcff" stop-opacity="0.94" />
      <stop offset="100%" stop-color="#384457" stop-opacity="0" />
    </radialGradient>
  </defs>
  <rect width="256" height="256" rx="36" fill="url(#bg-c_030-35)" />
  <rect x="12" y="12" width="232" height="232" rx="28" fill="url(#glow-c_030-35)" opacity="0.75" />
  <path d="M36 170 Q72 130 86 182 T138 184" fill="none" stroke="#cda960" stroke-width="7" stroke-linecap="round" opacity="0.8" />
  <circle cx="128" cy="128" r="104" fill="none" stroke="#e5e8ec" stroke-width="8" opacity="0.85" />
  <path d="M52 222 Q128 165 204 222 V256 H52 Z" fill="#e2dbf6" />
  <path d="M68 210 Q128 191 188 210" fill="none" stroke="#cda960" stroke-width="8" stroke-linecap="round" opacity="0.8" />
  <path d="M86 206 Q128 170 170 206" fill="none" stroke="#edf0f4" stroke-width="6" stroke-linecap="round" opacity="0.65" />
  <ellipse cx="128" cy="146" rx="81" ry="91" fill="#f1f4f8" />
  <path d="M84 132 Q128 53 172 132 L168 92 Q128 38 88 92 Z" fill="#171211" />
  <path d="M80 134 Q74 162 92 188" fill="none" stroke="#171211" stroke-width="16" stroke-linecap="round" opacity="0.95" />
  <path d="M176 134 Q182 162 164 188" fill="none" stroke="#171211" stroke-width="16" stroke-linecap="round" opacity="0.95" />
  
      <circle cx="128" cy="56" r="16" fill="#cda960" />
      <circle cx="108" cy="72" r="14" fill="#384457" />
      <circle cx="148" cy="72" r="14" fill="#384457" />
      <circle cx="128" cy="86" r="14" fill="#4c586b" />
    
  <path d="M90 99 Q100 93 112 99" fill="none" stroke="#171211" stroke-width="5" stroke-linecap="round" />
  <path d="M144 99 Q156 93 166 99" fill="none" stroke="#171211" stroke-width="5" stroke-linecap="round" />
  <ellipse cx="100" cy="111" rx="7" ry="5" fill="#251b1a" />
  <ellipse cx="156" cy="111" rx="7" ry="5" fill="#251b1a" />
  <circle cx="98" cy="110" r="2" fill="#fff8ee" opacity="0.8" />
  <circle cx="154" cy="110" r="2" fill="#fff8ee" opacity="0.8" />
  <path d="M128 121 Q120 139 128 149 Q136 139 128 121" fill="#e3e6ea" opacity="0.68" />
  <path d="M104 167 Q128 181 152 167" fill="none" stroke="#211c1b" stroke-width="5" stroke-linecap="round" />
  <path d="M26 232 Q128 180 230 232" fill="none" stroke="#faf3ff" stroke-width="12" stroke-linecap="round" opacity="0.55" />
  
  <circle cx="128" cy="206" r="34" fill="#2c384b" opacity="0.92" />
  <path d="M128 184 L142 212 L128 228 L114 212 Z" fill="#cda960" /><path d="M100 210 Q128 178 156 210" fill="none" stroke="#edf0f4" stroke-width="5" />
  <text x="128" y="92" text-anchor="middle" font-size="18" font-weight="700" font-family="Georgia, serif" fill="#e1e4e8" opacity="0.75">ZJ</text>
</svg>