<?xml version="1.0" encoding="UTF-8"?>
<svg xmlns="http://www.w3.org/2000/svg" viewBox="0 0 256 256" role="img" aria-label="Cao Pi avatar 7">
  <defs>
    <linearGradient id="bg-c_016-7" x1="0" x2="1" y1="0" y2="1">
      <stop offset="0%" stop-color="#3b475a" />
      <stop offset="100%" stop-color="#c29e55" />
    </linearGradient>
    <radialGradient id="glow-c_016-7" cx="50%" cy="38%" r="60%">
      <stop offset="0%" stop-color="#f9fcff" stop-opacity="0.94" />
      <stop offset="100%" stop-color="#384457" stop-opacity="0" />
    </radialGradient>
  </defs>
  <rect width="256" height="256" rx="36" fill="url(#bg-c_016-7)" />
  <rect x="12" y="12" width="232" height="232" rx="28" fill="url(#glow-c_016-7)" opacity="0.75" />
  <path d="M44 80 A22 22 0 1 0 44 124 A16 16 0 1 1 44 80 Z" fill="#c9a55c" opacity="0.9" />
  <circle cx="128" cy="128" r="104" fill="none" stroke="#e5e8ec" stroke-width="8" opacity="0.85" />
  <path d="M52 222 Q128 169 204 222 V256 H52 Z" fill="#d6dae5" />
  <path d="M68 210 Q128 186 188 210" fill="none" stroke="#c9a55c" stroke-width="8" stroke-linecap="round" opacity="0.8" />
  <path d="M86 206 Q128 170 170 206" fill="none" stroke="#edf0f4" stroke-width="6" stroke-linecap="round" opacity="0.65" />
  <ellipse cx="128" cy="146" rx="82" ry="95" fill="#f6f9fd" />
  <path d="M84 132 Q128 56 172 132 L168 92 Q128 41 88 92 Z" fill="#161110" />
  <path d="M80 134 Q74 162 92 188" fill="none" stroke="#161110" stroke-width="16" stroke-linecap="round" opacity="0.95" />
  <path d="M176 134 Q182 162 164 188" fill="none" stroke="#161110" stroke-width="16" stroke-linecap="round" opacity="0.95" />
  
    <path d="M78 85 Q128 33 178 85" fill="none" stroke="#c9a55c" stroke-width="12" stroke-linecap="round" />
    <rect x="92" y="85" width="72" height="18" rx="9" fill="#384457" />
  
  <path d="M96 95 Q106 89 118 95" fill="none" stroke="#161110" stroke-width="5" stroke-linecap="round" />
  <path d="M138 95 Q150 89 160 95" fill="none" stroke="#161110" stroke-width="5" stroke-linecap="round" />
  <ellipse cx="106" cy="107" rx="7" ry="5" fill="#251b1a" />
  <ellipse cx="150" cy="107" rx="7" ry="5" fill="#251b1a" />
  <circle cx="104" cy="106" r="2" fill="#fff8ee" opacity="0.8" />
  <circle cx="148" cy="106" r="2" fill="#fff8ee" opacity="0.8" />
  <path d="M128 117 Q120 135 128 145 Q136 135 128 117" fill="#e8ebef" opacity="0.68" />
  <path d="M104 163 Q128 177 152 163" fill="none" stroke="#201b1a" stroke-width="5" stroke-linecap="round" />
  <path d="M27 232 Q128 180 229 232" fill="none" stroke="#eef2fd" stroke-width="12" stroke-linecap="round" opacity="0.55" />
  
  <circle cx="128" cy="206" r="34" fill="#2c384b" opacity="0.92" />
  <rect x="106" y="188" width="44" height="44" rx="10" fill="#c9a55c" /><path d="M112 206 H144 M112 218 H138" stroke="#edf0f4" stroke-width="4" stroke-linecap="round" />
  <text x="128" y="92" text-anchor="middle" font-size="18" font-weight="700" font-family="Georgia, serif" fill="#e1e4e8" opacity="0.75">CP</text>
</svg>