<?xml version="1.0" encoding="UTF-8"?>
<svg xmlns="http://www.w3.org/2000/svg" viewBox="0 0 256 256" role="img" aria-label="Cao Pi avatar 8">
  <defs>
    <linearGradient id="bg-c_016-8" x1="0" x2="1" y1="0" y2="1">
      <stop offset="0%" stop-color="#313d50" />
      <stop offset="100%" stop-color="#d0ac63" />
    </linearGradient>
    <radialGradient id="glow-c_016-8" cx="50%" cy="38%" r="60%">
      <stop offset="0%" stop-color="#f9fcff" stop-opacity="0.94" />
      <stop offset="100%" stop-color="#384457" stop-opacity="0" />
    </radialGradient>
  </defs>
  <rect width="256" height="256" rx="36" fill="url(#bg-c_016-8)" />
  <rect x="12" y="12" width="232" height="232" rx="28" fill="url(#glow-c_016-8)" opacity="0.75" />
  <path d="M44 80 A22 22 0 1 0 44 124 A16 16 0 1 1 44 80 Z" fill="#be9a51" opacity="0.9" />
  <circle cx="128" cy="128" r="104" fill="none" stroke="#e5e8ec" stroke-width="8" opacity="0.85" />
  <path d="M52 222 Q128 174 204 222 V256 H52 Z" fill="#d6dae5" />
  <path d="M68 210 Q128 186 188 210" fill="none" stroke="#be9a51" stroke-width="8" stroke-linecap="round" opacity="0.8" />
  <path d="M86 206 Q128 170 170 206" fill="none" stroke="#edf0f4" stroke-width="6" stroke-linecap="round" opacity="0.65" />
  <ellipse cx="128" cy="146" rx="86" ry="100" fill="#f9fcff" />
  <path d="M84 132 Q128 54 172 132 L168 92 Q128 41 88 92 Z" fill="#231e1d" />
  <path d="M80 134 Q74 162 92 188" fill="none" stroke="#231e1d" stroke-width="16" stroke-linecap="round" opacity="0.95" />
  <path d="M176 134 Q182 162 164 188" fill="none" stroke="#231e1d" stroke-width="16" stroke-linecap="round" opacity="0.95" />
  
    <path d="M78 82 Q128 30 178 82" fill="none" stroke="#be9a51" stroke-width="12" stroke-linecap="round" />
    <rect x="92" y="82" width="72" height="18" rx="9" fill="#384457" />
  
  <path d="M90 97 Q100 91 112 97" fill="none" stroke="#231e1d" stroke-width="5" stroke-linecap="round" />
  <path d="M144 97 Q156 91 166 97" fill="none" stroke="#231e1d" stroke-width="5" stroke-linecap="round" />
  <ellipse cx="100" cy="109" rx="7" ry="5" fill="#251b1a" />
  <ellipse cx="156" cy="109" rx="7" ry="5" fill="#251b1a" />
  <circle cx="98" cy="108" r="2" fill="#fff8ee" opacity="0.8" />
  <circle cx="154" cy="108" r="2" fill="#fff8ee" opacity="0.8" />
  <path d="M128 119 Q120 137 128 147 Q136 137 128 119" fill="#ebeef1" opacity="0.68" />
  <path d="M104 165 Q128 179 152 165" fill="none" stroke="#2d2827" stroke-width="5" stroke-linecap="round" />
  <path d="M31 232 Q128 180 225 232" fill="none" stroke="#eef2fd" stroke-width="12" stroke-linecap="round" opacity="0.55" />
  
  <circle cx="128" cy="206" r="34" fill="#2c384b" opacity="0.92" />
  <rect x="106" y="188" width="44" height="44" rx="10" fill="#be9a51" /><path d="M112 206 H144 M112 218 H138" stroke="#edf0f4" stroke-width="4" stroke-linecap="round" />
  <text x="128" y="92" text-anchor="middle" font-size="18" font-weight="700" font-family="Georgia, serif" fill="#e1e4e8" opacity="0.75">CP</text>
</svg>