<?xml version="1.0" encoding="UTF-8"?>
<svg xmlns="http://www.w3.org/2000/svg" viewBox="0 0 256 256" role="img" aria-label="Diaochan avatar 22">
  <defs>
    <linearGradient id="bg-c_003-22" x1="0" x2="1" y1="0" y2="1">
      <stop offset="0%" stop-color="#762c51" />
      <stop offset="100%" stop-color="#daa153" />
    </linearGradient>
    <radialGradient id="glow-c_003-22" cx="50%" cy="38%" r="60%">
      <stop offset="0%" stop-color="#fff5ea" stop-opacity="0.94" />
      <stop offset="100%" stop-color="#7f355a" stop-opacity="0" />
    </radialGradient>
  </defs>
  <rect width="256" height="256" rx="36" fill="url(#bg-c_003-22)" />
  <rect x="12" y="12" width="232" height="232" rx="28" fill="url(#glow-c_003-22)" opacity="0.75" />
  <path d="M36 170 Q72 130 86 182 T138 184" fill="none" stroke="#e8af61" stroke-width="7" stroke-linecap="round" opacity="0.8" />
  <circle cx="128" cy="128" r="104" fill="none" stroke="#f0e1d6" stroke-width="8" opacity="0.85" />
  <path d="M52 222 Q128 176 204 222 V256 H52 Z" fill="#efcfd5" />
  <path d="M68 210 Q128 193 188 210" fill="none" stroke="#e8af61" stroke-width="8" stroke-linecap="round" opacity="0.8" />
  <path d="M86 206 Q128 170 170 206" fill="none" stroke="#f8e9de" stroke-width="6" stroke-linecap="round" opacity="0.65" />
  <ellipse cx="128" cy="146" rx="86" ry="97" fill="#f3e4d9" />
  <path d="M84 132 Q128 69 172 132 L168 92 Q128 41 88 92 Z" fill="#1a0c11" />
  <path d="M80 134 Q74 162 92 188" fill="none" stroke="#1a0c11" stroke-width="16" stroke-linecap="round" opacity="0.95" />
  <path d="M176 134 Q182 162 164 188" fill="none" stroke="#1a0c11" stroke-width="16" stroke-linecap="round" opacity="0.95" />
  
      <circle cx="128" cy="61" r="16" fill="#e8af61" />
      <circle cx="108" cy="77" r="14" fill="#7f355a" />
      <circle cx="148" cy="77" r="14" fill="#7f355a" />
      <circle cx="128" cy="91" r="14" fill="#93496e" />
    
  <path d="M90 95 Q100 89 112 95" fill="none" stroke="#1a0c11" stroke-width="5" stroke-linecap="round" />
  <path d="M144 95 Q156 89 166 95" fill="none" stroke="#1a0c11" stroke-width="5" stroke-linecap="round" />
  <ellipse cx="100" cy="107" rx="7" ry="5" fill="#251b1a" />
  <ellipse cx="156" cy="107" rx="7" ry="5" fill="#251b1a" />
  <circle cx="98" cy="106" r="2" fill="#fff8ee" opacity="0.8" />
  <circle cx="154" cy="106" r="2" fill="#fff8ee" opacity="0.8" />
  <path d="M128 117 Q120 135 128 145 Q136 135 128 117" fill="#e5d6cb" opacity="0.68" />
  <path d="M104 163 Q128 177 152 163" fill="none" stroke="#24161b" stroke-width="5" stroke-linecap="round" />
  <path d="M45 232 Q128 180 211 232" fill="none" stroke="#ffe7ed" stroke-width="12" stroke-linecap="round" opacity="0.55" />
  
  <circle cx="128" cy="206" r="34" fill="#73294e" opacity="0.92" />
  <path d="M128 184 L142 212 L128 228 L114 212 Z" fill="#e8af61" /><path d="M100 210 Q128 178 156 210" fill="none" stroke="#f8e9de" stroke-width="5" />
  <text x="128" y="92" text-anchor="middle" font-size="18" font-weight="700" font-family="Georgia, serif" fill="#ecddd2" opacity="0.75">D</text>
</svg>