<?xml version="1.0" encoding="UTF-8"?>
<svg xmlns="http://www.w3.org/2000/svg" viewBox="0 0 256 256" role="img" aria-label="Diaochan avatar 61">
  <defs>
    <linearGradient id="bg-c_003-61" x1="0" x2="1" y1="0" y2="1">
      <stop offset="0%" stop-color="#7e3459" />
      <stop offset="100%" stop-color="#e8af61" />
    </linearGradient>
    <radialGradient id="glow-c_003-61" cx="50%" cy="38%" r="60%">
      <stop offset="0%" stop-color="#fff5ea" stop-opacity="0.94" />
      <stop offset="100%" stop-color="#7f355a" stop-opacity="0" />
    </radialGradient>
  </defs>
  <rect width="256" height="256" rx="36" fill="url(#bg-c_003-61)" />
  <rect x="12" y="12" width="232" height="232" rx="28" fill="url(#glow-c_003-61)" opacity="0.75" />
  <path d="M36 170 Q72 130 86 182 T138 184" fill="none" stroke="#e2a95b" stroke-width="7" stroke-linecap="round" opacity="0.8" />
  <circle cx="128" cy="128" r="104" fill="none" stroke="#f0e1d6" stroke-width="8" opacity="0.85" />
  <path d="M52 222 Q128 170 204 222 V256 H52 Z" fill="#fcdce2" />
  <path d="M68 210 Q128 193 188 210" fill="none" stroke="#e2a95b" stroke-width="8" stroke-linecap="round" opacity="0.8" />
  <path d="M86 206 Q128 170 170 206" fill="none" stroke="#f8e9de" stroke-width="6" stroke-linecap="round" opacity="0.65" />
  <ellipse cx="128" cy="146" rx="88" ry="97" fill="#f9eadf" />
  <path d="M84 132 Q128 57 172 132 L168 92 Q128 45 88 92 Z" fill="#281a1f" />
  <path d="M80 134 Q74 162 92 188" fill="none" stroke="#281a1f" stroke-width="16" stroke-linecap="round" opacity="0.95" />
  <path d="M176 134 Q182 162 164 188" fill="none" stroke="#281a1f" stroke-width="16" stroke-linecap="round" opacity="0.95" />
  
      <circle cx="128" cy="59" r="16" fill="#e2a95b" />
      <circle cx="108" cy="75" r="14" fill="#7f355a" />
      <circle cx="148" cy="75" r="14" fill="#7f355a" />
      <circle cx="128" cy="89" r="14" fill="#93496e" />
    
  <path d="M92 99 Q102 93 114 99" fill="none" stroke="#281a1f" stroke-width="5" stroke-linecap="round" />
  <path d="M142 99 Q154 93 164 99" fill="none" stroke="#281a1f" stroke-width="5" stroke-linecap="round" />
  <ellipse cx="102" cy="111" rx="7" ry="5" fill="#251b1a" />
  <ellipse cx="154" cy="111" rx="7" ry="5" fill="#251b1a" />
  <circle cx="100" cy="110" r="2" fill="#fff8ee" opacity="0.8" />
  <circle cx="152" cy="110" r="2" fill="#fff8ee" opacity="0.8" />
  <path d="M128 121 Q120 139 128 149 Q136 139 128 121" fill="#ebdcd1" opacity="0.68" />
  <path d="M104 167 Q128 181 152 167" fill="none" stroke="#322429" stroke-width="5" stroke-linecap="round" />
  <path d="M44 232 Q128 180 212 232" fill="none" stroke="#fff4fa" stroke-width="12" stroke-linecap="round" opacity="0.55" />
  
  <circle cx="128" cy="206" r="34" fill="#73294e" opacity="0.92" />
  <path d="M128 184 L142 212 L128 228 L114 212 Z" fill="#e2a95b" /><path d="M100 210 Q128 178 156 210" fill="none" stroke="#f8e9de" stroke-width="5" />
  <text x="128" y="92" text-anchor="middle" font-size="18" font-weight="700" font-family="Georgia, serif" fill="#ecddd2" opacity="0.75">D</text>
</svg>