<?xml version="1.0" encoding="UTF-8"?>
<svg xmlns="http://www.w3.org/2000/svg" viewBox="0 0 256 256" role="img" aria-label="Pang Tong avatar 93">
  <defs>
    <linearGradient id="bg-c_014-93" x1="0" x2="1" y1="0" y2="1">
      <stop offset="0%" stop-color="#328051" />
      <stop offset="100%" stop-color="#dfbf61" />
    </linearGradient>
    <radialGradient id="glow-c_014-93" cx="50%" cy="38%" r="60%">
      <stop offset="0%" stop-color="#fef2c9" stop-opacity="0.94" />
      <stop offset="100%" stop-color="#2c7a4b" stop-opacity="0" />
    </radialGradient>
  </defs>
  <rect width="256" height="256" rx="36" fill="url(#bg-c_014-93)" />
  <rect x="12" y="12" width="232" height="232" rx="28" fill="url(#glow-c_014-93)" opacity="0.75" />
  <path d="M206 138 Q222 110 206 82 Q188 110 206 138 Z" fill="#2c7a4b" opacity="0.8" /><path d="M206 122 Q214 106 206 94 Q198 106 206 122 Z" fill="#e0c062" opacity="0.9" />
  <circle cx="128" cy="128" r="104" fill="none" stroke="#eadeb5" stroke-width="8" opacity="0.85" />
  <path d="M52 222 Q128 166 204 222 V256 H52 Z" fill="#d3b379" />
  <path d="M68 210 Q128 194 188 210" fill="none" stroke="#e0c062" stroke-width="8" stroke-linecap="round" opacity="0.8" />
  <path d="M86 206 Q128 170 170 206" fill="none" stroke="#f2e6bd" stroke-width="6" stroke-linecap="round" opacity="0.65" />
  <ellipse cx="128" cy="146" rx="89" ry="95" fill="#eee2b9" />
  <path d="M84 132 Q128 54 172 132 L168 92 Q128 39 88 92 Z" fill="#31231d" />
  <path d="M80 134 Q74 162 92 188" fill="none" stroke="#31231d" stroke-width="16" stroke-linecap="round" opacity="0.95" />
  <path d="M176 134 Q182 162 164 188" fill="none" stroke="#31231d" stroke-width="16" stroke-linecap="round" opacity="0.95" />
  
      <path d="M56 93 Q128 17 200 93 L184 156 Q128 126 72 156 Z" fill="#2c7a4b" opacity="0.92" />
      <path d="M80 103 Q128 61 176 103" fill="none" stroke="#e0c062" stroke-width="6" stroke-linecap="round" />
    
  <path d="M95 93 Q105 87 117 93" fill="none" stroke="#31231d" stroke-width="5" stroke-linecap="round" />
  <path d="M139 93 Q151 87 161 93" fill="none" stroke="#31231d" stroke-width="5" stroke-linecap="round" />
  <ellipse cx="105" cy="105" rx="7" ry="5" fill="#251b1a" />
  <ellipse cx="151" cy="105" rx="7" ry="5" fill="#251b1a" />
  <circle cx="103" cy="104" r="2" fill="#fff8ee" opacity="0.8" />
  <circle cx="149" cy="104" r="2" fill="#fff8ee" opacity="0.8" />
  <path d="M128 115 Q120 133 128 143 Q136 133 128 115" fill="#e0d4ab" opacity="0.68" />
  <path d="M104 161 Q128 175 152 161" fill="none" stroke="#3b2d27" stroke-width="5" stroke-linecap="round" />
  <path d="M36 232 Q128 180 220 232" fill="none" stroke="#ebcb91" stroke-width="12" stroke-linecap="round" opacity="0.55" />
  
  <circle cx="128" cy="206" r="34" fill="#206e3f" opacity="0.92" />
  <path d="M96 216 Q128 174 160 216" fill="none" stroke="#e0c062" stroke-width="6" /><path d="M128 174 L128 228" stroke="#f2e6bd" stroke-width="5" />
  <text x="128" y="92" text-anchor="middle" font-size="18" font-weight="700" font-family="Georgia, serif" fill="#e6dab1" opacity="0.75">PT</text>
</svg>