<?xml version="1.0" encoding="UTF-8"?>
<svg xmlns="http://www.w3.org/2000/svg" viewBox="0 0 256 256" role="img" aria-label="Liu Bei avatar 7">
  <defs>
    <linearGradient id="bg-c_011-7" x1="0" x2="1" y1="0" y2="1">
      <stop offset="0%" stop-color="#237142" />
      <stop offset="100%" stop-color="#d0b052" />
    </linearGradient>
    <radialGradient id="glow-c_011-7" cx="50%" cy="38%" r="60%">
      <stop offset="0%" stop-color="#fef2c9" stop-opacity="0.94" />
      <stop offset="100%" stop-color="#2c7a4b" stop-opacity="0" />
    </radialGradient>
  </defs>
  <rect width="256" height="256" rx="36" fill="url(#bg-c_011-7)" />
  <rect x="12" y="12" width="232" height="232" rx="28" fill="url(#glow-c_011-7)" opacity="0.75" />
  <path d="M44 76 L52 96 L74 98 L56 112 L62 134 L44 120 L26 134 L32 112 L14 98 L36 96 Z" fill="#dfbf61" opacity="0.8" />
  <circle cx="128" cy="128" r="104" fill="none" stroke="#eadeb5" stroke-width="8" opacity="0.85" />
  <path d="M52 222 Q128 169 204 222 V256 H52 Z" fill="#d1c299" />
  <path d="M68 210 Q128 193 188 210" fill="none" stroke="#dfbf61" stroke-width="8" stroke-linecap="round" opacity="0.8" />
  <path d="M86 206 Q128 170 170 206" fill="none" stroke="#f2e6bd" stroke-width="6" stroke-linecap="round" opacity="0.65" />
  <ellipse cx="128" cy="146" rx="83" ry="95" fill="#f5e9c0" />
  <path d="M84 132 Q128 56 172 132 L168 92 Q128 48 88 92 Z" fill="#32241e" />
  <path d="M80 134 Q74 162 92 188" fill="none" stroke="#32241e" stroke-width="16" stroke-linecap="round" opacity="0.95" />
  <path d="M176 134 Q182 162 164 188" fill="none" stroke="#32241e" stroke-width="16" stroke-linecap="round" opacity="0.95" />
  
    <path d="M78 81 Q128 29 178 81" fill="none" stroke="#dfbf61" stroke-width="12" stroke-linecap="round" />
    <rect x="92" y="81" width="72" height="18" rx="9" fill="#2c7a4b" />
  
  <path d="M91 94 Q101 88 113 94" fill="none" stroke="#32241e" stroke-width="5" stroke-linecap="round" />
  <path d="M143 94 Q155 88 165 94" fill="none" stroke="#32241e" stroke-width="5" stroke-linecap="round" />
  <ellipse cx="101" cy="106" rx="7" ry="5" fill="#251b1a" />
  <ellipse cx="155" cy="106" rx="7" ry="5" fill="#251b1a" />
  <circle cx="99" cy="105" r="2" fill="#fff8ee" opacity="0.8" />
  <circle cx="153" cy="105" r="2" fill="#fff8ee" opacity="0.8" />
  <path d="M128 116 Q120 134 128 144 Q136 134 128 116" fill="#e7dbb2" opacity="0.68" />
  <path d="M104 162 Q128 176 152 162" fill="none" stroke="#3c2e28" stroke-width="5" stroke-linecap="round" />
  <path d="M41 232 Q128 180 215 232" fill="none" stroke="#e9dab1" stroke-width="12" stroke-linecap="round" opacity="0.55" />
  
      <path d="M104 150 Q118 140 128 150 Q138 140 152 150" fill="none" stroke="#32241e" stroke-width="6" stroke-linecap="round" />
    
  <circle cx="128" cy="206" r="34" fill="#206e3f" opacity="0.92" />
  <rect x="106" y="188" width="44" height="44" rx="10" fill="#dfbf61" /><path d="M112 206 H144 M112 218 H138" stroke="#f2e6bd" stroke-width="4" stroke-linecap="round" />
  <text x="128" y="92" text-anchor="middle" font-size="18" font-weight="700" font-family="Georgia, serif" fill="#e6dab1" opacity="0.75">LB</text>
</svg>