<?xml version="1.0" encoding="UTF-8"?>
<svg xmlns="http://www.w3.org/2000/svg" viewBox="0 0 256 256" role="img" aria-label="Huang Zhong avatar 95">
  <defs>
    <linearGradient id="bg-c_012-95" x1="0" x2="1" y1="0" y2="1">
      <stop offset="0%" stop-color="#368455" />
      <stop offset="100%" stop-color="#d1b153" />
    </linearGradient>
    <radialGradient id="glow-c_012-95" cx="50%" cy="38%" r="60%">
      <stop offset="0%" stop-color="#fef2c9" stop-opacity="0.94" />
      <stop offset="100%" stop-color="#2c7a4b" stop-opacity="0" />
    </radialGradient>
  </defs>
  <rect width="256" height="256" rx="36" fill="url(#bg-c_012-95)" />
  <rect x="12" y="12" width="232" height="232" rx="28" fill="url(#glow-c_012-95)" opacity="0.75" />
  <path d="M192 78 Q216 64 220 106 Q196 104 182 122" fill="none" stroke="#daba5c" stroke-width="7" stroke-linecap="round" transform="rotate(16 200 96)" />
  <circle cx="128" cy="128" r="104" fill="none" stroke="#eadeb5" stroke-width="8" opacity="0.85" />
  <path d="M52 222 Q128 169 204 222 V256 H52 Z" fill="#846d45" />
  <path d="M68 210 Q128 186 188 210" fill="none" stroke="#daba5c" stroke-width="8" stroke-linecap="round" opacity="0.8" />
  <path d="M86 206 Q128 170 170 206" fill="none" stroke="#f2e6bd" stroke-width="6" stroke-linecap="round" opacity="0.65" />
  <ellipse cx="128" cy="146" rx="84" ry="100" fill="#f3e7be" />
  <path d="M84 132 Q128 62 172 132 L168 92 Q128 41 88 92 Z" fill="#251711" />
  <path d="M80 134 Q74 162 92 188" fill="none" stroke="#251711" stroke-width="16" stroke-linecap="round" opacity="0.95" />
  <path d="M176 134 Q182 162 164 188" fill="none" stroke="#251711" stroke-width="16" stroke-linecap="round" opacity="0.95" />
  
      <path d="M68 84 Q128 22 188 84 L176 124 Q128 96 80 124 Z" fill="#2c7a4b" />
      <path d="M94 82 Q128 48 162 82" fill="none" stroke="#daba5c" stroke-width="8" stroke-linecap="round" />
    
  <path d="M93 99 Q103 93 115 99" fill="none" stroke="#251711" stroke-width="5" stroke-linecap="round" />
  <path d="M141 99 Q153 93 163 99" fill="none" stroke="#251711" stroke-width="5" stroke-linecap="round" />
  <ellipse cx="103" cy="111" rx="7" ry="5" fill="#251b1a" />
  <ellipse cx="153" cy="111" rx="7" ry="5" fill="#251b1a" />
  <circle cx="101" cy="110" r="2" fill="#fff8ee" opacity="0.8" />
  <circle cx="151" cy="110" r="2" fill="#fff8ee" opacity="0.8" />
  <path d="M128 121 Q120 139 128 149 Q136 139 128 121" fill="#e5d9b0" opacity="0.68" />
  <path d="M104 167 Q128 181 152 167" fill="none" stroke="#2f211b" stroke-width="5" stroke-linecap="round" />
  <path d="M35 232 Q128 180 221 232" fill="none" stroke="#9c855d" stroke-width="12" stroke-linecap="round" opacity="0.55" />
  
      <path d="M104 150 Q118 140 128 150 Q138 140 152 150" fill="none" stroke="#251711" stroke-width="6" stroke-linecap="round" />
    
  <circle cx="128" cy="206" r="34" fill="#206e3f" opacity="0.92" />
  <path d="M128 182 L128 228 M118 194 L128 174 L138 194" stroke="#daba5c" stroke-width="6" stroke-linecap="round" stroke-linejoin="round" />
  <text x="128" y="92" text-anchor="middle" font-size="18" font-weight="700" font-family="Georgia, serif" fill="#e6dab1" opacity="0.75">HZ</text>
</svg>