<?xml version="1.0" encoding="UTF-8"?>
<svg xmlns="http://www.w3.org/2000/svg" viewBox="0 0 256 256" role="img" aria-label="Huang Zhong avatar 83">
  <defs>
    <linearGradient id="bg-c_012-83" x1="0" x2="1" y1="0" y2="1">
      <stop offset="0%" stop-color="#297748" />
      <stop offset="100%" stop-color="#d1b153" />
    </linearGradient>
    <radialGradient id="glow-c_012-83" cx="50%" cy="38%" r="60%">
      <stop offset="0%" stop-color="#fef2c9" stop-opacity="0.94" />
      <stop offset="100%" stop-color="#2c7a4b" stop-opacity="0" />
    </radialGradient>
  </defs>
  <rect width="256" height="256" rx="36" fill="url(#bg-c_012-83)" />
  <rect x="12" y="12" width="232" height="232" rx="28" fill="url(#glow-c_012-83)" opacity="0.75" />
  <path d="M192 78 Q216 64 220 106 Q196 104 182 122" fill="none" stroke="#e5c567" stroke-width="7" stroke-linecap="round" transform="rotate(6 200 96)" />
  <circle cx="128" cy="128" r="104" fill="none" stroke="#eadeb5" stroke-width="8" opacity="0.85" />
  <path d="M52 222 Q128 172 204 222 V256 H52 Z" fill="#7e673f" />
  <path d="M68 210 Q128 188 188 210" fill="none" stroke="#e5c567" stroke-width="8" stroke-linecap="round" opacity="0.8" />
  <path d="M86 206 Q128 170 170 206" fill="none" stroke="#f2e6bd" stroke-width="6" stroke-linecap="round" opacity="0.65" />
  <ellipse cx="128" cy="146" rx="82" ry="98" fill="#f2e6bd" />
  <path d="M84 132 Q128 53 172 132 L168 92 Q128 40 88 92 Z" fill="#32241e" />
  <path d="M80 134 Q74 162 92 188" fill="none" stroke="#32241e" stroke-width="16" stroke-linecap="round" opacity="0.95" />
  <path d="M176 134 Q182 162 164 188" fill="none" stroke="#32241e" stroke-width="16" stroke-linecap="round" opacity="0.95" />
  
      <path d="M68 86 Q128 24 188 86 L176 124 Q128 96 80 124 Z" fill="#2c7a4b" />
      <path d="M94 84 Q128 50 162 84" fill="none" stroke="#e5c567" stroke-width="8" stroke-linecap="round" />
    
  <path d="M92 97 Q102 91 114 97" fill="none" stroke="#32241e" stroke-width="5" stroke-linecap="round" />
  <path d="M142 97 Q154 91 164 97" fill="none" stroke="#32241e" stroke-width="5" stroke-linecap="round" />
  <ellipse cx="102" cy="109" rx="7" ry="5" fill="#251b1a" />
  <ellipse cx="154" cy="109" rx="7" ry="5" fill="#251b1a" />
  <circle cx="100" cy="108" r="2" fill="#fff8ee" opacity="0.8" />
  <circle cx="152" cy="108" r="2" fill="#fff8ee" opacity="0.8" />
  <path d="M128 119 Q120 137 128 147 Q136 137 128 119" fill="#e4d8af" opacity="0.68" />
  <path d="M104 165 Q128 179 152 165" fill="none" stroke="#3c2e28" stroke-width="5" stroke-linecap="round" />
  <path d="M34 232 Q128 180 222 232" fill="none" stroke="#967f57" stroke-width="12" stroke-linecap="round" opacity="0.55" />
  
      <path d="M104 150 Q118 140 128 150 Q138 140 152 150" fill="none" stroke="#32241e" stroke-width="6" stroke-linecap="round" />
    
  <circle cx="128" cy="206" r="34" fill="#206e3f" opacity="0.92" />
  <path d="M128 182 L128 228 M118 194 L128 174 L138 194" stroke="#e5c567" stroke-width="6" stroke-linecap="round" stroke-linejoin="round" />
  <text x="128" y="92" text-anchor="middle" font-size="18" font-weight="700" font-family="Georgia, serif" fill="#e6dab1" opacity="0.75">HZ</text>
</svg>