<?xml version="1.0" encoding="UTF-8"?>
<svg xmlns="http://www.w3.org/2000/svg" viewBox="0 0 256 256" role="img" aria-label="Huang Zhong avatar 41">
  <defs>
    <linearGradient id="bg-c_012-41" x1="0" x2="1" y1="0" y2="1">
      <stop offset="0%" stop-color="#287647" />
      <stop offset="100%" stop-color="#e1c163" />
    </linearGradient>
    <radialGradient id="glow-c_012-41" cx="50%" cy="38%" r="60%">
      <stop offset="0%" stop-color="#fef2c9" stop-opacity="0.94" />
      <stop offset="100%" stop-color="#2c7a4b" stop-opacity="0" />
    </radialGradient>
  </defs>
  <rect width="256" height="256" rx="36" fill="url(#bg-c_012-41)" />
  <rect x="12" y="12" width="232" height="232" rx="28" fill="url(#glow-c_012-41)" opacity="0.75" />
  <path d="M192 78 Q216 64 220 106 Q196 104 182 122" fill="none" stroke="#cfaf51" stroke-width="7" stroke-linecap="round" transform="rotate(8 200 96)" />
  <circle cx="128" cy="128" r="104" fill="none" stroke="#eadeb5" stroke-width="8" opacity="0.85" />
  <path d="M52 222 Q128 173 204 222 V256 H52 Z" fill="#7c653d" />
  <path d="M68 210 Q128 193 188 210" fill="none" stroke="#cfaf51" stroke-width="8" stroke-linecap="round" opacity="0.8" />
  <path d="M86 206 Q128 170 170 206" fill="none" stroke="#f2e6bd" stroke-width="6" stroke-linecap="round" opacity="0.65" />
  <ellipse cx="128" cy="146" rx="89" ry="98" fill="#eee2b9" />
  <path d="M84 132 Q128 62 172 132 L168 92 Q128 38 88 92 Z" fill="#271913" />
  <path d="M80 134 Q74 162 92 188" fill="none" stroke="#271913" stroke-width="16" stroke-linecap="round" opacity="0.95" />
  <path d="M176 134 Q182 162 164 188" fill="none" stroke="#271913" stroke-width="16" stroke-linecap="round" opacity="0.95" />
  
      <path d="M68 85 Q128 23 188 85 L176 124 Q128 96 80 124 Z" fill="#2c7a4b" />
      <path d="M94 83 Q128 49 162 83" fill="none" stroke="#cfaf51" stroke-width="8" stroke-linecap="round" />
    
  <path d="M94 93 Q104 87 116 93" fill="none" stroke="#271913" stroke-width="5" stroke-linecap="round" />
  <path d="M140 93 Q152 87 162 93" fill="none" stroke="#271913" stroke-width="5" stroke-linecap="round" />
  <ellipse cx="104" cy="105" rx="7" ry="5" fill="#251b1a" />
  <ellipse cx="152" cy="105" rx="7" ry="5" fill="#251b1a" />
  <circle cx="102" cy="104" r="2" fill="#fff8ee" opacity="0.8" />
  <circle cx="150" cy="104" r="2" fill="#fff8ee" opacity="0.8" />
  <path d="M128 115 Q120 133 128 143 Q136 133 128 115" fill="#e0d4ab" opacity="0.68" />
  <path d="M104 161 Q128 175 152 161" fill="none" stroke="#31231d" stroke-width="5" stroke-linecap="round" />
  <path d="M43 232 Q128 180 213 232" fill="none" stroke="#947d55" stroke-width="12" stroke-linecap="round" opacity="0.55" />
  
      <path d="M104 150 Q118 140 128 150 Q138 140 152 150" fill="none" stroke="#271913" stroke-width="6" stroke-linecap="round" />
    
  <circle cx="128" cy="206" r="34" fill="#206e3f" opacity="0.92" />
  <path d="M128 182 L128 228 M118 194 L128 174 L138 194" stroke="#cfaf51" stroke-width="6" stroke-linecap="round" stroke-linejoin="round" />
  <text x="128" y="92" text-anchor="middle" font-size="18" font-weight="700" font-family="Georgia, serif" fill="#e6dab1" opacity="0.75">HZ</text>
</svg>