<?xml version="1.0" encoding="UTF-8"?>
<svg xmlns="http://www.w3.org/2000/svg" viewBox="0 0 256 256" role="img" aria-label="Sun Quan avatar 51">
  <defs>
    <linearGradient id="bg-c_008-51" x1="0" x2="1" y1="0" y2="1">
      <stop offset="0%" stop-color="#215583" />
      <stop offset="100%" stop-color="#ea9743" />
    </linearGradient>
    <radialGradient id="glow-c_008-51" cx="50%" cy="38%" r="60%">
      <stop offset="0%" stop-color="#fff4d5" stop-opacity="0.94" />
      <stop offset="100%" stop-color="#2b5f8d" stop-opacity="0" />
    </radialGradient>
  </defs>
  <rect width="256" height="256" rx="36" fill="url(#bg-c_008-51)" />
  <rect x="12" y="12" width="232" height="232" rx="28" fill="url(#glow-c_008-51)" opacity="0.75" />
  <path d="M18 182 Q42 160 66 182 T114 182" fill="none" stroke="#ef9c48" stroke-width="6" opacity="0.75" />
  <circle cx="128" cy="128" r="104" fill="none" stroke="#efe0c1" stroke-width="8" opacity="0.85" />
  <path d="M52 222 Q128 174 204 222 V256 H52 Z" fill="#d1bc93" />
  <path d="M68 210 Q128 190 188 210" fill="none" stroke="#ef9c48" stroke-width="8" stroke-linecap="round" opacity="0.8" />
  <path d="M86 206 Q128 170 170 206" fill="none" stroke="#f7e8c9" stroke-width="6" stroke-linecap="round" opacity="0.65" />
  <ellipse cx="128" cy="146" rx="88" ry="97" fill="#f5e6c7" />
  <path d="M84 132 Q128 56 172 132 L168 92 Q128 43 88 92 Z" fill="#281a16" />
  <path d="M80 134 Q74 162 92 188" fill="none" stroke="#281a16" stroke-width="16" stroke-linecap="round" opacity="0.95" />
  <path d="M176 134 Q182 162 164 188" fill="none" stroke="#281a16" stroke-width="16" stroke-linecap="round" opacity="0.95" />
  
    <path d="M78 78 Q128 26 178 78" fill="none" stroke="#ef9c48" stroke-width="12" stroke-linecap="round" />
    <rect x="92" y="78" width="72" height="18" rx="9" fill="#2b5f8d" />
  
  <path d="M91 95 Q101 89 113 95" fill="none" stroke="#281a16" stroke-width="5" stroke-linecap="round" />
  <path d="M143 95 Q155 89 165 95" fill="none" stroke="#281a16" stroke-width="5" stroke-linecap="round" />
  <ellipse cx="101" cy="107" rx="7" ry="5" fill="#251b1a" />
  <ellipse cx="155" cy="107" rx="7" ry="5" fill="#251b1a" />
  <circle cx="99" cy="106" r="2" fill="#fff8ee" opacity="0.8" />
  <circle cx="153" cy="106" r="2" fill="#fff8ee" opacity="0.8" />
  <path d="M128 117 Q120 135 128 145 Q136 135 128 117" fill="#e7d8b9" opacity="0.68" />
  <path d="M104 163 Q128 177 152 163" fill="none" stroke="#322420" stroke-width="5" stroke-linecap="round" />
  <path d="M32 232 Q128 180 224 232" fill="none" stroke="#e9d4ab" stroke-width="12" stroke-linecap="round" opacity="0.55" />
  
      <path d="M104 150 Q118 140 128 150 Q138 140 152 150" fill="none" stroke="#281a16" stroke-width="6" stroke-linecap="round" />
    
  <circle cx="128" cy="206" r="34" fill="#1f5381" opacity="0.92" />
  <circle cx="128" cy="206" r="20" fill="#ef9c48" /><circle cx="120" cy="198" r="6" fill="#f7e8c9" opacity="0.65" />
  <text x="128" y="92" text-anchor="middle" font-size="18" font-weight="700" font-family="Georgia, serif" fill="#ebdcbd" opacity="0.75">SQ</text>
</svg>