<?xml version="1.0" encoding="UTF-8"?>
<svg xmlns="http://www.w3.org/2000/svg" viewBox="0 0 256 256" role="img" aria-label="Sun Quan avatar 10">
  <defs>
    <linearGradient id="bg-c_008-10" x1="0" x2="1" y1="0" y2="1">
      <stop offset="0%" stop-color="#245886" />
      <stop offset="100%" stop-color="#ed9a46" />
    </linearGradient>
    <radialGradient id="glow-c_008-10" cx="50%" cy="38%" r="60%">
      <stop offset="0%" stop-color="#fff4d5" stop-opacity="0.94" />
      <stop offset="100%" stop-color="#2b5f8d" stop-opacity="0" />
    </radialGradient>
  </defs>
  <rect width="256" height="256" rx="36" fill="url(#bg-c_008-10)" />
  <rect x="12" y="12" width="232" height="232" rx="28" fill="url(#glow-c_008-10)" opacity="0.75" />
  <path d="M18 182 Q42 160 66 182 T114 182" fill="none" stroke="#e79440" stroke-width="6" opacity="0.75" />
  <circle cx="128" cy="128" r="104" fill="none" stroke="#efe0c1" stroke-width="8" opacity="0.85" />
  <path d="M52 222 Q128 161 204 222 V256 H52 Z" fill="#dcc79e" />
  <path d="M68 210 Q128 191 188 210" fill="none" stroke="#e79440" stroke-width="8" stroke-linecap="round" opacity="0.8" />
  <path d="M86 206 Q128 170 170 206" fill="none" stroke="#f7e8c9" stroke-width="6" stroke-linecap="round" opacity="0.65" />
  <ellipse cx="128" cy="146" rx="84" ry="91" fill="#f4e5c6" />
  <path d="M84 132 Q128 57 172 132 L168 92 Q128 41 88 92 Z" fill="#2c1e1a" />
  <path d="M80 134 Q74 162 92 188" fill="none" stroke="#2c1e1a" stroke-width="16" stroke-linecap="round" opacity="0.95" />
  <path d="M176 134 Q182 162 164 188" fill="none" stroke="#2c1e1a" stroke-width="16" stroke-linecap="round" opacity="0.95" />
  
    <path d="M78 83 Q128 31 178 83" fill="none" stroke="#e79440" stroke-width="12" stroke-linecap="round" />
    <rect x="92" y="83" width="72" height="18" rx="9" fill="#2b5f8d" />
  
  <path d="M90 95 Q100 89 112 95" fill="none" stroke="#2c1e1a" stroke-width="5" stroke-linecap="round" />
  <path d="M144 95 Q156 89 166 95" fill="none" stroke="#2c1e1a" stroke-width="5" stroke-linecap="round" />
  <ellipse cx="100" cy="107" rx="7" ry="5" fill="#251b1a" />
  <ellipse cx="156" cy="107" rx="7" ry="5" fill="#251b1a" />
  <circle cx="98" cy="106" r="2" fill="#fff8ee" opacity="0.8" />
  <circle cx="154" cy="106" r="2" fill="#fff8ee" opacity="0.8" />
  <path d="M128 117 Q120 135 128 145 Q136 135 128 117" fill="#e6d7b8" opacity="0.68" />
  <path d="M104 163 Q128 177 152 163" fill="none" stroke="#362824" stroke-width="5" stroke-linecap="round" />
  <path d="M29 232 Q128 180 227 232" fill="none" stroke="#f4dfb6" stroke-width="12" stroke-linecap="round" opacity="0.55" />
  
      <path d="M104 150 Q118 140 128 150 Q138 140 152 150" fill="none" stroke="#2c1e1a" stroke-width="6" stroke-linecap="round" />
    
  <circle cx="128" cy="206" r="34" fill="#1f5381" opacity="0.92" />
  <circle cx="128" cy="206" r="20" fill="#e79440" /><circle cx="120" cy="198" r="6" fill="#f7e8c9" opacity="0.65" />
  <text x="128" y="92" text-anchor="middle" font-size="18" font-weight="700" font-family="Georgia, serif" fill="#ebdcbd" opacity="0.75">SQ</text>
</svg>