<?xml version="1.0" encoding="UTF-8"?>
<svg xmlns="http://www.w3.org/2000/svg" viewBox="0 0 256 256" role="img" aria-label="Sun Quan avatar 56">
  <defs>
    <linearGradient id="bg-c_008-56" x1="0" x2="1" y1="0" y2="1">
      <stop offset="0%" stop-color="#306492" />
      <stop offset="100%" stop-color="#fba854" />
    </linearGradient>
    <radialGradient id="glow-c_008-56" cx="50%" cy="38%" r="60%">
      <stop offset="0%" stop-color="#fff4d5" stop-opacity="0.94" />
      <stop offset="100%" stop-color="#2b5f8d" stop-opacity="0" />
    </radialGradient>
  </defs>
  <rect width="256" height="256" rx="36" fill="url(#bg-c_008-56)" />
  <rect x="12" y="12" width="232" height="232" rx="28" fill="url(#glow-c_008-56)" opacity="0.75" />
  <path d="M18 182 Q42 160 66 182 T114 182" fill="none" stroke="#fba854" stroke-width="6" opacity="0.75" />
  <circle cx="128" cy="128" r="104" fill="none" stroke="#efe0c1" stroke-width="8" opacity="0.85" />
  <path d="M52 222 Q128 168 204 222 V256 H52 Z" fill="#ddc89f" />
  <path d="M68 210 Q128 191 188 210" fill="none" stroke="#fba854" stroke-width="8" stroke-linecap="round" opacity="0.8" />
  <path d="M86 206 Q128 170 170 206" fill="none" stroke="#f7e8c9" stroke-width="6" stroke-linecap="round" opacity="0.65" />
  <ellipse cx="128" cy="146" rx="84" ry="91" fill="#fff1d2" />
  <path d="M84 132 Q128 67 172 132 L168 92 Q128 39 88 92 Z" fill="#2c1e1a" />
  <path d="M80 134 Q74 162 92 188" fill="none" stroke="#2c1e1a" stroke-width="16" stroke-linecap="round" opacity="0.95" />
  <path d="M176 134 Q182 162 164 188" fill="none" stroke="#2c1e1a" stroke-width="16" stroke-linecap="round" opacity="0.95" />
  
    <path d="M78 77 Q128 25 178 77" fill="none" stroke="#fba854" stroke-width="12" stroke-linecap="round" />
    <rect x="92" y="77" width="72" height="18" rx="9" fill="#2b5f8d" />
  
  <path d="M94 98 Q104 92 116 98" fill="none" stroke="#2c1e1a" stroke-width="5" stroke-linecap="round" />
  <path d="M140 98 Q152 92 162 98" fill="none" stroke="#2c1e1a" stroke-width="5" stroke-linecap="round" />
  <ellipse cx="104" cy="110" rx="7" ry="5" fill="#251b1a" />
  <ellipse cx="152" cy="110" rx="7" ry="5" fill="#251b1a" />
  <circle cx="102" cy="109" r="2" fill="#fff8ee" opacity="0.8" />
  <circle cx="150" cy="109" r="2" fill="#fff8ee" opacity="0.8" />
  <path d="M128 120 Q120 138 128 148 Q136 138 128 120" fill="#f1e3c4" opacity="0.68" />
  <path d="M104 166 Q128 180 152 166" fill="none" stroke="#362824" stroke-width="5" stroke-linecap="round" />
  <path d="M35 232 Q128 180 221 232" fill="none" stroke="#f5e0b7" stroke-width="12" stroke-linecap="round" opacity="0.55" />
  
      <path d="M104 150 Q118 140 128 150 Q138 140 152 150" fill="none" stroke="#2c1e1a" stroke-width="6" stroke-linecap="round" />
    
  <circle cx="128" cy="206" r="34" fill="#1f5381" opacity="0.92" />
  <circle cx="128" cy="206" r="20" fill="#fba854" /><circle cx="120" cy="198" r="6" fill="#f7e8c9" opacity="0.65" />
  <text x="128" y="92" text-anchor="middle" font-size="18" font-weight="700" font-family="Georgia, serif" fill="#ebdcbd" opacity="0.75">SQ</text>
</svg>