<?xml version="1.0" encoding="UTF-8"?>
<svg xmlns="http://www.w3.org/2000/svg" viewBox="0 0 256 256" role="img" aria-label="Sun Quan avatar 30">
  <defs>
    <linearGradient id="bg-c_008-30" x1="0" x2="1" y1="0" y2="1">
      <stop offset="0%" stop-color="#295d8b" />
      <stop offset="100%" stop-color="#ef9c48" />
    </linearGradient>
    <radialGradient id="glow-c_008-30" cx="50%" cy="38%" r="60%">
      <stop offset="0%" stop-color="#fff4d5" stop-opacity="0.94" />
      <stop offset="100%" stop-color="#2b5f8d" stop-opacity="0" />
    </radialGradient>
  </defs>
  <rect width="256" height="256" rx="36" fill="url(#bg-c_008-30)" />
  <rect x="12" y="12" width="232" height="232" rx="28" fill="url(#glow-c_008-30)" opacity="0.75" />
  <path d="M18 182 Q42 160 66 182 T114 182" fill="none" stroke="#e99642" stroke-width="6" opacity="0.75" />
  <circle cx="128" cy="128" r="104" fill="none" stroke="#efe0c1" stroke-width="8" opacity="0.85" />
  <path d="M52 222 Q128 168 204 222 V256 H52 Z" fill="#dfcaa1" />
  <path d="M68 210 Q128 187 188 210" fill="none" stroke="#e99642" stroke-width="8" stroke-linecap="round" opacity="0.8" />
  <path d="M86 206 Q128 170 170 206" fill="none" stroke="#f7e8c9" stroke-width="6" stroke-linecap="round" opacity="0.65" />
  <ellipse cx="128" cy="146" rx="87" ry="99" fill="#fff3d4" />
  <path d="M84 132 Q128 56 172 132 L168 92 Q128 40 88 92 Z" fill="#2f211d" />
  <path d="M80 134 Q74 162 92 188" fill="none" stroke="#2f211d" stroke-width="16" stroke-linecap="round" opacity="0.95" />
  <path d="M176 134 Q182 162 164 188" fill="none" stroke="#2f211d" stroke-width="16" stroke-linecap="round" opacity="0.95" />
  
    <path d="M78 85 Q128 33 178 85" fill="none" stroke="#e99642" stroke-width="12" stroke-linecap="round" />
    <rect x="92" y="85" width="72" height="18" rx="9" fill="#2b5f8d" />
  
  <path d="M94 94 Q104 88 116 94" fill="none" stroke="#2f211d" stroke-width="5" stroke-linecap="round" />
  <path d="M140 94 Q152 88 162 94" fill="none" stroke="#2f211d" stroke-width="5" stroke-linecap="round" />
  <ellipse cx="104" cy="106" rx="7" ry="5" fill="#251b1a" />
  <ellipse cx="152" cy="106" rx="7" ry="5" fill="#251b1a" />
  <circle cx="102" cy="105" r="2" fill="#fff8ee" opacity="0.8" />
  <circle cx="150" cy="105" r="2" fill="#fff8ee" opacity="0.8" />
  <path d="M128 116 Q120 134 128 144 Q136 134 128 116" fill="#f1e5c6" opacity="0.68" />
  <path d="M104 162 Q128 176 152 162" fill="none" stroke="#392b27" stroke-width="5" stroke-linecap="round" />
  <path d="M45 232 Q128 180 211 232" fill="none" stroke="#f7e2b9" stroke-width="12" stroke-linecap="round" opacity="0.55" />
  
      <path d="M104 150 Q118 140 128 150 Q138 140 152 150" fill="none" stroke="#2f211d" stroke-width="6" stroke-linecap="round" />
    
  <circle cx="128" cy="206" r="34" fill="#1f5381" opacity="0.92" />
  <circle cx="128" cy="206" r="20" fill="#e99642" /><circle cx="120" cy="198" r="6" fill="#f7e8c9" opacity="0.65" />
  <text x="128" y="92" text-anchor="middle" font-size="18" font-weight="700" font-family="Georgia, serif" fill="#ebdcbd" opacity="0.75">SQ</text>
</svg>