<?xml version="1.0" encoding="UTF-8"?>
<svg xmlns="http://www.w3.org/2000/svg" viewBox="0 0 256 256" role="img" aria-label="Xu Chu avatar 40">
  <defs>
    <linearGradient id="bg-c_020-40" x1="0" x2="1" y1="0" y2="1">
      <stop offset="0%" stop-color="#374356" />
      <stop offset="100%" stop-color="#cfab62" />
    </linearGradient>
    <radialGradient id="glow-c_020-40" cx="50%" cy="38%" r="60%">
      <stop offset="0%" stop-color="#f9fcff" stop-opacity="0.94" />
      <stop offset="100%" stop-color="#384457" stop-opacity="0" />
    </radialGradient>
  </defs>
  <rect width="256" height="256" rx="36" fill="url(#bg-c_020-40)" />
  <rect x="12" y="12" width="232" height="232" rx="28" fill="url(#glow-c_020-40)" opacity="0.75" />
  <circle cx="48" cy="72" r="10" fill="#cfab62" opacity="0.8" /><circle cx="66" cy="58" r="6" fill="#384457" opacity="0.7" />
  <circle cx="128" cy="128" r="104" fill="none" stroke="#e5e8ec" stroke-width="8" opacity="0.85" />
  <path d="M52 222 Q128 170 204 222 V256 H52 Z" fill="#6d503c" />
  <path d="M68 210 Q128 191 188 210" fill="none" stroke="#cfab62" stroke-width="8" stroke-linecap="round" opacity="0.8" />
  <path d="M86 206 Q128 170 170 206" fill="none" stroke="#edf0f4" stroke-width="6" stroke-linecap="round" opacity="0.65" />
  <ellipse cx="128" cy="146" rx="85" ry="100" fill="#fbfeff" />
  <path d="M84 132 Q128 61 172 132 L168 92 Q128 42 88 92 Z" fill="#231e1d" />
  <path d="M80 134 Q74 162 92 188" fill="none" stroke="#231e1d" stroke-width="16" stroke-linecap="round" opacity="0.95" />
  <path d="M176 134 Q182 162 164 188" fill="none" stroke="#231e1d" stroke-width="16" stroke-linecap="round" opacity="0.95" />
  
      <path d="M68 85 Q128 23 188 85 L176 124 Q128 96 80 124 Z" fill="#384457" />
      <path d="M94 83 Q128 49 162 83" fill="none" stroke="#cfab62" stroke-width="8" stroke-linecap="round" />
    
  <path d="M94 99 Q104 93 116 99" fill="none" stroke="#231e1d" stroke-width="5" stroke-linecap="round" />
  <path d="M140 99 Q152 93 162 99" fill="none" stroke="#231e1d" stroke-width="5" stroke-linecap="round" />
  <ellipse cx="104" cy="111" rx="7" ry="5" fill="#251b1a" />
  <ellipse cx="152" cy="111" rx="7" ry="5" fill="#251b1a" />
  <circle cx="102" cy="110" r="2" fill="#fff8ee" opacity="0.8" />
  <circle cx="150" cy="110" r="2" fill="#fff8ee" opacity="0.8" />
  <path d="M128 121 Q120 139 128 149 Q136 139 128 121" fill="#edf0f1" opacity="0.68" />
  <path d="M104 167 Q128 181 152 167" fill="none" stroke="#2d2827" stroke-width="5" stroke-linecap="round" />
  <path d="M30 232 Q128 180 226 232" fill="none" stroke="#856854" stroke-width="12" stroke-linecap="round" opacity="0.55" />
  
      <path d="M128 160 Q116 182 128 200 Q140 182 128 160 Z" fill="#231e1d" opacity="0.9" />
      <path d="M106 148 Q128 158 150 148" fill="none" stroke="#231e1d" stroke-width="5" stroke-linecap="round" />
    
  <circle cx="128" cy="206" r="34" fill="#2c384b" opacity="0.92" />
  <path d="M120 184 L140 184 L146 226 L114 226 Z" fill="#cfab62" /><path d="M128 172 L144 190 L128 198 L112 190 Z" fill="#edf0f4" />
  <text x="128" y="92" text-anchor="middle" font-size="18" font-weight="700" font-family="Georgia, serif" fill="#e1e4e8" opacity="0.75">XC</text>
</svg>