<?xml version="1.0" encoding="UTF-8"?>
<svg xmlns="http://www.w3.org/2000/svg" viewBox="0 0 256 256" role="img" aria-label="Xu Chu avatar 63">
  <defs>
    <linearGradient id="bg-c_020-63" x1="0" x2="1" y1="0" y2="1">
      <stop offset="0%" stop-color="#384457" />
      <stop offset="100%" stop-color="#c4a057" />
    </linearGradient>
    <radialGradient id="glow-c_020-63" cx="50%" cy="38%" r="60%">
      <stop offset="0%" stop-color="#f9fcff" stop-opacity="0.94" />
      <stop offset="100%" stop-color="#384457" stop-opacity="0" />
    </radialGradient>
  </defs>
  <rect width="256" height="256" rx="36" fill="url(#bg-c_020-63)" />
  <rect x="12" y="12" width="232" height="232" rx="28" fill="url(#glow-c_020-63)" opacity="0.75" />
  <circle cx="48" cy="72" r="10" fill="#bc984f" opacity="0.8" /><circle cx="66" cy="58" r="6" fill="#384457" opacity="0.7" />
  <circle cx="128" cy="128" r="104" fill="none" stroke="#e5e8ec" stroke-width="8" opacity="0.85" />
  <path d="M52 222 Q128 163 204 222 V256 H52 Z" fill="#624531" />
  <path d="M68 210 Q128 190 188 210" fill="none" stroke="#bc984f" stroke-width="8" stroke-linecap="round" opacity="0.8" />
  <path d="M86 206 Q128 170 170 206" fill="none" stroke="#edf0f4" stroke-width="6" stroke-linecap="round" opacity="0.65" />
  <ellipse cx="128" cy="146" rx="85" ry="101" fill="#f6f9fd" />
  <path d="M84 132 Q128 68 172 132 L168 92 Q128 43 88 92 Z" fill="#262120" />
  <path d="M80 134 Q74 162 92 188" fill="none" stroke="#262120" stroke-width="16" stroke-linecap="round" opacity="0.95" />
  <path d="M176 134 Q182 162 164 188" fill="none" stroke="#262120" stroke-width="16" stroke-linecap="round" opacity="0.95" />
  
      <path d="M68 90 Q128 28 188 90 L176 124 Q128 96 80 124 Z" fill="#384457" />
      <path d="M94 88 Q128 54 162 88" fill="none" stroke="#bc984f" stroke-width="8" stroke-linecap="round" />
    
  <path d="M93 94 Q103 88 115 94" fill="none" stroke="#262120" stroke-width="5" stroke-linecap="round" />
  <path d="M141 94 Q153 88 163 94" fill="none" stroke="#262120" stroke-width="5" stroke-linecap="round" />
  <ellipse cx="103" cy="106" rx="7" ry="5" fill="#251b1a" />
  <ellipse cx="153" cy="106" rx="7" ry="5" fill="#251b1a" />
  <circle cx="101" cy="105" r="2" fill="#fff8ee" opacity="0.8" />
  <circle cx="151" cy="105" r="2" fill="#fff8ee" opacity="0.8" />
  <path d="M128 116 Q120 134 128 144 Q136 134 128 116" fill="#e8ebef" opacity="0.68" />
  <path d="M104 162 Q128 176 152 162" fill="none" stroke="#302b2a" stroke-width="5" stroke-linecap="round" />
  <path d="M46 232 Q128 180 210 232" fill="none" stroke="#7a5d49" stroke-width="12" stroke-linecap="round" opacity="0.55" />
  
      <path d="M128 160 Q116 182 128 200 Q140 182 128 160 Z" fill="#262120" opacity="0.9" />
      <path d="M106 148 Q128 158 150 148" fill="none" stroke="#262120" stroke-width="5" stroke-linecap="round" />
    
  <circle cx="128" cy="206" r="34" fill="#2c384b" opacity="0.92" />
  <path d="M120 184 L140 184 L146 226 L114 226 Z" fill="#bc984f" /><path d="M128 172 L144 190 L128 198 L112 190 Z" fill="#edf0f4" />
  <text x="128" y="92" text-anchor="middle" font-size="18" font-weight="700" font-family="Georgia, serif" fill="#e1e4e8" opacity="0.75">XC</text>
</svg>