<?xml version="1.0" encoding="UTF-8"?>
<svg xmlns="http://www.w3.org/2000/svg" viewBox="0 0 256 256" role="img" aria-label="Xiahou Dun avatar 77">
  <defs>
    <linearGradient id="bg-c_017-77" x1="0" x2="1" y1="0" y2="1">
      <stop offset="0%" stop-color="#384457" />
      <stop offset="100%" stop-color="#c6a259" />
    </linearGradient>
    <radialGradient id="glow-c_017-77" cx="50%" cy="38%" r="60%">
      <stop offset="0%" stop-color="#f9fcff" stop-opacity="0.94" />
      <stop offset="100%" stop-color="#384457" stop-opacity="0" />
    </radialGradient>
  </defs>
  <rect width="256" height="256" rx="36" fill="url(#bg-c_017-77)" />
  <rect x="12" y="12" width="232" height="232" rx="28" fill="url(#glow-c_017-77)" opacity="0.75" />
  <path d="M42 64 L58 88 H46 L64 116 L32 92 H46 Z" fill="#c19d54" opacity="0.8" />
  <circle cx="128" cy="128" r="104" fill="none" stroke="#e5e8ec" stroke-width="8" opacity="0.85" />
  <path d="M52 222 Q128 175 204 222 V256 H52 Z" fill="#535c6d" />
  <path d="M68 210 Q128 190 188 210" fill="none" stroke="#c19d54" stroke-width="8" stroke-linecap="round" opacity="0.8" />
  <path d="M86 206 Q128 170 170 206" fill="none" stroke="#edf0f4" stroke-width="6" stroke-linecap="round" opacity="0.65" />
  <ellipse cx="128" cy="146" rx="80" ry="96" fill="#f8fbff" />
  <path d="M84 132 Q128 60 172 132 L168 92 Q128 48 88 92 Z" fill="#191413" />
  <path d="M80 134 Q74 162 92 188" fill="none" stroke="#191413" stroke-width="16" stroke-linecap="round" opacity="0.95" />
  <path d="M176 134 Q182 162 164 188" fill="none" stroke="#191413" stroke-width="16" stroke-linecap="round" opacity="0.95" />
  
      <path d="M68 88 Q128 26 188 88 L176 124 Q128 96 80 124 Z" fill="#384457" />
      <path d="M94 86 Q128 52 162 86" fill="none" stroke="#c19d54" stroke-width="8" stroke-linecap="round" />
    
  <path d="M96 97 Q106 91 118 97" fill="none" stroke="#191413" stroke-width="5" stroke-linecap="round" />
  <path d="M138 97 Q150 91 160 97" fill="none" stroke="#191413" stroke-width="5" stroke-linecap="round" />
  <ellipse cx="106" cy="109" rx="7" ry="5" fill="#251b1a" />
  <ellipse cx="150" cy="109" rx="7" ry="5" fill="#251b1a" />
  <circle cx="104" cy="108" r="2" fill="#fff8ee" opacity="0.8" />
  <circle cx="148" cy="108" r="2" fill="#fff8ee" opacity="0.8" />
  <path d="M128 119 Q120 137 128 147 Q136 137 128 119" fill="#eaedf1" opacity="0.68" />
  <path d="M104 165 Q128 179 152 165" fill="none" stroke="#231e1d" stroke-width="5" stroke-linecap="round" />
  <path d="M35 232 Q128 180 221 232" fill="none" stroke="#6b7485" stroke-width="12" stroke-linecap="round" opacity="0.55" />
  
      <path d="M104 150 Q118 140 128 150 Q138 140 152 150" fill="none" stroke="#191413" stroke-width="6" stroke-linecap="round" />
    
  <circle cx="128" cy="206" r="34" fill="#2c384b" opacity="0.92" />
  <path d="M120 184 L140 184 L146 226 L114 226 Z" fill="#c19d54" /><path d="M128 172 L144 190 L128 198 L112 190 Z" fill="#edf0f4" />
  <text x="128" y="92" text-anchor="middle" font-size="18" font-weight="700" font-family="Georgia, serif" fill="#e1e4e8" opacity="0.75">XD</text>
</svg>