<?xml version="1.0" encoding="UTF-8"?>
<svg xmlns="http://www.w3.org/2000/svg" viewBox="0 0 256 256" role="img" aria-label="Xiahou Dun avatar 19">
  <defs>
    <linearGradient id="bg-c_017-19" x1="0" x2="1" y1="0" y2="1">
      <stop offset="0%" stop-color="#3b475a" />
      <stop offset="100%" stop-color="#bf9b52" />
    </linearGradient>
    <radialGradient id="glow-c_017-19" cx="50%" cy="38%" r="60%">
      <stop offset="0%" stop-color="#f9fcff" stop-opacity="0.94" />
      <stop offset="100%" stop-color="#384457" stop-opacity="0" />
    </radialGradient>
  </defs>
  <rect width="256" height="256" rx="36" fill="url(#bg-c_017-19)" />
  <rect x="12" y="12" width="232" height="232" rx="28" fill="url(#glow-c_017-19)" opacity="0.75" />
  <path d="M42 64 L58 88 H46 L64 116 L32 92 H46 Z" fill="#d2ae65" opacity="0.8" />
  <circle cx="128" cy="128" r="104" fill="none" stroke="#e5e8ec" stroke-width="8" opacity="0.85" />
  <path d="M52 222 Q128 162 204 222 V256 H52 Z" fill="#565f70" />
  <path d="M68 210 Q128 188 188 210" fill="none" stroke="#d2ae65" stroke-width="8" stroke-linecap="round" opacity="0.8" />
  <path d="M86 206 Q128 170 170 206" fill="none" stroke="#edf0f4" stroke-width="6" stroke-linecap="round" opacity="0.65" />
  <ellipse cx="128" cy="146" rx="79" ry="92" fill="#f0f3f7" />
  <path d="M84 132 Q128 55 172 132 L168 92 Q128 38 88 92 Z" fill="#201b1a" />
  <path d="M80 134 Q74 162 92 188" fill="none" stroke="#201b1a" stroke-width="16" stroke-linecap="round" opacity="0.95" />
  <path d="M176 134 Q182 162 164 188" fill="none" stroke="#201b1a" stroke-width="16" stroke-linecap="round" opacity="0.95" />
  
      <path d="M68 83 Q128 21 188 83 L176 124 Q128 96 80 124 Z" fill="#384457" />
      <path d="M94 81 Q128 47 162 81" fill="none" stroke="#d2ae65" stroke-width="8" stroke-linecap="round" />
    
  <path d="M91 98 Q101 92 113 98" fill="none" stroke="#201b1a" stroke-width="5" stroke-linecap="round" />
  <path d="M143 98 Q155 92 165 98" fill="none" stroke="#201b1a" stroke-width="5" stroke-linecap="round" />
  <ellipse cx="101" cy="110" rx="7" ry="5" fill="#251b1a" />
  <ellipse cx="155" cy="110" rx="7" ry="5" fill="#251b1a" />
  <circle cx="99" cy="109" r="2" fill="#fff8ee" opacity="0.8" />
  <circle cx="153" cy="109" r="2" fill="#fff8ee" opacity="0.8" />
  <path d="M128 120 Q120 138 128 148 Q136 138 128 120" fill="#e2e5e9" opacity="0.68" />
  <path d="M104 166 Q128 180 152 166" fill="none" stroke="#2a2524" stroke-width="5" stroke-linecap="round" />
  <path d="M38 232 Q128 180 218 232" fill="none" stroke="#6e7788" stroke-width="12" stroke-linecap="round" opacity="0.55" />
  
      <path d="M104 150 Q118 140 128 150 Q138 140 152 150" fill="none" stroke="#201b1a" stroke-width="6" stroke-linecap="round" />
    
  <circle cx="128" cy="206" r="34" fill="#2c384b" opacity="0.92" />
  <path d="M120 184 L140 184 L146 226 L114 226 Z" fill="#d2ae65" /><path d="M128 172 L144 190 L128 198 L112 190 Z" fill="#edf0f4" />
  <text x="128" y="92" text-anchor="middle" font-size="18" font-weight="700" font-family="Georgia, serif" fill="#e1e4e8" opacity="0.75">XD</text>
</svg>