<?xml version="1.0" encoding="UTF-8"?>
<svg xmlns="http://www.w3.org/2000/svg" viewBox="0 0 256 256" role="img" aria-label="Xiahou Dun avatar 52">
  <defs>
    <linearGradient id="bg-c_017-52" x1="0" x2="1" y1="0" y2="1">
      <stop offset="0%" stop-color="#2f3b4e" />
      <stop offset="100%" stop-color="#c4a057" />
    </linearGradient>
    <radialGradient id="glow-c_017-52" cx="50%" cy="38%" r="60%">
      <stop offset="0%" stop-color="#f9fcff" stop-opacity="0.94" />
      <stop offset="100%" stop-color="#384457" stop-opacity="0" />
    </radialGradient>
  </defs>
  <rect width="256" height="256" rx="36" fill="url(#bg-c_017-52)" />
  <rect x="12" y="12" width="232" height="232" rx="28" fill="url(#glow-c_017-52)" opacity="0.75" />
  <path d="M42 64 L58 88 H46 L64 116 L32 92 H46 Z" fill="#c9a55c" opacity="0.8" />
  <circle cx="128" cy="128" r="104" fill="none" stroke="#e5e8ec" stroke-width="8" opacity="0.85" />
  <path d="M52 222 Q128 173 204 222 V256 H52 Z" fill="#576071" />
  <path d="M68 210 Q128 189 188 210" fill="none" stroke="#c9a55c" stroke-width="8" stroke-linecap="round" opacity="0.8" />
  <path d="M86 206 Q128 170 170 206" fill="none" stroke="#edf0f4" stroke-width="6" stroke-linecap="round" opacity="0.65" />
  <ellipse cx="128" cy="146" rx="81" ry="93" fill="#e1e4e8" />
  <path d="M84 132 Q128 56 172 132 L168 92 Q128 38 88 92 Z" fill="#1a1514" />
  <path d="M80 134 Q74 162 92 188" fill="none" stroke="#1a1514" stroke-width="16" stroke-linecap="round" opacity="0.95" />
  <path d="M176 134 Q182 162 164 188" fill="none" stroke="#1a1514" stroke-width="16" stroke-linecap="round" opacity="0.95" />
  
      <path d="M68 84 Q128 22 188 84 L176 124 Q128 96 80 124 Z" fill="#384457" />
      <path d="M94 82 Q128 48 162 82" fill="none" stroke="#c9a55c" stroke-width="8" stroke-linecap="round" />
    
  <path d="M96 95 Q106 89 118 95" fill="none" stroke="#1a1514" stroke-width="5" stroke-linecap="round" />
  <path d="M138 95 Q150 89 160 95" fill="none" stroke="#1a1514" stroke-width="5" stroke-linecap="round" />
  <ellipse cx="106" cy="107" rx="7" ry="5" fill="#251b1a" />
  <ellipse cx="150" cy="107" rx="7" ry="5" fill="#251b1a" />
  <circle cx="104" cy="106" r="2" fill="#fff8ee" opacity="0.8" />
  <circle cx="148" cy="106" r="2" fill="#fff8ee" opacity="0.8" />
  <path d="M128 117 Q120 135 128 145 Q136 135 128 117" fill="#d3d6da" opacity="0.68" />
  <path d="M104 163 Q128 177 152 163" fill="none" stroke="#241f1e" stroke-width="5" stroke-linecap="round" />
  <path d="M30 232 Q128 180 226 232" fill="none" stroke="#6f7889" stroke-width="12" stroke-linecap="round" opacity="0.55" />
  
      <path d="M104 150 Q118 140 128 150 Q138 140 152 150" fill="none" stroke="#1a1514" stroke-width="6" stroke-linecap="round" />
    
  <circle cx="128" cy="206" r="34" fill="#2c384b" opacity="0.92" />
  <path d="M120 184 L140 184 L146 226 L114 226 Z" fill="#c9a55c" /><path d="M128 172 L144 190 L128 198 L112 190 Z" fill="#edf0f4" />
  <text x="128" y="92" text-anchor="middle" font-size="18" font-weight="700" font-family="Georgia, serif" fill="#e1e4e8" opacity="0.75">XD</text>
</svg>