<?xml version="1.0" encoding="UTF-8"?>
<svg xmlns="http://www.w3.org/2000/svg" viewBox="0 0 256 256" role="img" aria-label="Xiahou Dun avatar 67">
  <defs>
    <linearGradient id="bg-c_017-67" x1="0" x2="1" y1="0" y2="1">
      <stop offset="0%" stop-color="#3c485b" />
      <stop offset="100%" stop-color="#c09c53" />
    </linearGradient>
    <radialGradient id="glow-c_017-67" cx="50%" cy="38%" r="60%">
      <stop offset="0%" stop-color="#f9fcff" stop-opacity="0.94" />
      <stop offset="100%" stop-color="#384457" stop-opacity="0" />
    </radialGradient>
  </defs>
  <rect width="256" height="256" rx="36" fill="url(#bg-c_017-67)" />
  <rect x="12" y="12" width="232" height="232" rx="28" fill="url(#glow-c_017-67)" opacity="0.75" />
  <path d="M42 64 L58 88 H46 L64 116 L32 92 H46 Z" fill="#cba75e" opacity="0.8" />
  <circle cx="128" cy="128" r="104" fill="none" stroke="#e5e8ec" stroke-width="8" opacity="0.85" />
  <path d="M52 222 Q128 166 204 222 V256 H52 Z" fill="#5f6879" />
  <path d="M68 210 Q128 185 188 210" fill="none" stroke="#cba75e" stroke-width="8" stroke-linecap="round" opacity="0.8" />
  <path d="M86 206 Q128 170 170 206" fill="none" stroke="#edf0f4" stroke-width="6" stroke-linecap="round" opacity="0.65" />
  <ellipse cx="128" cy="146" rx="82" ry="93" fill="#eff2f6" />
  <path d="M84 132 Q128 69 172 132 L168 92 Q128 45 88 92 Z" fill="#201b1a" />
  <path d="M80 134 Q74 162 92 188" fill="none" stroke="#201b1a" stroke-width="16" stroke-linecap="round" opacity="0.95" />
  <path d="M176 134 Q182 162 164 188" fill="none" stroke="#201b1a" stroke-width="16" stroke-linecap="round" opacity="0.95" />
  
      <path d="M68 84 Q128 22 188 84 L176 124 Q128 96 80 124 Z" fill="#384457" />
      <path d="M94 82 Q128 48 162 82" fill="none" stroke="#cba75e" stroke-width="8" stroke-linecap="round" />
    
  <path d="M91 98 Q101 92 113 98" fill="none" stroke="#201b1a" stroke-width="5" stroke-linecap="round" />
  <path d="M143 98 Q155 92 165 98" fill="none" stroke="#201b1a" stroke-width="5" stroke-linecap="round" />
  <ellipse cx="101" cy="110" rx="7" ry="5" fill="#251b1a" />
  <ellipse cx="155" cy="110" rx="7" ry="5" fill="#251b1a" />
  <circle cx="99" cy="109" r="2" fill="#fff8ee" opacity="0.8" />
  <circle cx="153" cy="109" r="2" fill="#fff8ee" opacity="0.8" />
  <path d="M128 120 Q120 138 128 148 Q136 138 128 120" fill="#e1e4e8" opacity="0.68" />
  <path d="M104 166 Q128 180 152 166" fill="none" stroke="#2a2524" stroke-width="5" stroke-linecap="round" />
  <path d="M40 232 Q128 180 216 232" fill="none" stroke="#778091" stroke-width="12" stroke-linecap="round" opacity="0.55" />
  
      <path d="M104 150 Q118 140 128 150 Q138 140 152 150" fill="none" stroke="#201b1a" stroke-width="6" stroke-linecap="round" />
    
  <circle cx="128" cy="206" r="34" fill="#2c384b" opacity="0.92" />
  <path d="M120 184 L140 184 L146 226 L114 226 Z" fill="#cba75e" /><path d="M128 172 L144 190 L128 198 L112 190 Z" fill="#edf0f4" />
  <text x="128" y="92" text-anchor="middle" font-size="18" font-weight="700" font-family="Georgia, serif" fill="#e1e4e8" opacity="0.75">XD</text>
</svg>