<?xml version="1.0" encoding="UTF-8"?>
<svg xmlns="http://www.w3.org/2000/svg" viewBox="0 0 256 256" role="img" aria-label="Yuan Shao avatar 55">
  <defs>
    <linearGradient id="bg-c_027-55" x1="0" x2="1" y1="0" y2="1">
      <stop offset="0%" stop-color="#762c51" />
      <stop offset="100%" stop-color="#e4ab5d" />
    </linearGradient>
    <radialGradient id="glow-c_027-55" cx="50%" cy="38%" r="60%">
      <stop offset="0%" stop-color="#fff5ea" stop-opacity="0.94" />
      <stop offset="100%" stop-color="#7f355a" stop-opacity="0" />
    </radialGradient>
  </defs>
  <rect width="256" height="256" rx="36" fill="url(#bg-c_027-55)" />
  <rect x="12" y="12" width="232" height="232" rx="28" fill="url(#glow-c_027-55)" opacity="0.75" />
  <path d="M44 80 A22 22 0 1 0 44 124 A16 16 0 1 1 44 80 Z" fill="#d89f51" opacity="0.9" />
  <circle cx="128" cy="128" r="104" fill="none" stroke="#f0e1d6" stroke-width="8" opacity="0.85" />
  <path d="M52 222 Q128 166 204 222 V256 H52 Z" fill="#7f6387" />
  <path d="M68 210 Q128 190 188 210" fill="none" stroke="#d89f51" stroke-width="8" stroke-linecap="round" opacity="0.8" />
  <path d="M86 206 Q128 170 170 206" fill="none" stroke="#f8e9de" stroke-width="6" stroke-linecap="round" opacity="0.65" />
  <ellipse cx="128" cy="146" rx="82" ry="93" fill="#fff1e6" />
  <path d="M84 132 Q128 55 172 132 L168 92 Q128 42 88 92 Z" fill="#2b1f1e" />
  <path d="M80 134 Q74 162 92 188" fill="none" stroke="#2b1f1e" stroke-width="16" stroke-linecap="round" opacity="0.95" />
  <path d="M176 134 Q182 162 164 188" fill="none" stroke="#2b1f1e" stroke-width="16" stroke-linecap="round" opacity="0.95" />
  
    <path d="M78 79 Q128 27 178 79" fill="none" stroke="#d89f51" stroke-width="12" stroke-linecap="round" />
    <rect x="92" y="79" width="72" height="18" rx="9" fill="#7f355a" />
  
  <path d="M96 94 Q106 88 118 94" fill="none" stroke="#2b1f1e" stroke-width="5" stroke-linecap="round" />
  <path d="M138 94 Q150 88 160 94" fill="none" stroke="#2b1f1e" stroke-width="5" stroke-linecap="round" />
  <ellipse cx="106" cy="106" rx="7" ry="5" fill="#251b1a" />
  <ellipse cx="150" cy="106" rx="7" ry="5" fill="#251b1a" />
  <circle cx="104" cy="105" r="2" fill="#fff8ee" opacity="0.8" />
  <circle cx="148" cy="105" r="2" fill="#fff8ee" opacity="0.8" />
  <path d="M128 116 Q120 134 128 144 Q136 134 128 116" fill="#f1e3d8" opacity="0.68" />
  <path d="M104 162 Q128 176 152 162" fill="none" stroke="#352928" stroke-width="5" stroke-linecap="round" />
  <path d="M27 232 Q128 180 229 232" fill="none" stroke="#977b9f" stroke-width="12" stroke-linecap="round" opacity="0.55" />
  
      <path d="M104 150 Q118 140 128 150 Q138 140 152 150" fill="none" stroke="#2b1f1e" stroke-width="6" stroke-linecap="round" />
    
  <circle cx="128" cy="206" r="34" fill="#73294e" opacity="0.92" />
  <rect x="106" y="188" width="44" height="44" rx="10" fill="#d89f51" /><path d="M112 206 H144 M112 218 H138" stroke="#f8e9de" stroke-width="4" stroke-linecap="round" />
  <text x="128" y="92" text-anchor="middle" font-size="18" font-weight="700" font-family="Georgia, serif" fill="#ecddd2" opacity="0.75">YS</text>
</svg>