<?xml version="1.0" encoding="UTF-8"?>
<svg xmlns="http://www.w3.org/2000/svg" viewBox="0 0 256 256" role="img" aria-label="Zhao Yun avatar 89">
  <defs>
    <linearGradient id="bg-c_001-89" x1="0" x2="1" y1="0" y2="1">
      <stop offset="0%" stop-color="#277546" />
      <stop offset="100%" stop-color="#dfbf61" />
    </linearGradient>
    <radialGradient id="glow-c_001-89" cx="50%" cy="38%" r="60%">
      <stop offset="0%" stop-color="#fef2c9" stop-opacity="0.94" />
      <stop offset="100%" stop-color="#2c7a4b" stop-opacity="0" />
    </radialGradient>
  </defs>
  <rect width="256" height="256" rx="36" fill="url(#bg-c_001-89)" />
  <rect x="12" y="12" width="232" height="232" rx="28" fill="url(#glow-c_001-89)" opacity="0.75" />
  <path d="M192 78 Q216 64 220 106 Q196 104 182 122" fill="none" stroke="#d8b85a" stroke-width="7" stroke-linecap="round" transform="rotate(1 200 96)" />
  <circle cx="128" cy="128" r="104" fill="none" stroke="#eadeb5" stroke-width="8" opacity="0.85" />
  <path d="M52 222 Q128 163 204 222 V256 H52 Z" fill="#eeebe3" />
  <path d="M68 210 Q128 194 188 210" fill="none" stroke="#d8b85a" stroke-width="8" stroke-linecap="round" opacity="0.8" />
  <path d="M86 206 Q128 170 170 206" fill="none" stroke="#f2e6bd" stroke-width="6" stroke-linecap="round" opacity="0.65" />
  <ellipse cx="128" cy="146" rx="88" ry="100" fill="#fbefc6" />
  <path d="M84 132 Q128 64 172 132 L168 92 Q128 42 88 92 Z" fill="#362822" />
  <path d="M80 134 Q74 162 92 188" fill="none" stroke="#362822" stroke-width="16" stroke-linecap="round" opacity="0.95" />
  <path d="M176 134 Q182 162 164 188" fill="none" stroke="#362822" stroke-width="16" stroke-linecap="round" opacity="0.95" />
  
      <path d="M76 78 Q128 8 180 78" fill="none" stroke="#d8b85a" stroke-width="10" stroke-linecap="round" />
      <path d="M128 46 L148 76 L108 76 Z" fill="#2c7a4b" />
    
  <path d="M94 96 Q104 90 116 96" fill="none" stroke="#362822" stroke-width="5" stroke-linecap="round" />
  <path d="M140 96 Q152 90 162 96" fill="none" stroke="#362822" stroke-width="5" stroke-linecap="round" />
  <ellipse cx="104" cy="108" rx="7" ry="5" fill="#251b1a" />
  <ellipse cx="152" cy="108" rx="7" ry="5" fill="#251b1a" />
  <circle cx="102" cy="107" r="2" fill="#fff8ee" opacity="0.8" />
  <circle cx="150" cy="107" r="2" fill="#fff8ee" opacity="0.8" />
  <path d="M128 118 Q120 136 128 146 Q136 136 128 118" fill="#ede1b8" opacity="0.68" />
  <path d="M104 164 Q128 178 152 164" fill="none" stroke="#40322c" stroke-width="5" stroke-linecap="round" />
  <path d="M40 232 Q128 180 216 232" fill="none" stroke="#fffffb" stroke-width="12" stroke-linecap="round" opacity="0.55" />
  
  <circle cx="128" cy="206" r="34" fill="#206e3f" opacity="0.92" />
  <path d="M128 182 L128 228 M118 194 L128 174 L138 194" stroke="#d8b85a" stroke-width="6" stroke-linecap="round" stroke-linejoin="round" />
  <text x="128" y="92" text-anchor="middle" font-size="18" font-weight="700" font-family="Georgia, serif" fill="#e6dab1" opacity="0.75">ZY</text>
</svg>