<?xml version="1.0" encoding="UTF-8"?>
<svg xmlns="http://www.w3.org/2000/svg" viewBox="0 0 256 256" role="img" aria-label="Zhao Yun avatar 17">
  <defs>
    <linearGradient id="bg-c_001-17" x1="0" x2="1" y1="0" y2="1">
      <stop offset="0%" stop-color="#267445" />
      <stop offset="100%" stop-color="#daba5c" />
    </linearGradient>
    <radialGradient id="glow-c_001-17" cx="50%" cy="38%" r="60%">
      <stop offset="0%" stop-color="#fef2c9" stop-opacity="0.94" />
      <stop offset="100%" stop-color="#2c7a4b" stop-opacity="0" />
    </radialGradient>
  </defs>
  <rect width="256" height="256" rx="36" fill="url(#bg-c_001-17)" />
  <rect x="12" y="12" width="232" height="232" rx="28" fill="url(#glow-c_001-17)" opacity="0.75" />
  <path d="M192 78 Q216 64 220 106 Q196 104 182 122" fill="none" stroke="#ddbd5f" stroke-width="7" stroke-linecap="round" transform="rotate(16 200 96)" />
  <circle cx="128" cy="128" r="104" fill="none" stroke="#eadeb5" stroke-width="8" opacity="0.85" />
  <path d="M52 222 Q128 168 204 222 V256 H52 Z" fill="#f8f5ed" />
  <path d="M68 210 Q128 190 188 210" fill="none" stroke="#ddbd5f" stroke-width="8" stroke-linecap="round" opacity="0.8" />
  <path d="M86 206 Q128 170 170 206" fill="none" stroke="#f2e6bd" stroke-width="6" stroke-linecap="round" opacity="0.65" />
  <ellipse cx="128" cy="146" rx="86" ry="100" fill="#f8ecc3" />
  <path d="M84 132 Q128 67 172 132 L168 92 Q128 41 88 92 Z" fill="#2c1e18" />
  <path d="M80 134 Q74 162 92 188" fill="none" stroke="#2c1e18" stroke-width="16" stroke-linecap="round" opacity="0.95" />
  <path d="M176 134 Q182 162 164 188" fill="none" stroke="#2c1e18" stroke-width="16" stroke-linecap="round" opacity="0.95" />
  
      <path d="M76 87 Q128 17 180 87" fill="none" stroke="#ddbd5f" stroke-width="10" stroke-linecap="round" />
      <path d="M128 55 L148 85 L108 85 Z" fill="#2c7a4b" />
    
  <path d="M95 93 Q105 87 117 93" fill="none" stroke="#2c1e18" stroke-width="5" stroke-linecap="round" />
  <path d="M139 93 Q151 87 161 93" fill="none" stroke="#2c1e18" stroke-width="5" stroke-linecap="round" />
  <ellipse cx="105" cy="105" rx="7" ry="5" fill="#251b1a" />
  <ellipse cx="151" cy="105" rx="7" ry="5" fill="#251b1a" />
  <circle cx="103" cy="104" r="2" fill="#fff8ee" opacity="0.8" />
  <circle cx="149" cy="104" r="2" fill="#fff8ee" opacity="0.8" />
  <path d="M128 115 Q120 133 128 143 Q136 133 128 115" fill="#eadeb5" opacity="0.68" />
  <path d="M104 161 Q128 175 152 161" fill="none" stroke="#362822" stroke-width="5" stroke-linecap="round" />
  <path d="M41 232 Q128 180 215 232" fill="none" stroke="#ffffff" stroke-width="12" stroke-linecap="round" opacity="0.55" />
  
  <circle cx="128" cy="206" r="34" fill="#206e3f" opacity="0.92" />
  <path d="M128 182 L128 228 M118 194 L128 174 L138 194" stroke="#ddbd5f" stroke-width="6" stroke-linecap="round" stroke-linejoin="round" />
  <text x="128" y="92" text-anchor="middle" font-size="18" font-weight="700" font-family="Georgia, serif" fill="#e6dab1" opacity="0.75">ZY</text>
</svg>