<?xml version="1.0" encoding="UTF-8"?>
<svg xmlns="http://www.w3.org/2000/svg" viewBox="0 0 256 256" role="img" aria-label="Zhao Yun avatar 2">
  <defs>
    <linearGradient id="bg-c_001-2" x1="0" x2="1" y1="0" y2="1">
      <stop offset="0%" stop-color="#2a7849" />
      <stop offset="100%" stop-color="#cfaf51" />
    </linearGradient>
    <radialGradient id="glow-c_001-2" cx="50%" cy="38%" r="60%">
      <stop offset="0%" stop-color="#fef2c9" stop-opacity="0.94" />
      <stop offset="100%" stop-color="#2c7a4b" stop-opacity="0" />
    </radialGradient>
  </defs>
  <rect width="256" height="256" rx="36" fill="url(#bg-c_001-2)" />
  <rect x="12" y="12" width="232" height="232" rx="28" fill="url(#glow-c_001-2)" opacity="0.75" />
  <path d="M192 78 Q216 64 220 106 Q196 104 182 122" fill="none" stroke="#d2b254" stroke-width="7" stroke-linecap="round" transform="rotate(11 200 96)" />
  <circle cx="128" cy="128" r="104" fill="none" stroke="#eadeb5" stroke-width="8" opacity="0.85" />
  <path d="M52 222 Q128 174 204 222 V256 H52 Z" fill="#efece4" />
  <path d="M68 210 Q128 189 188 210" fill="none" stroke="#d2b254" stroke-width="8" stroke-linecap="round" opacity="0.8" />
  <path d="M86 206 Q128 170 170 206" fill="none" stroke="#f2e6bd" stroke-width="6" stroke-linecap="round" opacity="0.65" />
  <ellipse cx="128" cy="146" rx="81" ry="92" fill="#f6eac1" />
  <path d="M84 132 Q128 66 172 132 L168 92 Q128 39 88 92 Z" fill="#261812" />
  <path d="M80 134 Q74 162 92 188" fill="none" stroke="#261812" stroke-width="16" stroke-linecap="round" opacity="0.95" />
  <path d="M176 134 Q182 162 164 188" fill="none" stroke="#261812" stroke-width="16" stroke-linecap="round" opacity="0.95" />
  
      <path d="M76 79 Q128 9 180 79" fill="none" stroke="#d2b254" stroke-width="10" stroke-linecap="round" />
      <path d="M128 47 L148 77 L108 77 Z" fill="#2c7a4b" />
    
  <path d="M93 98 Q103 92 115 98" fill="none" stroke="#261812" stroke-width="5" stroke-linecap="round" />
  <path d="M141 98 Q153 92 163 98" fill="none" stroke="#261812" stroke-width="5" stroke-linecap="round" />
  <ellipse cx="103" cy="110" rx="7" ry="5" fill="#251b1a" />
  <ellipse cx="153" cy="110" rx="7" ry="5" fill="#251b1a" />
  <circle cx="101" cy="109" r="2" fill="#fff8ee" opacity="0.8" />
  <circle cx="151" cy="109" r="2" fill="#fff8ee" opacity="0.8" />
  <path d="M128 120 Q120 138 128 148 Q136 138 128 120" fill="#e8dcb3" opacity="0.68" />
  <path d="M104 166 Q128 180 152 166" fill="none" stroke="#30221c" stroke-width="5" stroke-linecap="round" />
  <path d="M42 232 Q128 180 214 232" fill="none" stroke="#fffffc" stroke-width="12" stroke-linecap="round" opacity="0.55" />
  
  <circle cx="128" cy="206" r="34" fill="#206e3f" opacity="0.92" />
  <path d="M128 182 L128 228 M118 194 L128 174 L138 194" stroke="#d2b254" stroke-width="6" stroke-linecap="round" stroke-linejoin="round" />
  <text x="128" y="92" text-anchor="middle" font-size="18" font-weight="700" font-family="Georgia, serif" fill="#e6dab1" opacity="0.75">ZY</text>
</svg>