<?xml version="1.0" encoding="UTF-8"?>
<svg xmlns="http://www.w3.org/2000/svg" viewBox="0 0 256 256" role="img" aria-label="Zhao Yun avatar 63">
  <defs>
    <linearGradient id="bg-c_001-63" x1="0" x2="1" y1="0" y2="1">
      <stop offset="0%" stop-color="#237142" />
      <stop offset="100%" stop-color="#dfbf61" />
    </linearGradient>
    <radialGradient id="glow-c_001-63" cx="50%" cy="38%" r="60%">
      <stop offset="0%" stop-color="#fef2c9" stop-opacity="0.94" />
      <stop offset="100%" stop-color="#2c7a4b" stop-opacity="0" />
    </radialGradient>
  </defs>
  <rect width="256" height="256" rx="36" fill="url(#bg-c_001-63)" />
  <rect x="12" y="12" width="232" height="232" rx="28" fill="url(#glow-c_001-63)" opacity="0.75" />
  <path d="M192 78 Q216 64 220 106 Q196 104 182 122" fill="none" stroke="#ceae50" stroke-width="7" stroke-linecap="round" transform="rotate(17 200 96)" />
  <circle cx="128" cy="128" r="104" fill="none" stroke="#eadeb5" stroke-width="8" opacity="0.85" />
  <path d="M52 222 Q128 168 204 222 V256 H52 Z" fill="#eeebe3" />
  <path d="M68 210 Q128 184 188 210" fill="none" stroke="#ceae50" stroke-width="8" stroke-linecap="round" opacity="0.8" />
  <path d="M86 206 Q128 170 170 206" fill="none" stroke="#f2e6bd" stroke-width="6" stroke-linecap="round" opacity="0.65" />
  <ellipse cx="128" cy="146" rx="87" ry="98" fill="#e5d9b0" />
  <path d="M84 132 Q128 58 172 132 L168 92 Q128 39 88 92 Z" fill="#2b1d17" />
  <path d="M80 134 Q74 162 92 188" fill="none" stroke="#2b1d17" stroke-width="16" stroke-linecap="round" opacity="0.95" />
  <path d="M176 134 Q182 162 164 188" fill="none" stroke="#2b1d17" stroke-width="16" stroke-linecap="round" opacity="0.95" />
  
      <path d="M76 85 Q128 15 180 85" fill="none" stroke="#ceae50" stroke-width="10" stroke-linecap="round" />
      <path d="M128 53 L148 83 L108 83 Z" fill="#2c7a4b" />
    
  <path d="M92 94 Q102 88 114 94" fill="none" stroke="#2b1d17" stroke-width="5" stroke-linecap="round" />
  <path d="M142 94 Q154 88 164 94" fill="none" stroke="#2b1d17" stroke-width="5" stroke-linecap="round" />
  <ellipse cx="102" cy="106" rx="7" ry="5" fill="#251b1a" />
  <ellipse cx="154" cy="106" rx="7" ry="5" fill="#251b1a" />
  <circle cx="100" cy="105" r="2" fill="#fff8ee" opacity="0.8" />
  <circle cx="152" cy="105" r="2" fill="#fff8ee" opacity="0.8" />
  <path d="M128 116 Q120 134 128 144 Q136 134 128 116" fill="#d7cba2" opacity="0.68" />
  <path d="M104 162 Q128 176 152 162" fill="none" stroke="#352721" stroke-width="5" stroke-linecap="round" />
  <path d="M41 232 Q128 180 215 232" fill="none" stroke="#fffffb" stroke-width="12" stroke-linecap="round" opacity="0.55" />
  
  <circle cx="128" cy="206" r="34" fill="#206e3f" opacity="0.92" />
  <path d="M128 182 L128 228 M118 194 L128 174 L138 194" stroke="#ceae50" stroke-width="6" stroke-linecap="round" stroke-linejoin="round" />
  <text x="128" y="92" text-anchor="middle" font-size="18" font-weight="700" font-family="Georgia, serif" fill="#e6dab1" opacity="0.75">ZY</text>
</svg>