<?xml version="1.0" encoding="UTF-8"?>
<svg xmlns="http://www.w3.org/2000/svg" viewBox="0 0 256 256" role="img" aria-label="Zhao Yun avatar 77">
  <defs>
    <linearGradient id="bg-c_001-77" x1="0" x2="1" y1="0" y2="1">
      <stop offset="0%" stop-color="#328051" />
      <stop offset="100%" stop-color="#d8b85a" />
    </linearGradient>
    <radialGradient id="glow-c_001-77" cx="50%" cy="38%" r="60%">
      <stop offset="0%" stop-color="#fef2c9" stop-opacity="0.94" />
      <stop offset="100%" stop-color="#2c7a4b" stop-opacity="0" />
    </radialGradient>
  </defs>
  <rect width="256" height="256" rx="36" fill="url(#bg-c_001-77)" />
  <rect x="12" y="12" width="232" height="232" rx="28" fill="url(#glow-c_001-77)" opacity="0.75" />
  <path d="M192 78 Q216 64 220 106 Q196 104 182 122" fill="none" stroke="#daba5c" stroke-width="7" stroke-linecap="round" transform="rotate(8 200 96)" />
  <circle cx="128" cy="128" r="104" fill="none" stroke="#eadeb5" stroke-width="8" opacity="0.85" />
  <path d="M52 222 Q128 167 204 222 V256 H52 Z" fill="#f3f0e8" />
  <path d="M68 210 Q128 190 188 210" fill="none" stroke="#daba5c" stroke-width="8" stroke-linecap="round" opacity="0.8" />
  <path d="M86 206 Q128 170 170 206" fill="none" stroke="#f2e6bd" stroke-width="6" stroke-linecap="round" opacity="0.65" />
  <ellipse cx="128" cy="146" rx="83" ry="92" fill="#fff3ca" />
  <path d="M84 132 Q128 64 172 132 L168 92 Q128 40 88 92 Z" fill="#31231d" />
  <path d="M80 134 Q74 162 92 188" fill="none" stroke="#31231d" stroke-width="16" stroke-linecap="round" opacity="0.95" />
  <path d="M176 134 Q182 162 164 188" fill="none" stroke="#31231d" stroke-width="16" stroke-linecap="round" opacity="0.95" />
  
      <path d="M76 83 Q128 13 180 83" fill="none" stroke="#daba5c" stroke-width="10" stroke-linecap="round" />
      <path d="M128 51 L148 81 L108 81 Z" fill="#2c7a4b" />
    
  <path d="M95 99 Q105 93 117 99" fill="none" stroke="#31231d" stroke-width="5" stroke-linecap="round" />
  <path d="M139 99 Q151 93 161 99" fill="none" stroke="#31231d" stroke-width="5" stroke-linecap="round" />
  <ellipse cx="105" cy="111" rx="7" ry="5" fill="#251b1a" />
  <ellipse cx="151" cy="111" rx="7" ry="5" fill="#251b1a" />
  <circle cx="103" cy="110" r="2" fill="#fff8ee" opacity="0.8" />
  <circle cx="149" cy="110" r="2" fill="#fff8ee" opacity="0.8" />
  <path d="M128 121 Q120 139 128 149 Q136 139 128 121" fill="#f1e5bc" opacity="0.68" />
  <path d="M104 167 Q128 181 152 167" fill="none" stroke="#3b2d27" stroke-width="5" stroke-linecap="round" />
  <path d="M35 232 Q128 180 221 232" fill="none" stroke="#ffffff" stroke-width="12" stroke-linecap="round" opacity="0.55" />
  
  <circle cx="128" cy="206" r="34" fill="#206e3f" opacity="0.92" />
  <path d="M128 182 L128 228 M118 194 L128 174 L138 194" stroke="#daba5c" stroke-width="6" stroke-linecap="round" stroke-linejoin="round" />
  <text x="128" y="92" text-anchor="middle" font-size="18" font-weight="700" font-family="Georgia, serif" fill="#e6dab1" opacity="0.75">ZY</text>
</svg>