<?xml version="1.0" encoding="UTF-8"?>
<svg xmlns="http://www.w3.org/2000/svg" viewBox="0 0 256 256" role="img" aria-label="Dong Zhuo avatar 100">
  <defs>
    <linearGradient id="bg-c_026-100" x1="0" x2="1" y1="0" y2="1">
      <stop offset="0%" stop-color="#772d52" />
      <stop offset="100%" stop-color="#e5ac5e" />
    </linearGradient>
    <radialGradient id="glow-c_026-100" cx="50%" cy="38%" r="60%">
      <stop offset="0%" stop-color="#fff5ea" stop-opacity="0.94" />
      <stop offset="100%" stop-color="#7f355a" stop-opacity="0" />
    </radialGradient>
  </defs>
  <rect width="256" height="256" rx="36" fill="url(#bg-c_026-100)" />
  <rect x="12" y="12" width="232" height="232" rx="28" fill="url(#glow-c_026-100)" opacity="0.75" />
  <path d="M58 76 L74 94 L54 100 L66 116 L42 112 L36 134 L28 108 L6 112 L18 96 L0 86 L24 84 L18 60 L36 76 Z" fill="#e8af61" opacity="0.55" />
  <circle cx="128" cy="128" r="104" fill="none" stroke="#f0e1d6" stroke-width="8" opacity="0.85" />
  <path d="M52 222 Q128 165 204 222 V256 H52 Z" fill="#532639" />
  <path d="M68 210 Q128 185 188 210" fill="none" stroke="#e8af61" stroke-width="8" stroke-linecap="round" opacity="0.8" />
  <path d="M86 206 Q128 170 170 206" fill="none" stroke="#f8e9de" stroke-width="6" stroke-linecap="round" opacity="0.65" />
  <ellipse cx="128" cy="146" rx="81" ry="94" fill="#faebe0" />
  <path d="M84 132 Q128 69 172 132 L168 92 Q128 39 88 92 Z" fill="#1f1312" />
  <path d="M80 134 Q74 162 92 188" fill="none" stroke="#1f1312" stroke-width="16" stroke-linecap="round" opacity="0.95" />
  <path d="M176 134 Q182 162 164 188" fill="none" stroke="#1f1312" stroke-width="16" stroke-linecap="round" opacity="0.95" />
  
    <path d="M78 76 Q128 24 178 76" fill="none" stroke="#e8af61" stroke-width="12" stroke-linecap="round" />
    <rect x="92" y="76" width="72" height="18" rx="9" fill="#7f355a" />
  
  <path d="M91 94 Q101 88 113 94" fill="none" stroke="#1f1312" stroke-width="5" stroke-linecap="round" />
  <path d="M143 94 Q155 88 165 94" fill="none" stroke="#1f1312" stroke-width="5" stroke-linecap="round" />
  <ellipse cx="101" cy="106" rx="7" ry="5" fill="#251b1a" />
  <ellipse cx="155" cy="106" rx="7" ry="5" fill="#251b1a" />
  <circle cx="99" cy="105" r="2" fill="#fff8ee" opacity="0.8" />
  <circle cx="153" cy="105" r="2" fill="#fff8ee" opacity="0.8" />
  <path d="M128 116 Q120 134 128 144 Q136 134 128 116" fill="#ecddd2" opacity="0.68" />
  <path d="M104 162 Q128 176 152 162" fill="none" stroke="#291d1c" stroke-width="5" stroke-linecap="round" />
  <path d="M41 232 Q128 180 215 232" fill="none" stroke="#6b3e51" stroke-width="12" stroke-linecap="round" opacity="0.55" />
  
      <path d="M128 160 Q116 182 128 200 Q140 182 128 160 Z" fill="#1f1312" opacity="0.9" />
      <path d="M106 148 Q128 158 150 148" fill="none" stroke="#1f1312" stroke-width="5" stroke-linecap="round" />
    
  <circle cx="128" cy="206" r="34" fill="#73294e" opacity="0.92" />
  <rect x="106" y="188" width="44" height="44" rx="10" fill="#e8af61" /><path d="M112 206 H144 M112 218 H138" stroke="#f8e9de" stroke-width="4" stroke-linecap="round" />
  <text x="128" y="92" text-anchor="middle" font-size="18" font-weight="700" font-family="Georgia, serif" fill="#ecddd2" opacity="0.75">DZ</text>
</svg>