<?xml version="1.0" encoding="UTF-8"?>
<svg xmlns="http://www.w3.org/2000/svg" viewBox="0 0 256 256" role="img" aria-label="Zhang Liao avatar 89">
  <defs>
    <linearGradient id="bg-c_018-89" x1="0" x2="1" y1="0" y2="1">
      <stop offset="0%" stop-color="#323e51" />
      <stop offset="100%" stop-color="#be9a51" />
    </linearGradient>
    <radialGradient id="glow-c_018-89" cx="50%" cy="38%" r="60%">
      <stop offset="0%" stop-color="#f9fcff" stop-opacity="0.94" />
      <stop offset="100%" stop-color="#384457" stop-opacity="0" />
    </radialGradient>
  </defs>
  <rect width="256" height="256" rx="36" fill="url(#bg-c_018-89)" />
  <rect x="12" y="12" width="232" height="232" rx="28" fill="url(#glow-c_018-89)" opacity="0.75" />
  <path d="M58 76 L74 94 L54 100 L66 116 L42 112 L36 134 L28 108 L6 112 L18 96 L0 86 L24 84 L18 60 L36 76 Z" fill="#bc984f" opacity="0.55" />
  <circle cx="128" cy="128" r="104" fill="none" stroke="#e5e8ec" stroke-width="8" opacity="0.85" />
  <path d="M52 222 Q128 173 204 222 V256 H52 Z" fill="#505369" />
  <path d="M68 210 Q128 188 188 210" fill="none" stroke="#bc984f" stroke-width="8" stroke-linecap="round" opacity="0.8" />
  <path d="M86 206 Q128 170 170 206" fill="none" stroke="#edf0f4" stroke-width="6" stroke-linecap="round" opacity="0.65" />
  <ellipse cx="128" cy="146" rx="89" ry="96" fill="#dee1e5" />
  <path d="M84 132 Q128 70 172 132 L168 92 Q128 43 88 92 Z" fill="#191413" />
  <path d="M80 134 Q74 162 92 188" fill="none" stroke="#191413" stroke-width="16" stroke-linecap="round" opacity="0.95" />
  <path d="M176 134 Q182 162 164 188" fill="none" stroke="#191413" stroke-width="16" stroke-linecap="round" opacity="0.95" />
  
      <path d="M68 83 Q128 21 188 83 L176 124 Q128 96 80 124 Z" fill="#384457" />
      <path d="M94 81 Q128 47 162 81" fill="none" stroke="#bc984f" stroke-width="8" stroke-linecap="round" />
    
  <path d="M91 99 Q101 93 113 99" fill="none" stroke="#191413" stroke-width="5" stroke-linecap="round" />
  <path d="M143 99 Q155 93 165 99" fill="none" stroke="#191413" stroke-width="5" stroke-linecap="round" />
  <ellipse cx="101" cy="111" rx="7" ry="5" fill="#251b1a" />
  <ellipse cx="155" cy="111" rx="7" ry="5" fill="#251b1a" />
  <circle cx="99" cy="110" r="2" fill="#fff8ee" opacity="0.8" />
  <circle cx="153" cy="110" r="2" fill="#fff8ee" opacity="0.8" />
  <path d="M128 121 Q120 139 128 149 Q136 139 128 121" fill="#d0d3d7" opacity="0.68" />
  <path d="M104 167 Q128 181 152 167" fill="none" stroke="#231e1d" stroke-width="5" stroke-linecap="round" />
  <path d="M32 232 Q128 180 224 232" fill="none" stroke="#686b81" stroke-width="12" stroke-linecap="round" opacity="0.55" />
  
      <path d="M104 150 Q118 140 128 150 Q138 140 152 150" fill="none" stroke="#191413" stroke-width="6" stroke-linecap="round" />
    
  <circle cx="128" cy="206" r="34" fill="#2c384b" opacity="0.92" />
  <path d="M128 178 L128 230" stroke="#bc984f" stroke-width="6" stroke-linecap="round" /><path d="M110 188 Q128 172 146 188" fill="none" stroke="#edf0f4" stroke-width="5" />
  <text x="128" y="92" text-anchor="middle" font-size="18" font-weight="700" font-family="Georgia, serif" fill="#e1e4e8" opacity="0.75">ZL</text>
</svg>