<?xml version="1.0" encoding="UTF-8"?>
<svg xmlns="http://www.w3.org/2000/svg" viewBox="0 0 256 256" role="img" aria-label="Zhang Jiao avatar 92">
  <defs>
    <linearGradient id="bg-c_028-92" x1="0" x2="1" y1="0" y2="1">
      <stop offset="0%" stop-color="#81375c" />
      <stop offset="100%" stop-color="#edb466" />
    </linearGradient>
    <radialGradient id="glow-c_028-92" cx="50%" cy="38%" r="60%">
      <stop offset="0%" stop-color="#fff5ea" stop-opacity="0.94" />
      <stop offset="100%" stop-color="#7f355a" stop-opacity="0" />
    </radialGradient>
  </defs>
  <rect width="256" height="256" rx="36" fill="url(#bg-c_028-92)" />
  <rect x="12" y="12" width="232" height="232" rx="28" fill="url(#glow-c_028-92)" opacity="0.75" />
  <path d="M42 64 L58 88 H46 L64 116 L32 92 H46 Z" fill="#e7ae60" opacity="0.8" />
  <circle cx="128" cy="128" r="104" fill="none" stroke="#f0e1d6" stroke-width="8" opacity="0.85" />
  <path d="M52 222 Q128 172 204 222 V256 H52 Z" fill="#d4b65c" />
  <path d="M68 210 Q128 187 188 210" fill="none" stroke="#e7ae60" stroke-width="8" stroke-linecap="round" opacity="0.8" />
  <path d="M86 206 Q128 170 170 206" fill="none" stroke="#f8e9de" stroke-width="6" stroke-linecap="round" opacity="0.65" />
  <ellipse cx="128" cy="146" rx="82" ry="98" fill="#feefe4" />
  <path d="M84 132 Q128 54 172 132 L168 92 Q128 44 88 92 Z" fill="#1d1110" />
  <path d="M80 134 Q74 162 92 188" fill="none" stroke="#1d1110" stroke-width="16" stroke-linecap="round" opacity="0.95" />
  <path d="M176 134 Q182 162 164 188" fill="none" stroke="#1d1110" stroke-width="16" stroke-linecap="round" opacity="0.95" />
  
      <path d="M56 100 Q128 24 200 100 L184 156 Q128 126 72 156 Z" fill="#7f355a" opacity="0.92" />
      <path d="M80 110 Q128 68 176 110" fill="none" stroke="#e7ae60" stroke-width="6" stroke-linecap="round" />
    
  <path d="M94 97 Q104 91 116 97" fill="none" stroke="#1d1110" stroke-width="5" stroke-linecap="round" />
  <path d="M140 97 Q152 91 162 97" fill="none" stroke="#1d1110" stroke-width="5" stroke-linecap="round" />
  <ellipse cx="104" cy="109" rx="7" ry="5" fill="#251b1a" />
  <ellipse cx="152" cy="109" rx="7" ry="5" fill="#251b1a" />
  <circle cx="102" cy="108" r="2" fill="#fff8ee" opacity="0.8" />
  <circle cx="150" cy="108" r="2" fill="#fff8ee" opacity="0.8" />
  <path d="M128 119 Q120 137 128 147 Q136 137 128 119" fill="#f0e1d6" opacity="0.68" />
  <path d="M104 165 Q128 179 152 165" fill="none" stroke="#271b1a" stroke-width="5" stroke-linecap="round" />
  <path d="M45 232 Q128 180 211 232" fill="none" stroke="#ecce74" stroke-width="12" stroke-linecap="round" opacity="0.55" />
  
  <circle cx="128" cy="206" r="34" fill="#73294e" opacity="0.92" />
  <circle cx="128" cy="206" r="20" fill="#e7ae60" /><circle cx="120" cy="198" r="6" fill="#f8e9de" opacity="0.65" />
  <text x="128" y="92" text-anchor="middle" font-size="18" font-weight="700" font-family="Georgia, serif" fill="#ecddd2" opacity="0.75">ZJ</text>
</svg>