<?xml version="1.0" encoding="UTF-8"?>
<svg xmlns="http://www.w3.org/2000/svg" viewBox="0 0 256 256" role="img" aria-label="Zhang Jiao avatar 21">
  <defs>
    <linearGradient id="bg-c_028-21" x1="0" x2="1" y1="0" y2="1">
      <stop offset="0%" stop-color="#7c3257" />
      <stop offset="100%" stop-color="#e9b062" />
    </linearGradient>
    <radialGradient id="glow-c_028-21" cx="50%" cy="38%" r="60%">
      <stop offset="0%" stop-color="#fff5ea" stop-opacity="0.94" />
      <stop offset="100%" stop-color="#7f355a" stop-opacity="0" />
    </radialGradient>
  </defs>
  <rect width="256" height="256" rx="36" fill="url(#bg-c_028-21)" />
  <rect x="12" y="12" width="232" height="232" rx="28" fill="url(#glow-c_028-21)" opacity="0.75" />
  <path d="M42 64 L58 88 H46 L64 116 L32 92 H46 Z" fill="#e7ae60" opacity="0.8" />
  <circle cx="128" cy="128" r="104" fill="none" stroke="#f0e1d6" stroke-width="8" opacity="0.85" />
  <path d="M52 222 Q128 169 204 222 V256 H52 Z" fill="#ccae54" />
  <path d="M68 210 Q128 187 188 210" fill="none" stroke="#e7ae60" stroke-width="8" stroke-linecap="round" opacity="0.8" />
  <path d="M86 206 Q128 170 170 206" fill="none" stroke="#f8e9de" stroke-width="6" stroke-linecap="round" opacity="0.65" />
  <ellipse cx="128" cy="146" rx="90" ry="98" fill="#fff2e7" />
  <path d="M84 132 Q128 70 172 132 L168 92 Q128 41 88 92 Z" fill="#2a1e1d" />
  <path d="M80 134 Q74 162 92 188" fill="none" stroke="#2a1e1d" stroke-width="16" stroke-linecap="round" opacity="0.95" />
  <path d="M176 134 Q182 162 164 188" fill="none" stroke="#2a1e1d" stroke-width="16" stroke-linecap="round" opacity="0.95" />
  
      <path d="M56 94 Q128 18 200 94 L184 156 Q128 126 72 156 Z" fill="#7f355a" opacity="0.92" />
      <path d="M80 104 Q128 62 176 104" fill="none" stroke="#e7ae60" stroke-width="6" stroke-linecap="round" />
    
  <path d="M96 98 Q106 92 118 98" fill="none" stroke="#2a1e1d" stroke-width="5" stroke-linecap="round" />
  <path d="M138 98 Q150 92 160 98" fill="none" stroke="#2a1e1d" stroke-width="5" stroke-linecap="round" />
  <ellipse cx="106" cy="110" rx="7" ry="5" fill="#251b1a" />
  <ellipse cx="150" cy="110" rx="7" ry="5" fill="#251b1a" />
  <circle cx="104" cy="109" r="2" fill="#fff8ee" opacity="0.8" />
  <circle cx="148" cy="109" r="2" fill="#fff8ee" opacity="0.8" />
  <path d="M128 120 Q120 138 128 148 Q136 138 128 120" fill="#f1e4d9" opacity="0.68" />
  <path d="M104 166 Q128 180 152 166" fill="none" stroke="#342827" stroke-width="5" stroke-linecap="round" />
  <path d="M27 232 Q128 180 229 232" fill="none" stroke="#e4c66c" stroke-width="12" stroke-linecap="round" opacity="0.55" />
  
  <circle cx="128" cy="206" r="34" fill="#73294e" opacity="0.92" />
  <circle cx="128" cy="206" r="20" fill="#e7ae60" /><circle cx="120" cy="198" r="6" fill="#f8e9de" opacity="0.65" />
  <text x="128" y="92" text-anchor="middle" font-size="18" font-weight="700" font-family="Georgia, serif" fill="#ecddd2" opacity="0.75">ZJ</text>
</svg>