<?xml version="1.0" encoding="UTF-8"?>
<svg xmlns="http://www.w3.org/2000/svg" viewBox="0 0 256 256" role="img" aria-label="Zhang Jiao avatar 12">
  <defs>
    <linearGradient id="bg-c_028-12" x1="0" x2="1" y1="0" y2="1">
      <stop offset="0%" stop-color="#792f54" />
      <stop offset="100%" stop-color="#e7ae60" />
    </linearGradient>
    <radialGradient id="glow-c_028-12" cx="50%" cy="38%" r="60%">
      <stop offset="0%" stop-color="#fff5ea" stop-opacity="0.94" />
      <stop offset="100%" stop-color="#7f355a" stop-opacity="0" />
    </radialGradient>
  </defs>
  <rect width="256" height="256" rx="36" fill="url(#bg-c_028-12)" />
  <rect x="12" y="12" width="232" height="232" rx="28" fill="url(#glow-c_028-12)" opacity="0.75" />
  <path d="M42 64 L58 88 H46 L64 116 L32 92 H46 Z" fill="#d89f51" opacity="0.8" />
  <circle cx="128" cy="128" r="104" fill="none" stroke="#f0e1d6" stroke-width="8" opacity="0.85" />
  <path d="M52 222 Q128 175 204 222 V256 H52 Z" fill="#d3b55b" />
  <path d="M68 210 Q128 187 188 210" fill="none" stroke="#d89f51" stroke-width="8" stroke-linecap="round" opacity="0.8" />
  <path d="M86 206 Q128 170 170 206" fill="none" stroke="#f8e9de" stroke-width="6" stroke-linecap="round" opacity="0.65" />
  <ellipse cx="128" cy="146" rx="88" ry="95" fill="#fff5ea" />
  <path d="M84 132 Q128 54 172 132 L168 92 Q128 44 88 92 Z" fill="#241817" />
  <path d="M80 134 Q74 162 92 188" fill="none" stroke="#241817" stroke-width="16" stroke-linecap="round" opacity="0.95" />
  <path d="M176 134 Q182 162 164 188" fill="none" stroke="#241817" stroke-width="16" stroke-linecap="round" opacity="0.95" />
  
      <path d="M56 101 Q128 25 200 101 L184 156 Q128 126 72 156 Z" fill="#7f355a" opacity="0.92" />
      <path d="M80 111 Q128 69 176 111" fill="none" stroke="#d89f51" stroke-width="6" stroke-linecap="round" />
    
  <path d="M96 97 Q106 91 118 97" fill="none" stroke="#241817" stroke-width="5" stroke-linecap="round" />
  <path d="M138 97 Q150 91 160 97" fill="none" stroke="#241817" stroke-width="5" stroke-linecap="round" />
  <ellipse cx="106" cy="109" rx="7" ry="5" fill="#251b1a" />
  <ellipse cx="150" cy="109" rx="7" ry="5" fill="#251b1a" />
  <circle cx="104" cy="108" r="2" fill="#fff8ee" opacity="0.8" />
  <circle cx="148" cy="108" r="2" fill="#fff8ee" opacity="0.8" />
  <path d="M128 119 Q120 137 128 147 Q136 137 128 119" fill="#f1e7dc" opacity="0.68" />
  <path d="M104 165 Q128 179 152 165" fill="none" stroke="#2e2221" stroke-width="5" stroke-linecap="round" />
  <path d="M33 232 Q128 180 223 232" fill="none" stroke="#ebcd73" stroke-width="12" stroke-linecap="round" opacity="0.55" />
  
  <circle cx="128" cy="206" r="34" fill="#73294e" opacity="0.92" />
  <circle cx="128" cy="206" r="20" fill="#d89f51" /><circle cx="120" cy="198" r="6" fill="#f8e9de" opacity="0.65" />
  <text x="128" y="92" text-anchor="middle" font-size="18" font-weight="700" font-family="Georgia, serif" fill="#ecddd2" opacity="0.75">ZJ</text>
</svg>