<?xml version="1.0" encoding="UTF-8"?>
<svg xmlns="http://www.w3.org/2000/svg" viewBox="0 0 256 256" role="img" aria-label="Zhang Jiao avatar 4">
  <defs>
    <linearGradient id="bg-c_028-4" x1="0" x2="1" y1="0" y2="1">
      <stop offset="0%" stop-color="#893f64" />
      <stop offset="100%" stop-color="#e9b062" />
    </linearGradient>
    <radialGradient id="glow-c_028-4" cx="50%" cy="38%" r="60%">
      <stop offset="0%" stop-color="#fff5ea" stop-opacity="0.94" />
      <stop offset="100%" stop-color="#7f355a" stop-opacity="0" />
    </radialGradient>
  </defs>
  <rect width="256" height="256" rx="36" fill="url(#bg-c_028-4)" />
  <rect x="12" y="12" width="232" height="232" rx="28" fill="url(#glow-c_028-4)" opacity="0.75" />
  <path d="M42 64 L58 88 H46 L64 116 L32 92 H46 Z" fill="#dca355" opacity="0.8" />
  <circle cx="128" cy="128" r="104" fill="none" stroke="#f0e1d6" stroke-width="8" opacity="0.85" />
  <path d="M52 222 Q128 162 204 222 V256 H52 Z" fill="#ceb056" />
  <path d="M68 210 Q128 184 188 210" fill="none" stroke="#dca355" stroke-width="8" stroke-linecap="round" opacity="0.8" />
  <path d="M86 206 Q128 170 170 206" fill="none" stroke="#f8e9de" stroke-width="6" stroke-linecap="round" opacity="0.65" />
  <ellipse cx="128" cy="146" rx="87" ry="94" fill="#f9eadf" />
  <path d="M84 132 Q128 55 172 132 L168 92 Q128 39 88 92 Z" fill="#2b1f1e" />
  <path d="M80 134 Q74 162 92 188" fill="none" stroke="#2b1f1e" stroke-width="16" stroke-linecap="round" opacity="0.95" />
  <path d="M176 134 Q182 162 164 188" fill="none" stroke="#2b1f1e" stroke-width="16" stroke-linecap="round" opacity="0.95" />
  
      <path d="M56 97 Q128 21 200 97 L184 156 Q128 126 72 156 Z" fill="#7f355a" opacity="0.92" />
      <path d="M80 107 Q128 65 176 107" fill="none" stroke="#dca355" stroke-width="6" stroke-linecap="round" />
    
  <path d="M90 96 Q100 90 112 96" fill="none" stroke="#2b1f1e" stroke-width="5" stroke-linecap="round" />
  <path d="M144 96 Q156 90 166 96" fill="none" stroke="#2b1f1e" stroke-width="5" stroke-linecap="round" />
  <ellipse cx="100" cy="108" rx="7" ry="5" fill="#251b1a" />
  <ellipse cx="156" cy="108" rx="7" ry="5" fill="#251b1a" />
  <circle cx="98" cy="107" r="2" fill="#fff8ee" opacity="0.8" />
  <circle cx="154" cy="107" r="2" fill="#fff8ee" opacity="0.8" />
  <path d="M128 118 Q120 136 128 146 Q136 136 128 118" fill="#ebdcd1" opacity="0.68" />
  <path d="M104 164 Q128 178 152 164" fill="none" stroke="#352928" stroke-width="5" stroke-linecap="round" />
  <path d="M33 232 Q128 180 223 232" fill="none" stroke="#e6c86e" stroke-width="12" stroke-linecap="round" opacity="0.55" />
  
  <circle cx="128" cy="206" r="34" fill="#73294e" opacity="0.92" />
  <circle cx="128" cy="206" r="20" fill="#dca355" /><circle cx="120" cy="198" r="6" fill="#f8e9de" opacity="0.65" />
  <text x="128" y="92" text-anchor="middle" font-size="18" font-weight="700" font-family="Georgia, serif" fill="#ecddd2" opacity="0.75">ZJ</text>
</svg>