<?xml version="1.0" encoding="UTF-8"?>
<svg xmlns="http://www.w3.org/2000/svg" viewBox="0 0 256 256" role="img" aria-label="Zhang Jiao avatar 44">
  <defs>
    <linearGradient id="bg-c_028-44" x1="0" x2="1" y1="0" y2="1">
      <stop offset="0%" stop-color="#7f355a" />
      <stop offset="100%" stop-color="#edb466" />
    </linearGradient>
    <radialGradient id="glow-c_028-44" cx="50%" cy="38%" r="60%">
      <stop offset="0%" stop-color="#fff5ea" stop-opacity="0.94" />
      <stop offset="100%" stop-color="#7f355a" stop-opacity="0" />
    </radialGradient>
  </defs>
  <rect width="256" height="256" rx="36" fill="url(#bg-c_028-44)" />
  <rect x="12" y="12" width="232" height="232" rx="28" fill="url(#glow-c_028-44)" opacity="0.75" />
  <path d="M42 64 L58 88 H46 L64 116 L32 92 H46 Z" fill="#e0a759" opacity="0.8" />
  <circle cx="128" cy="128" r="104" fill="none" stroke="#f0e1d6" stroke-width="8" opacity="0.85" />
  <path d="M52 222 Q128 162 204 222 V256 H52 Z" fill="#d1b359" />
  <path d="M68 210 Q128 192 188 210" fill="none" stroke="#e0a759" stroke-width="8" stroke-linecap="round" opacity="0.8" />
  <path d="M86 206 Q128 170 170 206" fill="none" stroke="#f8e9de" stroke-width="6" stroke-linecap="round" opacity="0.65" />
  <ellipse cx="128" cy="146" rx="86" ry="92" fill="#fcede2" />
  <path d="M84 132 Q128 64 172 132 L168 92 Q128 39 88 92 Z" fill="#211514" />
  <path d="M80 134 Q74 162 92 188" fill="none" stroke="#211514" stroke-width="16" stroke-linecap="round" opacity="0.95" />
  <path d="M176 134 Q182 162 164 188" fill="none" stroke="#211514" stroke-width="16" stroke-linecap="round" opacity="0.95" />
  
      <path d="M56 99 Q128 23 200 99 L184 156 Q128 126 72 156 Z" fill="#7f355a" opacity="0.92" />
      <path d="M80 109 Q128 67 176 109" fill="none" stroke="#e0a759" stroke-width="6" stroke-linecap="round" />
    
  <path d="M96 93 Q106 87 118 93" fill="none" stroke="#211514" stroke-width="5" stroke-linecap="round" />
  <path d="M138 93 Q150 87 160 93" fill="none" stroke="#211514" stroke-width="5" stroke-linecap="round" />
  <ellipse cx="106" cy="105" rx="7" ry="5" fill="#251b1a" />
  <ellipse cx="150" cy="105" rx="7" ry="5" fill="#251b1a" />
  <circle cx="104" cy="104" r="2" fill="#fff8ee" opacity="0.8" />
  <circle cx="148" cy="104" r="2" fill="#fff8ee" opacity="0.8" />
  <path d="M128 115 Q120 133 128 143 Q136 133 128 115" fill="#eedfd4" opacity="0.68" />
  <path d="M104 161 Q128 175 152 161" fill="none" stroke="#2b1f1e" stroke-width="5" stroke-linecap="round" />
  <path d="M37 232 Q128 180 219 232" fill="none" stroke="#e9cb71" stroke-width="12" stroke-linecap="round" opacity="0.55" />
  
  <circle cx="128" cy="206" r="34" fill="#73294e" opacity="0.92" />
  <circle cx="128" cy="206" r="20" fill="#e0a759" /><circle cx="120" cy="198" r="6" fill="#f8e9de" opacity="0.65" />
  <text x="128" y="92" text-anchor="middle" font-size="18" font-weight="700" font-family="Georgia, serif" fill="#ecddd2" opacity="0.75">ZJ</text>
</svg>