<?xml version="1.0" encoding="UTF-8"?>
<svg xmlns="http://www.w3.org/2000/svg" viewBox="0 0 256 256" role="img" aria-label="Guan Yu avatar 31">
  <defs>
    <linearGradient id="bg-c_005-31" x1="0" x2="1" y1="0" y2="1">
      <stop offset="0%" stop-color="#328051" />
      <stop offset="100%" stop-color="#ceae50" />
    </linearGradient>
    <radialGradient id="glow-c_005-31" cx="50%" cy="38%" r="60%">
      <stop offset="0%" stop-color="#fef2c9" stop-opacity="0.94" />
      <stop offset="100%" stop-color="#2c7a4b" stop-opacity="0" />
    </radialGradient>
  </defs>
  <rect width="256" height="256" rx="36" fill="url(#bg-c_005-31)" />
  <rect x="12" y="12" width="232" height="232" rx="28" fill="url(#glow-c_005-31)" opacity="0.75" />
  <circle cx="48" cy="72" r="10" fill="#d0b052" opacity="0.8" /><circle cx="66" cy="58" r="6" fill="#2c7a4b" opacity="0.7" />
  <circle cx="128" cy="128" r="104" fill="none" stroke="#eadeb5" stroke-width="8" opacity="0.85" />
  <path d="M52 222 Q128 170 204 222 V256 H52 Z" fill="#7a2f2d" />
  <path d="M68 210 Q128 190 188 210" fill="none" stroke="#d0b052" stroke-width="8" stroke-linecap="round" opacity="0.8" />
  <path d="M86 206 Q128 170 170 206" fill="none" stroke="#f2e6bd" stroke-width="6" stroke-linecap="round" opacity="0.65" />
  <ellipse cx="128" cy="146" rx="80" ry="92" fill="#f6eac1" />
  <path d="M84 132 Q128 57 172 132 L168 92 Q128 44 88 92 Z" fill="#31231d" />
  <path d="M80 134 Q74 162 92 188" fill="none" stroke="#31231d" stroke-width="16" stroke-linecap="round" opacity="0.95" />
  <path d="M176 134 Q182 162 164 188" fill="none" stroke="#31231d" stroke-width="16" stroke-linecap="round" opacity="0.95" />
  
      <path d="M68 86 Q128 24 188 86 L176 124 Q128 96 80 124 Z" fill="#2c7a4b" />
      <path d="M94 84 Q128 50 162 84" fill="none" stroke="#d0b052" stroke-width="8" stroke-linecap="round" />
    
  <path d="M92 96 Q102 90 114 96" fill="none" stroke="#31231d" stroke-width="5" stroke-linecap="round" />
  <path d="M142 96 Q154 90 164 96" fill="none" stroke="#31231d" stroke-width="5" stroke-linecap="round" />
  <ellipse cx="102" cy="108" rx="7" ry="5" fill="#251b1a" />
  <ellipse cx="154" cy="108" rx="7" ry="5" fill="#251b1a" />
  <circle cx="100" cy="107" r="2" fill="#fff8ee" opacity="0.8" />
  <circle cx="152" cy="107" r="2" fill="#fff8ee" opacity="0.8" />
  <path d="M128 118 Q120 136 128 146 Q136 136 128 118" fill="#e8dcb3" opacity="0.68" />
  <path d="M104 164 Q128 178 152 164" fill="none" stroke="#3b2d27" stroke-width="5" stroke-linecap="round" />
  <path d="M41 232 Q128 180 215 232" fill="none" stroke="#924745" stroke-width="12" stroke-linecap="round" opacity="0.55" />
  
      <path d="M128 156 Q112 182 96 222 Q128 212 160 222 Q144 182 128 156 Z" fill="#31231d" opacity="0.9" />
      <path d="M104 150 Q128 168 152 150" fill="none" stroke="#31231d" stroke-width="5" stroke-linecap="round" />
    
  <circle cx="128" cy="206" r="34" fill="#206e3f" opacity="0.92" />
  <path d="M120 184 L140 184 L146 226 L114 226 Z" fill="#d0b052" /><path d="M128 172 L144 190 L128 198 L112 190 Z" fill="#f2e6bd" />
  <text x="128" y="92" text-anchor="middle" font-size="18" font-weight="700" font-family="Georgia, serif" fill="#e6dab1" opacity="0.75">GY</text>
</svg>