<?xml version="1.0" encoding="UTF-8"?>
<svg xmlns="http://www.w3.org/2000/svg" viewBox="0 0 256 256" role="img" aria-label="Guan Yu avatar 15">
  <defs>
    <linearGradient id="bg-c_005-15" x1="0" x2="1" y1="0" y2="1">
      <stop offset="0%" stop-color="#237142" />
      <stop offset="100%" stop-color="#d9b95b" />
    </linearGradient>
    <radialGradient id="glow-c_005-15" cx="50%" cy="38%" r="60%">
      <stop offset="0%" stop-color="#fef2c9" stop-opacity="0.94" />
      <stop offset="100%" stop-color="#2c7a4b" stop-opacity="0" />
    </radialGradient>
  </defs>
  <rect width="256" height="256" rx="36" fill="url(#bg-c_005-15)" />
  <rect x="12" y="12" width="232" height="232" rx="28" fill="url(#glow-c_005-15)" opacity="0.75" />
  <circle cx="48" cy="72" r="10" fill="#dbbb5d" opacity="0.8" /><circle cx="66" cy="58" r="6" fill="#2c7a4b" opacity="0.7" />
  <circle cx="128" cy="128" r="104" fill="none" stroke="#eadeb5" stroke-width="8" opacity="0.85" />
  <path d="M52 222 Q128 166 204 222 V256 H52 Z" fill="#722725" />
  <path d="M68 210 Q128 187 188 210" fill="none" stroke="#dbbb5d" stroke-width="8" stroke-linecap="round" opacity="0.8" />
  <path d="M86 206 Q128 170 170 206" fill="none" stroke="#f2e6bd" stroke-width="6" stroke-linecap="round" opacity="0.65" />
  <ellipse cx="128" cy="146" rx="86" ry="100" fill="#f4e8bf" />
  <path d="M84 132 Q128 63 172 132 L168 92 Q128 42 88 92 Z" fill="#32241e" />
  <path d="M80 134 Q74 162 92 188" fill="none" stroke="#32241e" stroke-width="16" stroke-linecap="round" opacity="0.95" />
  <path d="M176 134 Q182 162 164 188" fill="none" stroke="#32241e" stroke-width="16" stroke-linecap="round" opacity="0.95" />
  
      <path d="M68 87 Q128 25 188 87 L176 124 Q128 96 80 124 Z" fill="#2c7a4b" />
      <path d="M94 85 Q128 51 162 85" fill="none" stroke="#dbbb5d" stroke-width="8" stroke-linecap="round" />
    
  <path d="M91 99 Q101 93 113 99" fill="none" stroke="#32241e" stroke-width="5" stroke-linecap="round" />
  <path d="M143 99 Q155 93 165 99" fill="none" stroke="#32241e" stroke-width="5" stroke-linecap="round" />
  <ellipse cx="101" cy="111" rx="7" ry="5" fill="#251b1a" />
  <ellipse cx="155" cy="111" rx="7" ry="5" fill="#251b1a" />
  <circle cx="99" cy="110" r="2" fill="#fff8ee" opacity="0.8" />
  <circle cx="153" cy="110" r="2" fill="#fff8ee" opacity="0.8" />
  <path d="M128 121 Q120 139 128 149 Q136 139 128 121" fill="#e6dab1" opacity="0.68" />
  <path d="M104 167 Q128 181 152 167" fill="none" stroke="#3c2e28" stroke-width="5" stroke-linecap="round" />
  <path d="M42 232 Q128 180 214 232" fill="none" stroke="#8a3f3d" stroke-width="12" stroke-linecap="round" opacity="0.55" />
  
      <path d="M128 156 Q112 182 101 222 Q128 212 155 222 Q144 182 128 156 Z" fill="#32241e" opacity="0.9" />
      <path d="M104 150 Q128 168 152 150" fill="none" stroke="#32241e" stroke-width="5" stroke-linecap="round" />
    
  <circle cx="128" cy="206" r="34" fill="#206e3f" opacity="0.92" />
  <path d="M120 184 L140 184 L146 226 L114 226 Z" fill="#dbbb5d" /><path d="M128 172 L144 190 L128 198 L112 190 Z" fill="#f2e6bd" />
  <text x="128" y="92" text-anchor="middle" font-size="18" font-weight="700" font-family="Georgia, serif" fill="#e6dab1" opacity="0.75">GY</text>
</svg>