<?xml version="1.0" encoding="UTF-8"?>
<svg xmlns="http://www.w3.org/2000/svg" viewBox="0 0 256 256" role="img" aria-label="Guan Yu avatar 39">
  <defs>
    <linearGradient id="bg-c_005-39" x1="0" x2="1" y1="0" y2="1">
      <stop offset="0%" stop-color="#317f50" />
      <stop offset="100%" stop-color="#e1c163" />
    </linearGradient>
    <radialGradient id="glow-c_005-39" cx="50%" cy="38%" r="60%">
      <stop offset="0%" stop-color="#fef2c9" stop-opacity="0.94" />
      <stop offset="100%" stop-color="#2c7a4b" stop-opacity="0" />
    </radialGradient>
  </defs>
  <rect width="256" height="256" rx="36" fill="url(#bg-c_005-39)" />
  <rect x="12" y="12" width="232" height="232" rx="28" fill="url(#glow-c_005-39)" opacity="0.75" />
  <circle cx="48" cy="72" r="10" fill="#d5b557" opacity="0.8" /><circle cx="66" cy="58" r="6" fill="#2c7a4b" opacity="0.7" />
  <circle cx="128" cy="128" r="104" fill="none" stroke="#eadeb5" stroke-width="8" opacity="0.85" />
  <path d="M52 222 Q128 169 204 222 V256 H52 Z" fill="#813634" />
  <path d="M68 210 Q128 186 188 210" fill="none" stroke="#d5b557" stroke-width="8" stroke-linecap="round" opacity="0.8" />
  <path d="M86 206 Q128 170 170 206" fill="none" stroke="#f2e6bd" stroke-width="6" stroke-linecap="round" opacity="0.65" />
  <ellipse cx="128" cy="146" rx="81" ry="92" fill="#ede1b8" />
  <path d="M84 132 Q128 57 172 132 L168 92 Q128 39 88 92 Z" fill="#352721" />
  <path d="M80 134 Q74 162 92 188" fill="none" stroke="#352721" stroke-width="16" stroke-linecap="round" opacity="0.95" />
  <path d="M176 134 Q182 162 164 188" fill="none" stroke="#352721" stroke-width="16" stroke-linecap="round" opacity="0.95" />
  
      <path d="M68 82 Q128 20 188 82 L176 124 Q128 96 80 124 Z" fill="#2c7a4b" />
      <path d="M94 80 Q128 46 162 80" fill="none" stroke="#d5b557" stroke-width="8" stroke-linecap="round" />
    
  <path d="M92 93 Q102 87 114 93" fill="none" stroke="#352721" stroke-width="5" stroke-linecap="round" />
  <path d="M142 93 Q154 87 164 93" fill="none" stroke="#352721" stroke-width="5" stroke-linecap="round" />
  <ellipse cx="102" cy="105" rx="7" ry="5" fill="#251b1a" />
  <ellipse cx="154" cy="105" rx="7" ry="5" fill="#251b1a" />
  <circle cx="100" cy="104" r="2" fill="#fff8ee" opacity="0.8" />
  <circle cx="152" cy="104" r="2" fill="#fff8ee" opacity="0.8" />
  <path d="M128 115 Q120 133 128 143 Q136 133 128 115" fill="#dfd3aa" opacity="0.68" />
  <path d="M104 161 Q128 175 152 161" fill="none" stroke="#3f312b" stroke-width="5" stroke-linecap="round" />
  <path d="M45 232 Q128 180 211 232" fill="none" stroke="#994e4c" stroke-width="12" stroke-linecap="round" opacity="0.55" />
  
      <path d="M128 156 Q112 182 101 222 Q128 212 155 222 Q144 182 128 156 Z" fill="#352721" opacity="0.9" />
      <path d="M104 150 Q128 168 152 150" fill="none" stroke="#352721" stroke-width="5" stroke-linecap="round" />
    
  <circle cx="128" cy="206" r="34" fill="#206e3f" opacity="0.92" />
  <path d="M120 184 L140 184 L146 226 L114 226 Z" fill="#d5b557" /><path d="M128 172 L144 190 L128 198 L112 190 Z" fill="#f2e6bd" />
  <text x="128" y="92" text-anchor="middle" font-size="18" font-weight="700" font-family="Georgia, serif" fill="#e6dab1" opacity="0.75">GY</text>
</svg>