<?xml version="1.0" encoding="UTF-8"?>
<svg xmlns="http://www.w3.org/2000/svg" viewBox="0 0 256 256" role="img" aria-label="Guan Yu avatar 52">
  <defs>
    <linearGradient id="bg-c_005-52" x1="0" x2="1" y1="0" y2="1">
      <stop offset="0%" stop-color="#307e4f" />
      <stop offset="100%" stop-color="#d2b254" />
    </linearGradient>
    <radialGradient id="glow-c_005-52" cx="50%" cy="38%" r="60%">
      <stop offset="0%" stop-color="#fef2c9" stop-opacity="0.94" />
      <stop offset="100%" stop-color="#2c7a4b" stop-opacity="0" />
    </radialGradient>
  </defs>
  <rect width="256" height="256" rx="36" fill="url(#bg-c_005-52)" />
  <rect x="12" y="12" width="232" height="232" rx="28" fill="url(#glow-c_005-52)" opacity="0.75" />
  <circle cx="48" cy="72" r="10" fill="#e2c264" opacity="0.8" /><circle cx="66" cy="58" r="6" fill="#2c7a4b" opacity="0.7" />
  <circle cx="128" cy="128" r="104" fill="none" stroke="#eadeb5" stroke-width="8" opacity="0.85" />
  <path d="M52 222 Q128 168 204 222 V256 H52 Z" fill="#7f3432" />
  <path d="M68 210 Q128 192 188 210" fill="none" stroke="#e2c264" stroke-width="8" stroke-linecap="round" opacity="0.8" />
  <path d="M86 206 Q128 170 170 206" fill="none" stroke="#f2e6bd" stroke-width="6" stroke-linecap="round" opacity="0.65" />
  <ellipse cx="128" cy="146" rx="88" ry="93" fill="#e4d8af" />
  <path d="M84 132 Q128 58 172 132 L168 92 Q128 43 88 92 Z" fill="#2d1f19" />
  <path d="M80 134 Q74 162 92 188" fill="none" stroke="#2d1f19" stroke-width="16" stroke-linecap="round" opacity="0.95" />
  <path d="M176 134 Q182 162 164 188" fill="none" stroke="#2d1f19" stroke-width="16" stroke-linecap="round" opacity="0.95" />
  
      <path d="M68 89 Q128 27 188 89 L176 124 Q128 96 80 124 Z" fill="#2c7a4b" />
      <path d="M94 87 Q128 53 162 87" fill="none" stroke="#e2c264" stroke-width="8" stroke-linecap="round" />
    
  <path d="M93 94 Q103 88 115 94" fill="none" stroke="#2d1f19" stroke-width="5" stroke-linecap="round" />
  <path d="M141 94 Q153 88 163 94" fill="none" stroke="#2d1f19" stroke-width="5" stroke-linecap="round" />
  <ellipse cx="103" cy="106" rx="7" ry="5" fill="#251b1a" />
  <ellipse cx="153" cy="106" rx="7" ry="5" fill="#251b1a" />
  <circle cx="101" cy="105" r="2" fill="#fff8ee" opacity="0.8" />
  <circle cx="151" cy="105" r="2" fill="#fff8ee" opacity="0.8" />
  <path d="M128 116 Q120 134 128 144 Q136 134 128 116" fill="#d6caa1" opacity="0.68" />
  <path d="M104 162 Q128 176 152 162" fill="none" stroke="#372923" stroke-width="5" stroke-linecap="round" />
  <path d="M42 232 Q128 180 214 232" fill="none" stroke="#974c4a" stroke-width="12" stroke-linecap="round" opacity="0.55" />
  
      <path d="M128 156 Q112 182 104 222 Q128 212 152 222 Q144 182 128 156 Z" fill="#2d1f19" opacity="0.9" />
      <path d="M104 150 Q128 168 152 150" fill="none" stroke="#2d1f19" stroke-width="5" stroke-linecap="round" />
    
  <circle cx="128" cy="206" r="34" fill="#206e3f" opacity="0.92" />
  <path d="M120 184 L140 184 L146 226 L114 226 Z" fill="#e2c264" /><path d="M128 172 L144 190 L128 198 L112 190 Z" fill="#f2e6bd" />
  <text x="128" y="92" text-anchor="middle" font-size="18" font-weight="700" font-family="Georgia, serif" fill="#e6dab1" opacity="0.75">GY</text>
</svg>