<?xml version="1.0" encoding="UTF-8"?>
<svg xmlns="http://www.w3.org/2000/svg" viewBox="0 0 256 256" role="img" aria-label="Guan Yu avatar 46">
  <defs>
    <linearGradient id="bg-c_005-46" x1="0" x2="1" y1="0" y2="1">
      <stop offset="0%" stop-color="#358354" />
      <stop offset="100%" stop-color="#d6b658" />
    </linearGradient>
    <radialGradient id="glow-c_005-46" cx="50%" cy="38%" r="60%">
      <stop offset="0%" stop-color="#fef2c9" stop-opacity="0.94" />
      <stop offset="100%" stop-color="#2c7a4b" stop-opacity="0" />
    </radialGradient>
  </defs>
  <rect width="256" height="256" rx="36" fill="url(#bg-c_005-46)" />
  <rect x="12" y="12" width="232" height="232" rx="28" fill="url(#glow-c_005-46)" opacity="0.75" />
  <circle cx="48" cy="72" r="10" fill="#daba5c" opacity="0.8" /><circle cx="66" cy="58" r="6" fill="#2c7a4b" opacity="0.7" />
  <circle cx="128" cy="128" r="104" fill="none" stroke="#eadeb5" stroke-width="8" opacity="0.85" />
  <path d="M52 222 Q128 167 204 222 V256 H52 Z" fill="#752a28" />
  <path d="M68 210 Q128 193 188 210" fill="none" stroke="#daba5c" stroke-width="8" stroke-linecap="round" opacity="0.8" />
  <path d="M86 206 Q128 170 170 206" fill="none" stroke="#f2e6bd" stroke-width="6" stroke-linecap="round" opacity="0.65" />
  <ellipse cx="128" cy="146" rx="84" ry="100" fill="#f8ecc3" />
  <path d="M84 132 Q128 62 172 132 L168 92 Q128 48 88 92 Z" fill="#30221c" />
  <path d="M80 134 Q74 162 92 188" fill="none" stroke="#30221c" stroke-width="16" stroke-linecap="round" opacity="0.95" />
  <path d="M176 134 Q182 162 164 188" fill="none" stroke="#30221c" stroke-width="16" stroke-linecap="round" opacity="0.95" />
  
      <path d="M68 89 Q128 27 188 89 L176 124 Q128 96 80 124 Z" fill="#2c7a4b" />
      <path d="M94 87 Q128 53 162 87" fill="none" stroke="#daba5c" stroke-width="8" stroke-linecap="round" />
    
  <path d="M96 96 Q106 90 118 96" fill="none" stroke="#30221c" stroke-width="5" stroke-linecap="round" />
  <path d="M138 96 Q150 90 160 96" fill="none" stroke="#30221c" stroke-width="5" stroke-linecap="round" />
  <ellipse cx="106" cy="108" rx="7" ry="5" fill="#251b1a" />
  <ellipse cx="150" cy="108" rx="7" ry="5" fill="#251b1a" />
  <circle cx="104" cy="107" r="2" fill="#fff8ee" opacity="0.8" />
  <circle cx="148" cy="107" r="2" fill="#fff8ee" opacity="0.8" />
  <path d="M128 118 Q120 136 128 146 Q136 136 128 118" fill="#eadeb5" opacity="0.68" />
  <path d="M104 164 Q128 178 152 164" fill="none" stroke="#3a2c26" stroke-width="5" stroke-linecap="round" />
  <path d="M33 232 Q128 180 223 232" fill="none" stroke="#8d4240" stroke-width="12" stroke-linecap="round" opacity="0.55" />
  
      <path d="M128 156 Q112 182 102 222 Q128 212 154 222 Q144 182 128 156 Z" fill="#30221c" opacity="0.9" />
      <path d="M104 150 Q128 168 152 150" fill="none" stroke="#30221c" stroke-width="5" stroke-linecap="round" />
    
  <circle cx="128" cy="206" r="34" fill="#206e3f" opacity="0.92" />
  <path d="M120 184 L140 184 L146 226 L114 226 Z" fill="#daba5c" /><path d="M128 172 L144 190 L128 198 L112 190 Z" fill="#f2e6bd" />
  <text x="128" y="92" text-anchor="middle" font-size="18" font-weight="700" font-family="Georgia, serif" fill="#e6dab1" opacity="0.75">GY</text>
</svg>