<?xml version="1.0" encoding="UTF-8"?>
<svg xmlns="http://www.w3.org/2000/svg" viewBox="0 0 256 256" role="img" aria-label="Zhuge Liang avatar 63">
  <defs>
    <linearGradient id="bg-c_007-63" x1="0" x2="1" y1="0" y2="1">
      <stop offset="0%" stop-color="#368455" />
      <stop offset="100%" stop-color="#d7b759" />
    </linearGradient>
    <radialGradient id="glow-c_007-63" cx="50%" cy="38%" r="60%">
      <stop offset="0%" stop-color="#fef2c9" stop-opacity="0.94" />
      <stop offset="100%" stop-color="#2c7a4b" stop-opacity="0" />
    </radialGradient>
  </defs>
  <rect width="256" height="256" rx="36" fill="url(#bg-c_007-63)" />
  <rect x="12" y="12" width="232" height="232" rx="28" fill="url(#glow-c_007-63)" opacity="0.75" />
  <path d="M44 76 L52 96 L74 98 L56 112 L62 134 L44 120 L26 134 L32 112 L14 98 L36 96 Z" fill="#e2c264" opacity="0.8" />
  <circle cx="128" cy="128" r="104" fill="none" stroke="#eadeb5" stroke-width="8" opacity="0.85" />
  <path d="M52 222 Q128 168 204 222 V256 H52 Z" fill="#e9edd6" />
  <path d="M68 210 Q128 189 188 210" fill="none" stroke="#e2c264" stroke-width="8" stroke-linecap="round" opacity="0.8" />
  <path d="M86 206 Q128 170 170 206" fill="none" stroke="#f2e6bd" stroke-width="6" stroke-linecap="round" opacity="0.65" />
  <ellipse cx="128" cy="146" rx="87" ry="92" fill="#f9edc4" />
  <path d="M84 132 Q128 56 172 132 L168 92 Q128 39 88 92 Z" fill="#251711" />
  <path d="M80 134 Q74 162 92 188" fill="none" stroke="#251711" stroke-width="16" stroke-linecap="round" opacity="0.95" />
  <path d="M176 134 Q182 162 164 188" fill="none" stroke="#251711" stroke-width="16" stroke-linecap="round" opacity="0.95" />
  
      <path d="M56 94 Q128 18 200 94 L184 156 Q128 126 72 156 Z" fill="#2c7a4b" opacity="0.92" />
      <path d="M80 104 Q128 62 176 104" fill="none" stroke="#e2c264" stroke-width="6" stroke-linecap="round" />
    
  <path d="M91 97 Q101 91 113 97" fill="none" stroke="#251711" stroke-width="5" stroke-linecap="round" />
  <path d="M143 97 Q155 91 165 97" fill="none" stroke="#251711" stroke-width="5" stroke-linecap="round" />
  <ellipse cx="101" cy="109" rx="7" ry="5" fill="#251b1a" />
  <ellipse cx="155" cy="109" rx="7" ry="5" fill="#251b1a" />
  <circle cx="99" cy="108" r="2" fill="#fff8ee" opacity="0.8" />
  <circle cx="153" cy="108" r="2" fill="#fff8ee" opacity="0.8" />
  <path d="M128 119 Q120 137 128 147 Q136 137 128 119" fill="#ebdfb6" opacity="0.68" />
  <path d="M104 165 Q128 179 152 165" fill="none" stroke="#2f211b" stroke-width="5" stroke-linecap="round" />
  <path d="M38 232 Q128 180 218 232" fill="none" stroke="#ffffee" stroke-width="12" stroke-linecap="round" opacity="0.55" />
  
      <path d="M104 150 Q118 140 128 150 Q138 140 152 150" fill="none" stroke="#251711" stroke-width="6" stroke-linecap="round" />
    
  <circle cx="128" cy="206" r="34" fill="#206e3f" opacity="0.92" />
  <path d="M96 216 Q128 174 160 216" fill="none" stroke="#e2c264" stroke-width="6" /><path d="M128 174 L128 228" stroke="#f2e6bd" stroke-width="5" />
  <text x="128" y="92" text-anchor="middle" font-size="18" font-weight="700" font-family="Georgia, serif" fill="#e6dab1" opacity="0.75">ZL</text>
</svg>