<?xml version="1.0" encoding="UTF-8"?>
<svg xmlns="http://www.w3.org/2000/svg" viewBox="0 0 256 256" role="img" aria-label="Zhuge Liang avatar 2">
  <defs>
    <linearGradient id="bg-c_007-2" x1="0" x2="1" y1="0" y2="1">
      <stop offset="0%" stop-color="#368455" />
      <stop offset="100%" stop-color="#ddbd5f" />
    </linearGradient>
    <radialGradient id="glow-c_007-2" cx="50%" cy="38%" r="60%">
      <stop offset="0%" stop-color="#fef2c9" stop-opacity="0.94" />
      <stop offset="100%" stop-color="#2c7a4b" stop-opacity="0" />
    </radialGradient>
  </defs>
  <rect width="256" height="256" rx="36" fill="url(#bg-c_007-2)" />
  <rect x="12" y="12" width="232" height="232" rx="28" fill="url(#glow-c_007-2)" opacity="0.75" />
  <path d="M44 76 L52 96 L74 98 L56 112 L62 134 L44 120 L26 134 L32 112 L14 98 L36 96 Z" fill="#dcbc5e" opacity="0.8" />
  <circle cx="128" cy="128" r="104" fill="none" stroke="#eadeb5" stroke-width="8" opacity="0.85" />
  <path d="M52 222 Q128 170 204 222 V256 H52 Z" fill="#ebefd8" />
  <path d="M68 210 Q128 190 188 210" fill="none" stroke="#dcbc5e" stroke-width="8" stroke-linecap="round" opacity="0.8" />
  <path d="M86 206 Q128 170 170 206" fill="none" stroke="#f2e6bd" stroke-width="6" stroke-linecap="round" opacity="0.65" />
  <ellipse cx="128" cy="146" rx="87" ry="100" fill="#f6eac1" />
  <path d="M84 132 Q128 57 172 132 L168 92 Q128 38 88 92 Z" fill="#251711" />
  <path d="M80 134 Q74 162 92 188" fill="none" stroke="#251711" stroke-width="16" stroke-linecap="round" opacity="0.95" />
  <path d="M176 134 Q182 162 164 188" fill="none" stroke="#251711" stroke-width="16" stroke-linecap="round" opacity="0.95" />
  
      <path d="M56 100 Q128 24 200 100 L184 156 Q128 126 72 156 Z" fill="#2c7a4b" opacity="0.92" />
      <path d="M80 110 Q128 68 176 110" fill="none" stroke="#dcbc5e" stroke-width="6" stroke-linecap="round" />
    
  <path d="M92 94 Q102 88 114 94" fill="none" stroke="#251711" stroke-width="5" stroke-linecap="round" />
  <path d="M142 94 Q154 88 164 94" fill="none" stroke="#251711" stroke-width="5" stroke-linecap="round" />
  <ellipse cx="102" cy="106" rx="7" ry="5" fill="#251b1a" />
  <ellipse cx="154" cy="106" rx="7" ry="5" fill="#251b1a" />
  <circle cx="100" cy="105" r="2" fill="#fff8ee" opacity="0.8" />
  <circle cx="152" cy="105" r="2" fill="#fff8ee" opacity="0.8" />
  <path d="M128 116 Q120 134 128 144 Q136 134 128 116" fill="#e8dcb3" opacity="0.68" />
  <path d="M104 162 Q128 176 152 162" fill="none" stroke="#2f211b" stroke-width="5" stroke-linecap="round" />
  <path d="M39 232 Q128 180 217 232" fill="none" stroke="#fffff0" stroke-width="12" stroke-linecap="round" opacity="0.55" />
  
      <path d="M104 150 Q118 140 128 150 Q138 140 152 150" fill="none" stroke="#251711" stroke-width="6" stroke-linecap="round" />
    
  <circle cx="128" cy="206" r="34" fill="#206e3f" opacity="0.92" />
  <path d="M96 216 Q128 174 160 216" fill="none" stroke="#dcbc5e" stroke-width="6" /><path d="M128 174 L128 228" stroke="#f2e6bd" stroke-width="5" />
  <text x="128" y="92" text-anchor="middle" font-size="18" font-weight="700" font-family="Georgia, serif" fill="#e6dab1" opacity="0.75">ZL</text>
</svg>