<?xml version="1.0" encoding="UTF-8"?>
<svg xmlns="http://www.w3.org/2000/svg" viewBox="0 0 256 256" role="img" aria-label="Zhuge Liang avatar 5">
  <defs>
    <linearGradient id="bg-c_007-5" x1="0" x2="1" y1="0" y2="1">
      <stop offset="0%" stop-color="#267445" />
      <stop offset="100%" stop-color="#d9b95b" />
    </linearGradient>
    <radialGradient id="glow-c_007-5" cx="50%" cy="38%" r="60%">
      <stop offset="0%" stop-color="#fef2c9" stop-opacity="0.94" />
      <stop offset="100%" stop-color="#2c7a4b" stop-opacity="0" />
    </radialGradient>
  </defs>
  <rect width="256" height="256" rx="36" fill="url(#bg-c_007-5)" />
  <rect x="12" y="12" width="232" height="232" rx="28" fill="url(#glow-c_007-5)" opacity="0.75" />
  <path d="M44 76 L52 96 L74 98 L56 112 L62 134 L44 120 L26 134 L32 112 L14 98 L36 96 Z" fill="#d0b052" opacity="0.8" />
  <circle cx="128" cy="128" r="104" fill="none" stroke="#eadeb5" stroke-width="8" opacity="0.85" />
  <path d="M52 222 Q128 173 204 222 V256 H52 Z" fill="#e5e9d2" />
  <path d="M68 210 Q128 191 188 210" fill="none" stroke="#d0b052" stroke-width="8" stroke-linecap="round" opacity="0.8" />
  <path d="M86 206 Q128 170 170 206" fill="none" stroke="#f2e6bd" stroke-width="6" stroke-linecap="round" opacity="0.65" />
  <ellipse cx="128" cy="146" rx="82" ry="98" fill="#eadeb5" />
  <path d="M84 132 Q128 59 172 132 L168 92 Q128 45 88 92 Z" fill="#261812" />
  <path d="M80 134 Q74 162 92 188" fill="none" stroke="#261812" stroke-width="16" stroke-linecap="round" opacity="0.95" />
  <path d="M176 134 Q182 162 164 188" fill="none" stroke="#261812" stroke-width="16" stroke-linecap="round" opacity="0.95" />
  
      <path d="M56 93 Q128 17 200 93 L184 156 Q128 126 72 156 Z" fill="#2c7a4b" opacity="0.92" />
      <path d="M80 103 Q128 61 176 103" fill="none" stroke="#d0b052" stroke-width="6" stroke-linecap="round" />
    
  <path d="M90 98 Q100 92 112 98" fill="none" stroke="#261812" stroke-width="5" stroke-linecap="round" />
  <path d="M144 98 Q156 92 166 98" fill="none" stroke="#261812" stroke-width="5" stroke-linecap="round" />
  <ellipse cx="100" cy="110" rx="7" ry="5" fill="#251b1a" />
  <ellipse cx="156" cy="110" rx="7" ry="5" fill="#251b1a" />
  <circle cx="98" cy="109" r="2" fill="#fff8ee" opacity="0.8" />
  <circle cx="154" cy="109" r="2" fill="#fff8ee" opacity="0.8" />
  <path d="M128 120 Q120 138 128 148 Q136 138 128 120" fill="#dcd0a7" opacity="0.68" />
  <path d="M104 166 Q128 180 152 166" fill="none" stroke="#30221c" stroke-width="5" stroke-linecap="round" />
  <path d="M45 232 Q128 180 211 232" fill="none" stroke="#fdffea" stroke-width="12" stroke-linecap="round" opacity="0.55" />
  
      <path d="M104 150 Q118 140 128 150 Q138 140 152 150" fill="none" stroke="#261812" stroke-width="6" stroke-linecap="round" />
    
  <circle cx="128" cy="206" r="34" fill="#206e3f" opacity="0.92" />
  <path d="M96 216 Q128 174 160 216" fill="none" stroke="#d0b052" stroke-width="6" /><path d="M128 174 L128 228" stroke="#f2e6bd" stroke-width="5" />
  <text x="128" y="92" text-anchor="middle" font-size="18" font-weight="700" font-family="Georgia, serif" fill="#e6dab1" opacity="0.75">ZL</text>
</svg>