<?xml version="1.0" encoding="UTF-8"?>
<svg xmlns="http://www.w3.org/2000/svg" viewBox="0 0 256 256" role="img" aria-label="Xiao Qiao avatar 81">
  <defs>
    <linearGradient id="bg-c_025-81" x1="0" x2="1" y1="0" y2="1">
      <stop offset="0%" stop-color="#316593" />
      <stop offset="100%" stop-color="#fba854" />
    </linearGradient>
    <radialGradient id="glow-c_025-81" cx="50%" cy="38%" r="60%">
      <stop offset="0%" stop-color="#fff4d5" stop-opacity="0.94" />
      <stop offset="100%" stop-color="#2b5f8d" stop-opacity="0" />
    </radialGradient>
  </defs>
  <rect width="256" height="256" rx="36" fill="url(#bg-c_025-81)" />
  <rect x="12" y="12" width="232" height="232" rx="28" fill="url(#glow-c_025-81)" opacity="0.75" />
  <path d="M36 170 Q72 130 86 182 T138 184" fill="none" stroke="#eb9844" stroke-width="7" stroke-linecap="round" opacity="0.8" />
  <circle cx="128" cy="128" r="104" fill="none" stroke="#efe0c1" stroke-width="8" opacity="0.85" />
  <path d="M52 222 Q128 175 204 222 V256 H52 Z" fill="#f1d5cc" />
  <path d="M68 210 Q128 187 188 210" fill="none" stroke="#eb9844" stroke-width="8" stroke-linecap="round" opacity="0.8" />
  <path d="M86 206 Q128 170 170 206" fill="none" stroke="#f7e8c9" stroke-width="6" stroke-linecap="round" opacity="0.65" />
  <ellipse cx="128" cy="146" rx="83" ry="101" fill="#f8e9ca" />
  <path d="M84 132 Q128 55 172 132 L168 92 Q128 45 88 92 Z" fill="#281a16" />
  <path d="M80 134 Q74 162 92 188" fill="none" stroke="#281a16" stroke-width="16" stroke-linecap="round" opacity="0.95" />
  <path d="M176 134 Q182 162 164 188" fill="none" stroke="#281a16" stroke-width="16" stroke-linecap="round" opacity="0.95" />
  
      <circle cx="128" cy="59" r="16" fill="#eb9844" />
      <circle cx="108" cy="75" r="14" fill="#2b5f8d" />
      <circle cx="148" cy="75" r="14" fill="#2b5f8d" />
      <circle cx="128" cy="89" r="14" fill="#3f73a1" />
    
  <path d="M90 96 Q100 90 112 96" fill="none" stroke="#281a16" stroke-width="5" stroke-linecap="round" />
  <path d="M144 96 Q156 90 166 96" fill="none" stroke="#281a16" stroke-width="5" stroke-linecap="round" />
  <ellipse cx="100" cy="108" rx="7" ry="5" fill="#251b1a" />
  <ellipse cx="156" cy="108" rx="7" ry="5" fill="#251b1a" />
  <circle cx="98" cy="107" r="2" fill="#fff8ee" opacity="0.8" />
  <circle cx="154" cy="107" r="2" fill="#fff8ee" opacity="0.8" />
  <path d="M128 118 Q120 136 128 146 Q136 136 128 118" fill="#eadbbc" opacity="0.68" />
  <path d="M104 164 Q128 178 152 164" fill="none" stroke="#322420" stroke-width="5" stroke-linecap="round" />
  <path d="M29 232 Q128 180 227 232" fill="none" stroke="#ffede4" stroke-width="12" stroke-linecap="round" opacity="0.55" />
  
  <circle cx="128" cy="206" r="34" fill="#1f5381" opacity="0.92" />
  <path d="M128 184 L142 212 L128 228 L114 212 Z" fill="#eb9844" /><path d="M100 210 Q128 178 156 210" fill="none" stroke="#f7e8c9" stroke-width="5" />
  <text x="128" y="92" text-anchor="middle" font-size="18" font-weight="700" font-family="Georgia, serif" fill="#ebdcbd" opacity="0.75">XQ</text>
</svg>