<?xml version="1.0" encoding="UTF-8"?>
<svg xmlns="http://www.w3.org/2000/svg" viewBox="0 0 256 256" role="img" aria-label="Xiao Qiao avatar 12">
  <defs>
    <linearGradient id="bg-c_025-12" x1="0" x2="1" y1="0" y2="1">
      <stop offset="0%" stop-color="#285c8a" />
      <stop offset="100%" stop-color="#faa753" />
    </linearGradient>
    <radialGradient id="glow-c_025-12" cx="50%" cy="38%" r="60%">
      <stop offset="0%" stop-color="#fff4d5" stop-opacity="0.94" />
      <stop offset="100%" stop-color="#2b5f8d" stop-opacity="0" />
    </radialGradient>
  </defs>
  <rect width="256" height="256" rx="36" fill="url(#bg-c_025-12)" />
  <rect x="12" y="12" width="232" height="232" rx="28" fill="url(#glow-c_025-12)" opacity="0.75" />
  <path d="M36 170 Q72 130 86 182 T138 184" fill="none" stroke="#f09d49" stroke-width="7" stroke-linecap="round" opacity="0.8" />
  <circle cx="128" cy="128" r="104" fill="none" stroke="#efe0c1" stroke-width="8" opacity="0.85" />
  <path d="M52 222 Q128 173 204 222 V256 H52 Z" fill="#f8dcd3" />
  <path d="M68 210 Q128 187 188 210" fill="none" stroke="#f09d49" stroke-width="8" stroke-linecap="round" opacity="0.8" />
  <path d="M86 206 Q128 170 170 206" fill="none" stroke="#f7e8c9" stroke-width="6" stroke-linecap="round" opacity="0.65" />
  <ellipse cx="128" cy="146" rx="82" ry="94" fill="#fff2d3" />
  <path d="M84 132 Q128 65 172 132 L168 92 Q128 39 88 92 Z" fill="#2d1f1b" />
  <path d="M80 134 Q74 162 92 188" fill="none" stroke="#2d1f1b" stroke-width="16" stroke-linecap="round" opacity="0.95" />
  <path d="M176 134 Q182 162 164 188" fill="none" stroke="#2d1f1b" stroke-width="16" stroke-linecap="round" opacity="0.95" />
  
      <circle cx="128" cy="62" r="16" fill="#f09d49" />
      <circle cx="108" cy="78" r="14" fill="#2b5f8d" />
      <circle cx="148" cy="78" r="14" fill="#2b5f8d" />
      <circle cx="128" cy="92" r="14" fill="#3f73a1" />
    
  <path d="M94 96 Q104 90 116 96" fill="none" stroke="#2d1f1b" stroke-width="5" stroke-linecap="round" />
  <path d="M140 96 Q152 90 162 96" fill="none" stroke="#2d1f1b" stroke-width="5" stroke-linecap="round" />
  <ellipse cx="104" cy="108" rx="7" ry="5" fill="#251b1a" />
  <ellipse cx="152" cy="108" rx="7" ry="5" fill="#251b1a" />
  <circle cx="102" cy="107" r="2" fill="#fff8ee" opacity="0.8" />
  <circle cx="150" cy="107" r="2" fill="#fff8ee" opacity="0.8" />
  <path d="M128 118 Q120 136 128 146 Q136 136 128 118" fill="#f1e4c5" opacity="0.68" />
  <path d="M104 164 Q128 178 152 164" fill="none" stroke="#372925" stroke-width="5" stroke-linecap="round" />
  <path d="M45 232 Q128 180 211 232" fill="none" stroke="#fff4eb" stroke-width="12" stroke-linecap="round" opacity="0.55" />
  
  <circle cx="128" cy="206" r="34" fill="#1f5381" opacity="0.92" />
  <path d="M128 184 L142 212 L128 228 L114 212 Z" fill="#f09d49" /><path d="M100 210 Q128 178 156 210" fill="none" stroke="#f7e8c9" stroke-width="5" />
  <text x="128" y="92" text-anchor="middle" font-size="18" font-weight="700" font-family="Georgia, serif" fill="#ebdcbd" opacity="0.75">XQ</text>
</svg>