<?xml version="1.0" encoding="UTF-8"?>
<svg xmlns="http://www.w3.org/2000/svg" viewBox="0 0 256 256" role="img" aria-label="Sima Yi avatar 48">
  <defs>
    <linearGradient id="bg-c_009-48" x1="0" x2="1" y1="0" y2="1">
      <stop offset="0%" stop-color="#303c4f" />
      <stop offset="100%" stop-color="#bd9950" />
    </linearGradient>
    <radialGradient id="glow-c_009-48" cx="50%" cy="38%" r="60%">
      <stop offset="0%" stop-color="#f9fcff" stop-opacity="0.94" />
      <stop offset="100%" stop-color="#384457" stop-opacity="0" />
    </radialGradient>
  </defs>
  <rect width="256" height="256" rx="36" fill="url(#bg-c_009-48)" />
  <rect x="12" y="12" width="232" height="232" rx="28" fill="url(#glow-c_009-48)" opacity="0.75" />
  <path d="M206 60 L226 94 L186 94 Z" fill="#c19d54" opacity="0.8" /><rect x="198" y="94" width="16" height="26" rx="6" fill="#384457" opacity="0.7" />
  <circle cx="128" cy="128" r="104" fill="none" stroke="#e5e8ec" stroke-width="8" opacity="0.85" />
  <path d="M52 222 Q128 160 204 222 V256 H52 Z" fill="#cfd0d8" />
  <path d="M68 210 Q128 186 188 210" fill="none" stroke="#c19d54" stroke-width="8" stroke-linecap="round" opacity="0.8" />
  <path d="M86 206 Q128 170 170 206" fill="none" stroke="#edf0f4" stroke-width="6" stroke-linecap="round" opacity="0.65" />
  <ellipse cx="128" cy="146" rx="83" ry="95" fill="#f0f3f7" />
  <path d="M84 132 Q128 55 172 132 L168 92 Q128 44 88 92 Z" fill="#1c1716" />
  <path d="M80 134 Q74 162 92 188" fill="none" stroke="#1c1716" stroke-width="16" stroke-linecap="round" opacity="0.95" />
  <path d="M176 134 Q182 162 164 188" fill="none" stroke="#1c1716" stroke-width="16" stroke-linecap="round" opacity="0.95" />
  
      <path d="M56 96 Q128 20 200 96 L184 156 Q128 126 72 156 Z" fill="#384457" opacity="0.92" />
      <path d="M80 106 Q128 64 176 106" fill="none" stroke="#c19d54" stroke-width="6" stroke-linecap="round" />
    
  <path d="M94 95 Q104 89 116 95" fill="none" stroke="#1c1716" stroke-width="5" stroke-linecap="round" />
  <path d="M140 95 Q152 89 162 95" fill="none" stroke="#1c1716" stroke-width="5" stroke-linecap="round" />
  <ellipse cx="104" cy="107" rx="7" ry="5" fill="#251b1a" />
  <ellipse cx="152" cy="107" rx="7" ry="5" fill="#251b1a" />
  <circle cx="102" cy="106" r="2" fill="#fff8ee" opacity="0.8" />
  <circle cx="150" cy="106" r="2" fill="#fff8ee" opacity="0.8" />
  <path d="M128 117 Q120 135 128 145 Q136 135 128 117" fill="#e2e5e9" opacity="0.68" />
  <path d="M104 163 Q128 177 152 163" fill="none" stroke="#262120" stroke-width="5" stroke-linecap="round" />
  <path d="M31 232 Q128 180 225 232" fill="none" stroke="#e7e8f0" stroke-width="12" stroke-linecap="round" opacity="0.55" />
  
      <path d="M128 160 Q116 182 128 200 Q140 182 128 160 Z" fill="#1c1716" opacity="0.9" />
      <path d="M106 148 Q128 158 150 148" fill="none" stroke="#1c1716" stroke-width="5" stroke-linecap="round" />
    
  <circle cx="128" cy="206" r="34" fill="#2c384b" opacity="0.92" />
  <path d="M138 184 A22 22 0 1 0 138 228 A16 16 0 1 1 138 184 Z" fill="#c19d54" />
  <text x="128" y="92" text-anchor="middle" font-size="18" font-weight="700" font-family="Georgia, serif" fill="#e1e4e8" opacity="0.75">SY</text>
</svg>