<?xml version="1.0" encoding="UTF-8"?>
<svg xmlns="http://www.w3.org/2000/svg" viewBox="0 0 256 256" role="img" aria-label="Sima Yi avatar 93">
  <defs>
    <linearGradient id="bg-c_009-93" x1="0" x2="1" y1="0" y2="1">
      <stop offset="0%" stop-color="#3e4a5d" />
      <stop offset="100%" stop-color="#bd9950" />
    </linearGradient>
    <radialGradient id="glow-c_009-93" cx="50%" cy="38%" r="60%">
      <stop offset="0%" stop-color="#f9fcff" stop-opacity="0.94" />
      <stop offset="100%" stop-color="#384457" stop-opacity="0" />
    </radialGradient>
  </defs>
  <rect width="256" height="256" rx="36" fill="url(#bg-c_009-93)" />
  <rect x="12" y="12" width="232" height="232" rx="28" fill="url(#glow-c_009-93)" opacity="0.75" />
  <path d="M206 60 L226 94 L186 94 Z" fill="#c4a057" opacity="0.8" /><rect x="198" y="94" width="16" height="26" rx="6" fill="#384457" opacity="0.7" />
  <circle cx="128" cy="128" r="104" fill="none" stroke="#e5e8ec" stroke-width="8" opacity="0.85" />
  <path d="M52 222 Q128 165 204 222 V256 H52 Z" fill="#d1d2da" />
  <path d="M68 210 Q128 190 188 210" fill="none" stroke="#c4a057" stroke-width="8" stroke-linecap="round" opacity="0.8" />
  <path d="M86 206 Q128 170 170 206" fill="none" stroke="#edf0f4" stroke-width="6" stroke-linecap="round" opacity="0.65" />
  <ellipse cx="128" cy="146" rx="79" ry="95" fill="#f0f3f7" />
  <path d="M84 132 Q128 56 172 132 L168 92 Q128 45 88 92 Z" fill="#181312" />
  <path d="M80 134 Q74 162 92 188" fill="none" stroke="#181312" stroke-width="16" stroke-linecap="round" opacity="0.95" />
  <path d="M176 134 Q182 162 164 188" fill="none" stroke="#181312" stroke-width="16" stroke-linecap="round" opacity="0.95" />
  
      <path d="M56 101 Q128 25 200 101 L184 156 Q128 126 72 156 Z" fill="#384457" opacity="0.92" />
      <path d="M80 111 Q128 69 176 111" fill="none" stroke="#c4a057" stroke-width="6" stroke-linecap="round" />
    
  <path d="M96 95 Q106 89 118 95" fill="none" stroke="#181312" stroke-width="5" stroke-linecap="round" />
  <path d="M138 95 Q150 89 160 95" fill="none" stroke="#181312" stroke-width="5" stroke-linecap="round" />
  <ellipse cx="106" cy="107" rx="7" ry="5" fill="#251b1a" />
  <ellipse cx="150" cy="107" rx="7" ry="5" fill="#251b1a" />
  <circle cx="104" cy="106" r="2" fill="#fff8ee" opacity="0.8" />
  <circle cx="148" cy="106" r="2" fill="#fff8ee" opacity="0.8" />
  <path d="M128 117 Q120 135 128 145 Q136 135 128 117" fill="#e2e5e9" opacity="0.68" />
  <path d="M104 163 Q128 177 152 163" fill="none" stroke="#221d1c" stroke-width="5" stroke-linecap="round" />
  <path d="M37 232 Q128 180 219 232" fill="none" stroke="#e9eaf2" stroke-width="12" stroke-linecap="round" opacity="0.55" />
  
      <path d="M128 160 Q116 182 128 200 Q140 182 128 160 Z" fill="#181312" opacity="0.9" />
      <path d="M106 148 Q128 158 150 148" fill="none" stroke="#181312" stroke-width="5" stroke-linecap="round" />
    
  <circle cx="128" cy="206" r="34" fill="#2c384b" opacity="0.92" />
  <path d="M138 184 A22 22 0 1 0 138 228 A16 16 0 1 1 138 184 Z" fill="#c4a057" />
  <text x="128" y="92" text-anchor="middle" font-size="18" font-weight="700" font-family="Georgia, serif" fill="#e1e4e8" opacity="0.75">SY</text>
</svg>