<?xml version="1.0" encoding="UTF-8"?>
<svg xmlns="http://www.w3.org/2000/svg" viewBox="0 0 256 256" role="img" aria-label="Gan Ning avatar 5">
  <defs>
    <linearGradient id="bg-c_023-5" x1="0" x2="1" y1="0" y2="1">
      <stop offset="0%" stop-color="#215583" />
      <stop offset="100%" stop-color="#fdaa56" />
    </linearGradient>
    <radialGradient id="glow-c_023-5" cx="50%" cy="38%" r="60%">
      <stop offset="0%" stop-color="#fff4d5" stop-opacity="0.94" />
      <stop offset="100%" stop-color="#2b5f8d" stop-opacity="0" />
    </radialGradient>
  </defs>
  <rect width="256" height="256" rx="36" fill="url(#bg-c_023-5)" />
  <rect x="12" y="12" width="232" height="232" rx="28" fill="url(#glow-c_023-5)" opacity="0.75" />
  <path d="M42 64 L58 88 H46 L64 116 L32 92 H46 Z" fill="#f8a551" opacity="0.8" />
  <circle cx="128" cy="128" r="104" fill="none" stroke="#efe0c1" stroke-width="8" opacity="0.85" />
  <path d="M52 222 Q128 161 204 222 V256 H52 Z" fill="#2d5675" />
  <path d="M68 210 Q128 191 188 210" fill="none" stroke="#f8a551" stroke-width="8" stroke-linecap="round" opacity="0.8" />
  <path d="M86 206 Q128 170 170 206" fill="none" stroke="#f7e8c9" stroke-width="6" stroke-linecap="round" opacity="0.65" />
  <ellipse cx="128" cy="146" rx="79" ry="97" fill="#eedfc0" />
  <path d="M84 132 Q128 54 172 132 L168 92 Q128 41 88 92 Z" fill="#2d1f1b" />
  <path d="M80 134 Q74 162 92 188" fill="none" stroke="#2d1f1b" stroke-width="16" stroke-linecap="round" opacity="0.95" />
  <path d="M176 134 Q182 162 164 188" fill="none" stroke="#2d1f1b" stroke-width="16" stroke-linecap="round" opacity="0.95" />
  
      <path d="M68 90 Q128 28 188 90 L176 124 Q128 96 80 124 Z" fill="#2b5f8d" />
      <path d="M94 88 Q128 54 162 88" fill="none" stroke="#f8a551" stroke-width="8" stroke-linecap="round" />
    
  <path d="M94 95 Q104 89 116 95" fill="none" stroke="#2d1f1b" stroke-width="5" stroke-linecap="round" />
  <path d="M140 95 Q152 89 162 95" fill="none" stroke="#2d1f1b" stroke-width="5" stroke-linecap="round" />
  <ellipse cx="104" cy="107" rx="7" ry="5" fill="#251b1a" />
  <ellipse cx="152" cy="107" rx="7" ry="5" fill="#251b1a" />
  <circle cx="102" cy="106" r="2" fill="#fff8ee" opacity="0.8" />
  <circle cx="150" cy="106" r="2" fill="#fff8ee" opacity="0.8" />
  <path d="M128 117 Q120 135 128 145 Q136 135 128 117" fill="#e0d1b2" opacity="0.68" />
  <path d="M104 163 Q128 177 152 163" fill="none" stroke="#372925" stroke-width="5" stroke-linecap="round" />
  <path d="M39 232 Q128 180 217 232" fill="none" stroke="#456e8d" stroke-width="12" stroke-linecap="round" opacity="0.55" />
  
  <circle cx="128" cy="206" r="34" fill="#1f5381" opacity="0.92" />
  <path d="M120 184 L140 184 L146 226 L114 226 Z" fill="#f8a551" /><path d="M128 172 L144 190 L128 198 L112 190 Z" fill="#f7e8c9" />
  <text x="128" y="92" text-anchor="middle" font-size="18" font-weight="700" font-family="Georgia, serif" fill="#ebdcbd" opacity="0.75">GN</text>
</svg>