<?xml version="1.0" encoding="UTF-8"?>
<svg xmlns="http://www.w3.org/2000/svg" viewBox="0 0 256 256" role="img" aria-label="Gan Ning avatar 65">
  <defs>
    <linearGradient id="bg-c_023-65" x1="0" x2="1" y1="0" y2="1">
      <stop offset="0%" stop-color="#265a88" />
      <stop offset="100%" stop-color="#f8a551" />
    </linearGradient>
    <radialGradient id="glow-c_023-65" cx="50%" cy="38%" r="60%">
      <stop offset="0%" stop-color="#fff4d5" stop-opacity="0.94" />
      <stop offset="100%" stop-color="#2b5f8d" stop-opacity="0" />
    </radialGradient>
  </defs>
  <rect width="256" height="256" rx="36" fill="url(#bg-c_023-65)" />
  <rect x="12" y="12" width="232" height="232" rx="28" fill="url(#glow-c_023-65)" opacity="0.75" />
  <path d="M42 64 L58 88 H46 L64 116 L32 92 H46 Z" fill="#ea9743" opacity="0.8" />
  <circle cx="128" cy="128" r="104" fill="none" stroke="#efe0c1" stroke-width="8" opacity="0.85" />
  <path d="M52 222 Q128 161 204 222 V256 H52 Z" fill="#305978" />
  <path d="M68 210 Q128 190 188 210" fill="none" stroke="#ea9743" stroke-width="8" stroke-linecap="round" opacity="0.8" />
  <path d="M86 206 Q128 170 170 206" fill="none" stroke="#f7e8c9" stroke-width="6" stroke-linecap="round" opacity="0.65" />
  <ellipse cx="128" cy="146" rx="84" ry="98" fill="#fff2d3" />
  <path d="M84 132 Q128 68 172 132 L168 92 Q128 42 88 92 Z" fill="#251713" />
  <path d="M80 134 Q74 162 92 188" fill="none" stroke="#251713" stroke-width="16" stroke-linecap="round" opacity="0.95" />
  <path d="M176 134 Q182 162 164 188" fill="none" stroke="#251713" stroke-width="16" stroke-linecap="round" opacity="0.95" />
  
      <path d="M68 83 Q128 21 188 83 L176 124 Q128 96 80 124 Z" fill="#2b5f8d" />
      <path d="M94 81 Q128 47 162 81" fill="none" stroke="#ea9743" stroke-width="8" stroke-linecap="round" />
    
  <path d="M94 98 Q104 92 116 98" fill="none" stroke="#251713" stroke-width="5" stroke-linecap="round" />
  <path d="M140 98 Q152 92 162 98" fill="none" stroke="#251713" stroke-width="5" stroke-linecap="round" />
  <ellipse cx="104" cy="110" rx="7" ry="5" fill="#251b1a" />
  <ellipse cx="152" cy="110" rx="7" ry="5" fill="#251b1a" />
  <circle cx="102" cy="109" r="2" fill="#fff8ee" opacity="0.8" />
  <circle cx="150" cy="109" r="2" fill="#fff8ee" opacity="0.8" />
  <path d="M128 120 Q120 138 128 148 Q136 138 128 120" fill="#f1e4c5" opacity="0.68" />
  <path d="M104 166 Q128 180 152 166" fill="none" stroke="#2f211d" stroke-width="5" stroke-linecap="round" />
  <path d="M45 232 Q128 180 211 232" fill="none" stroke="#487190" stroke-width="12" stroke-linecap="round" opacity="0.55" />
  
  <circle cx="128" cy="206" r="34" fill="#1f5381" opacity="0.92" />
  <path d="M120 184 L140 184 L146 226 L114 226 Z" fill="#ea9743" /><path d="M128 172 L144 190 L128 198 L112 190 Z" fill="#f7e8c9" />
  <text x="128" y="92" text-anchor="middle" font-size="18" font-weight="700" font-family="Georgia, serif" fill="#ebdcbd" opacity="0.75">GN</text>
</svg>