<?xml version="1.0" encoding="UTF-8"?>
<svg xmlns="http://www.w3.org/2000/svg" viewBox="0 0 256 256" role="img" aria-label="Jiang Wei avatar 8">
  <defs>
    <linearGradient id="bg-c_015-8" x1="0" x2="1" y1="0" y2="1">
      <stop offset="0%" stop-color="#227041" />
      <stop offset="100%" stop-color="#e3c365" />
    </linearGradient>
    <radialGradient id="glow-c_015-8" cx="50%" cy="38%" r="60%">
      <stop offset="0%" stop-color="#fef2c9" stop-opacity="0.94" />
      <stop offset="100%" stop-color="#2c7a4b" stop-opacity="0" />
    </radialGradient>
  </defs>
  <rect width="256" height="256" rx="36" fill="url(#bg-c_015-8)" />
  <rect x="12" y="12" width="232" height="232" rx="28" fill="url(#glow-c_015-8)" opacity="0.75" />
  <path d="M206 60 L226 94 L186 94 Z" fill="#dcbc5e" opacity="0.8" /><rect x="198" y="94" width="16" height="26" rx="6" fill="#2c7a4b" opacity="0.7" />
  <circle cx="128" cy="128" r="104" fill="none" stroke="#eadeb5" stroke-width="8" opacity="0.85" />
  <path d="M52 222 Q128 175 204 222 V256 H52 Z" fill="#5e715f" />
  <path d="M68 210 Q128 191 188 210" fill="none" stroke="#dcbc5e" stroke-width="8" stroke-linecap="round" opacity="0.8" />
  <path d="M86 206 Q128 170 170 206" fill="none" stroke="#f2e6bd" stroke-width="6" stroke-linecap="round" opacity="0.65" />
  <ellipse cx="128" cy="146" rx="89" ry="91" fill="#f0e4bb" />
  <path d="M84 132 Q128 65 172 132 L168 92 Q128 44 88 92 Z" fill="#271913" />
  <path d="M80 134 Q74 162 92 188" fill="none" stroke="#271913" stroke-width="16" stroke-linecap="round" opacity="0.95" />
  <path d="M176 134 Q182 162 164 188" fill="none" stroke="#271913" stroke-width="16" stroke-linecap="round" opacity="0.95" />
  
      <path d="M56 93 Q128 17 200 93 L184 156 Q128 126 72 156 Z" fill="#2c7a4b" opacity="0.92" />
      <path d="M80 103 Q128 61 176 103" fill="none" stroke="#dcbc5e" stroke-width="6" stroke-linecap="round" />
    
  <path d="M91 95 Q101 89 113 95" fill="none" stroke="#271913" stroke-width="5" stroke-linecap="round" />
  <path d="M143 95 Q155 89 165 95" fill="none" stroke="#271913" stroke-width="5" stroke-linecap="round" />
  <ellipse cx="101" cy="107" rx="7" ry="5" fill="#251b1a" />
  <ellipse cx="155" cy="107" rx="7" ry="5" fill="#251b1a" />
  <circle cx="99" cy="106" r="2" fill="#fff8ee" opacity="0.8" />
  <circle cx="153" cy="106" r="2" fill="#fff8ee" opacity="0.8" />
  <path d="M128 117 Q120 135 128 145 Q136 135 128 117" fill="#e2d6ad" opacity="0.68" />
  <path d="M104 163 Q128 177 152 163" fill="none" stroke="#31231d" stroke-width="5" stroke-linecap="round" />
  <path d="M42 232 Q128 180 214 232" fill="none" stroke="#768977" stroke-width="12" stroke-linecap="round" opacity="0.55" />
  
      <path d="M128 160 Q116 182 128 200 Q140 182 128 160 Z" fill="#271913" opacity="0.9" />
      <path d="M106 148 Q128 158 150 148" fill="none" stroke="#271913" stroke-width="5" stroke-linecap="round" />
    
  <circle cx="128" cy="206" r="34" fill="#206e3f" opacity="0.92" />
  <path d="M96 216 Q128 174 160 216" fill="none" stroke="#dcbc5e" stroke-width="6" /><path d="M128 174 L128 228" stroke="#f2e6bd" stroke-width="5" />
  <text x="128" y="92" text-anchor="middle" font-size="18" font-weight="700" font-family="Georgia, serif" fill="#e6dab1" opacity="0.75">JW</text>
</svg>