<?xml version="1.0" encoding="UTF-8"?>
<svg xmlns="http://www.w3.org/2000/svg" viewBox="0 0 256 256" role="img" aria-label="Jiang Wei avatar 60">
  <defs>
    <linearGradient id="bg-c_015-60" x1="0" x2="1" y1="0" y2="1">
      <stop offset="0%" stop-color="#247243" />
      <stop offset="100%" stop-color="#d0b052" />
    </linearGradient>
    <radialGradient id="glow-c_015-60" cx="50%" cy="38%" r="60%">
      <stop offset="0%" stop-color="#fef2c9" stop-opacity="0.94" />
      <stop offset="100%" stop-color="#2c7a4b" stop-opacity="0" />
    </radialGradient>
  </defs>
  <rect width="256" height="256" rx="36" fill="url(#bg-c_015-60)" />
  <rect x="12" y="12" width="232" height="232" rx="28" fill="url(#glow-c_015-60)" opacity="0.75" />
  <path d="M206 60 L226 94 L186 94 Z" fill="#e0c062" opacity="0.8" /><rect x="198" y="94" width="16" height="26" rx="6" fill="#2c7a4b" opacity="0.7" />
  <circle cx="128" cy="128" r="104" fill="none" stroke="#eadeb5" stroke-width="8" opacity="0.85" />
  <path d="M52 222 Q128 160 204 222 V256 H52 Z" fill="#596c5a" />
  <path d="M68 210 Q128 190 188 210" fill="none" stroke="#e0c062" stroke-width="8" stroke-linecap="round" opacity="0.8" />
  <path d="M86 206 Q128 170 170 206" fill="none" stroke="#f2e6bd" stroke-width="6" stroke-linecap="round" opacity="0.65" />
  <ellipse cx="128" cy="146" rx="84" ry="97" fill="#fef2c9" />
  <path d="M84 132 Q128 63 172 132 L168 92 Q128 46 88 92 Z" fill="#241610" />
  <path d="M80 134 Q74 162 92 188" fill="none" stroke="#241610" stroke-width="16" stroke-linecap="round" opacity="0.95" />
  <path d="M176 134 Q182 162 164 188" fill="none" stroke="#241610" stroke-width="16" stroke-linecap="round" opacity="0.95" />
  
      <path d="M56 99 Q128 23 200 99 L184 156 Q128 126 72 156 Z" fill="#2c7a4b" opacity="0.92" />
      <path d="M80 109 Q128 67 176 109" fill="none" stroke="#e0c062" stroke-width="6" stroke-linecap="round" />
    
  <path d="M92 99 Q102 93 114 99" fill="none" stroke="#241610" stroke-width="5" stroke-linecap="round" />
  <path d="M142 99 Q154 93 164 99" fill="none" stroke="#241610" stroke-width="5" stroke-linecap="round" />
  <ellipse cx="102" cy="111" rx="7" ry="5" fill="#251b1a" />
  <ellipse cx="154" cy="111" rx="7" ry="5" fill="#251b1a" />
  <circle cx="100" cy="110" r="2" fill="#fff8ee" opacity="0.8" />
  <circle cx="152" cy="110" r="2" fill="#fff8ee" opacity="0.8" />
  <path d="M128 121 Q120 139 128 149 Q136 139 128 121" fill="#f0e4bb" opacity="0.68" />
  <path d="M104 167 Q128 181 152 167" fill="none" stroke="#2e201a" stroke-width="5" stroke-linecap="round" />
  <path d="M27 232 Q128 180 229 232" fill="none" stroke="#718472" stroke-width="12" stroke-linecap="round" opacity="0.55" />
  
      <path d="M128 160 Q116 182 128 200 Q140 182 128 160 Z" fill="#241610" opacity="0.9" />
      <path d="M106 148 Q128 158 150 148" fill="none" stroke="#241610" stroke-width="5" stroke-linecap="round" />
    
  <circle cx="128" cy="206" r="34" fill="#206e3f" opacity="0.92" />
  <path d="M96 216 Q128 174 160 216" fill="none" stroke="#e0c062" stroke-width="6" /><path d="M128 174 L128 228" stroke="#f2e6bd" stroke-width="5" />
  <text x="128" y="92" text-anchor="middle" font-size="18" font-weight="700" font-family="Georgia, serif" fill="#e6dab1" opacity="0.75">JW</text>
</svg>