<?xml version="1.0" encoding="UTF-8"?>
<svg xmlns="http://www.w3.org/2000/svg" viewBox="0 0 256 256" role="img" aria-label="Jiang Wei avatar 97">
  <defs>
    <linearGradient id="bg-c_015-97" x1="0" x2="1" y1="0" y2="1">
      <stop offset="0%" stop-color="#2a7849" />
      <stop offset="100%" stop-color="#e4c466" />
    </linearGradient>
    <radialGradient id="glow-c_015-97" cx="50%" cy="38%" r="60%">
      <stop offset="0%" stop-color="#fef2c9" stop-opacity="0.94" />
      <stop offset="100%" stop-color="#2c7a4b" stop-opacity="0" />
    </radialGradient>
  </defs>
  <rect width="256" height="256" rx="36" fill="url(#bg-c_015-97)" />
  <rect x="12" y="12" width="232" height="232" rx="28" fill="url(#glow-c_015-97)" opacity="0.75" />
  <path d="M206 60 L226 94 L186 94 Z" fill="#d1b153" opacity="0.8" /><rect x="198" y="94" width="16" height="26" rx="6" fill="#2c7a4b" opacity="0.7" />
  <circle cx="128" cy="128" r="104" fill="none" stroke="#eadeb5" stroke-width="8" opacity="0.85" />
  <path d="M52 222 Q128 164 204 222 V256 H52 Z" fill="#596c5a" />
  <path d="M68 210 Q128 186 188 210" fill="none" stroke="#d1b153" stroke-width="8" stroke-linecap="round" opacity="0.8" />
  <path d="M86 206 Q128 170 170 206" fill="none" stroke="#f2e6bd" stroke-width="6" stroke-linecap="round" opacity="0.65" />
  <ellipse cx="128" cy="146" rx="80" ry="93" fill="#fbefc6" />
  <path d="M84 132 Q128 68 172 132 L168 92 Q128 46 88 92 Z" fill="#2e201a" />
  <path d="M80 134 Q74 162 92 188" fill="none" stroke="#2e201a" stroke-width="16" stroke-linecap="round" opacity="0.95" />
  <path d="M176 134 Q182 162 164 188" fill="none" stroke="#2e201a" stroke-width="16" stroke-linecap="round" opacity="0.95" />
  
      <path d="M56 95 Q128 19 200 95 L184 156 Q128 126 72 156 Z" fill="#2c7a4b" opacity="0.92" />
      <path d="M80 105 Q128 63 176 105" fill="none" stroke="#d1b153" stroke-width="6" stroke-linecap="round" />
    
  <path d="M94 94 Q104 88 116 94" fill="none" stroke="#2e201a" stroke-width="5" stroke-linecap="round" />
  <path d="M140 94 Q152 88 162 94" fill="none" stroke="#2e201a" stroke-width="5" stroke-linecap="round" />
  <ellipse cx="104" cy="106" rx="7" ry="5" fill="#251b1a" />
  <ellipse cx="152" cy="106" rx="7" ry="5" fill="#251b1a" />
  <circle cx="102" cy="105" r="2" fill="#fff8ee" opacity="0.8" />
  <circle cx="150" cy="105" r="2" fill="#fff8ee" opacity="0.8" />
  <path d="M128 116 Q120 134 128 144 Q136 134 128 116" fill="#ede1b8" opacity="0.68" />
  <path d="M104 162 Q128 176 152 162" fill="none" stroke="#382a24" stroke-width="5" stroke-linecap="round" />
  <path d="M36 232 Q128 180 220 232" fill="none" stroke="#718472" stroke-width="12" stroke-linecap="round" opacity="0.55" />
  
      <path d="M128 160 Q116 182 128 200 Q140 182 128 160 Z" fill="#2e201a" opacity="0.9" />
      <path d="M106 148 Q128 158 150 148" fill="none" stroke="#2e201a" stroke-width="5" stroke-linecap="round" />
    
  <circle cx="128" cy="206" r="34" fill="#206e3f" opacity="0.92" />
  <path d="M96 216 Q128 174 160 216" fill="none" stroke="#d1b153" stroke-width="6" /><path d="M128 174 L128 228" stroke="#f2e6bd" stroke-width="5" />
  <text x="128" y="92" text-anchor="middle" font-size="18" font-weight="700" font-family="Georgia, serif" fill="#e6dab1" opacity="0.75">JW</text>
</svg>