<?xml version="1.0" encoding="UTF-8"?>
<svg xmlns="http://www.w3.org/2000/svg" viewBox="0 0 256 256" role="img" aria-label="Taishi Ci avatar 31">
  <defs>
    <linearGradient id="bg-c_024-31" x1="0" x2="1" y1="0" y2="1">
      <stop offset="0%" stop-color="#356997" />
      <stop offset="100%" stop-color="#f3a04c" />
    </linearGradient>
    <radialGradient id="glow-c_024-31" cx="50%" cy="38%" r="60%">
      <stop offset="0%" stop-color="#fff4d5" stop-opacity="0.94" />
      <stop offset="100%" stop-color="#2b5f8d" stop-opacity="0" />
    </radialGradient>
  </defs>
  <rect width="256" height="256" rx="36" fill="url(#bg-c_024-31)" />
  <rect x="12" y="12" width="232" height="232" rx="28" fill="url(#glow-c_024-31)" opacity="0.75" />
  <path d="M18 182 Q42 160 66 182 T114 182" fill="none" stroke="#e6933f" stroke-width="6" opacity="0.75" />
  <circle cx="128" cy="128" r="104" fill="none" stroke="#efe0c1" stroke-width="8" opacity="0.85" />
  <path d="M52 222 Q128 172 204 222 V256 H52 Z" fill="#4b708e" />
  <path d="M68 210 Q128 189 188 210" fill="none" stroke="#e6933f" stroke-width="8" stroke-linecap="round" opacity="0.8" />
  <path d="M86 206 Q128 170 170 206" fill="none" stroke="#f7e8c9" stroke-width="6" stroke-linecap="round" opacity="0.65" />
  <ellipse cx="128" cy="146" rx="87" ry="100" fill="#f6e7c8" />
  <path d="M84 132 Q128 68 172 132 L168 92 Q128 45 88 92 Z" fill="#261814" />
  <path d="M80 134 Q74 162 92 188" fill="none" stroke="#261814" stroke-width="16" stroke-linecap="round" opacity="0.95" />
  <path d="M176 134 Q182 162 164 188" fill="none" stroke="#261814" stroke-width="16" stroke-linecap="round" opacity="0.95" />
  
      <path d="M68 90 Q128 28 188 90 L176 124 Q128 96 80 124 Z" fill="#2b5f8d" />
      <path d="M94 88 Q128 54 162 88" fill="none" stroke="#e6933f" stroke-width="8" stroke-linecap="round" />
    
  <path d="M93 95 Q103 89 115 95" fill="none" stroke="#261814" stroke-width="5" stroke-linecap="round" />
  <path d="M141 95 Q153 89 163 95" fill="none" stroke="#261814" stroke-width="5" stroke-linecap="round" />
  <ellipse cx="103" cy="107" rx="7" ry="5" fill="#251b1a" />
  <ellipse cx="153" cy="107" rx="7" ry="5" fill="#251b1a" />
  <circle cx="101" cy="106" r="2" fill="#fff8ee" opacity="0.8" />
  <circle cx="151" cy="106" r="2" fill="#fff8ee" opacity="0.8" />
  <path d="M128 117 Q120 135 128 145 Q136 135 128 117" fill="#e8d9ba" opacity="0.68" />
  <path d="M104 163 Q128 177 152 163" fill="none" stroke="#30221e" stroke-width="5" stroke-linecap="round" />
  <path d="M42 232 Q128 180 214 232" fill="none" stroke="#6388a6" stroke-width="12" stroke-linecap="round" opacity="0.55" />
  
  <circle cx="128" cy="206" r="34" fill="#1f5381" opacity="0.92" />
  <path d="M128 182 L128 228 M118 194 L128 174 L138 194" stroke="#e6933f" stroke-width="6" stroke-linecap="round" stroke-linejoin="round" />
  <text x="128" y="92" text-anchor="middle" font-size="18" font-weight="700" font-family="Georgia, serif" fill="#ebdcbd" opacity="0.75">TC</text>
</svg>