<?xml version="1.0" encoding="UTF-8"?>
<svg xmlns="http://www.w3.org/2000/svg" viewBox="0 0 256 256" role="img" aria-label="Taishi Ci avatar 32">
  <defs>
    <linearGradient id="bg-c_024-32" x1="0" x2="1" y1="0" y2="1">
      <stop offset="0%" stop-color="#245886" />
      <stop offset="100%" stop-color="#faa753" />
    </linearGradient>
    <radialGradient id="glow-c_024-32" cx="50%" cy="38%" r="60%">
      <stop offset="0%" stop-color="#fff4d5" stop-opacity="0.94" />
      <stop offset="100%" stop-color="#2b5f8d" stop-opacity="0" />
    </radialGradient>
  </defs>
  <rect width="256" height="256" rx="36" fill="url(#bg-c_024-32)" />
  <rect x="12" y="12" width="232" height="232" rx="28" fill="url(#glow-c_024-32)" opacity="0.75" />
  <path d="M18 182 Q42 160 66 182 T114 182" fill="none" stroke="#ed9a46" stroke-width="6" opacity="0.75" />
  <circle cx="128" cy="128" r="104" fill="none" stroke="#efe0c1" stroke-width="8" opacity="0.85" />
  <path d="M52 222 Q128 160 204 222 V256 H52 Z" fill="#496e8c" />
  <path d="M68 210 Q128 191 188 210" fill="none" stroke="#ed9a46" stroke-width="8" stroke-linecap="round" opacity="0.8" />
  <path d="M86 206 Q128 170 170 206" fill="none" stroke="#f7e8c9" stroke-width="6" stroke-linecap="round" opacity="0.65" />
  <ellipse cx="128" cy="146" rx="85" ry="93" fill="#eddebf" />
  <path d="M84 132 Q128 65 172 132 L168 92 Q128 41 88 92 Z" fill="#261814" />
  <path d="M80 134 Q74 162 92 188" fill="none" stroke="#261814" stroke-width="16" stroke-linecap="round" opacity="0.95" />
  <path d="M176 134 Q182 162 164 188" fill="none" stroke="#261814" stroke-width="16" stroke-linecap="round" opacity="0.95" />
  
      <path d="M68 88 Q128 26 188 88 L176 124 Q128 96 80 124 Z" fill="#2b5f8d" />
      <path d="M94 86 Q128 52 162 86" fill="none" stroke="#ed9a46" stroke-width="8" stroke-linecap="round" />
    
  <path d="M91 93 Q101 87 113 93" fill="none" stroke="#261814" stroke-width="5" stroke-linecap="round" />
  <path d="M143 93 Q155 87 165 93" fill="none" stroke="#261814" stroke-width="5" stroke-linecap="round" />
  <ellipse cx="101" cy="105" rx="7" ry="5" fill="#251b1a" />
  <ellipse cx="155" cy="105" rx="7" ry="5" fill="#251b1a" />
  <circle cx="99" cy="104" r="2" fill="#fff8ee" opacity="0.8" />
  <circle cx="153" cy="104" r="2" fill="#fff8ee" opacity="0.8" />
  <path d="M128 115 Q120 133 128 143 Q136 133 128 115" fill="#dfd0b1" opacity="0.68" />
  <path d="M104 161 Q128 175 152 161" fill="none" stroke="#30221e" stroke-width="5" stroke-linecap="round" />
  <path d="M44 232 Q128 180 212 232" fill="none" stroke="#6186a4" stroke-width="12" stroke-linecap="round" opacity="0.55" />
  
  <circle cx="128" cy="206" r="34" fill="#1f5381" opacity="0.92" />
  <path d="M128 182 L128 228 M118 194 L128 174 L138 194" stroke="#ed9a46" stroke-width="6" stroke-linecap="round" stroke-linejoin="round" />
  <text x="128" y="92" text-anchor="middle" font-size="18" font-weight="700" font-family="Georgia, serif" fill="#ebdcbd" opacity="0.75">TC</text>
</svg>