<?xml version="1.0" encoding="UTF-8"?>
<svg xmlns="http://www.w3.org/2000/svg" viewBox="0 0 256 256" role="img" aria-label="Zhang Fei avatar 62">
  <defs>
    <linearGradient id="bg-c_010-62" x1="0" x2="1" y1="0" y2="1">
      <stop offset="0%" stop-color="#257344" />
      <stop offset="100%" stop-color="#e0c062" />
    </linearGradient>
    <radialGradient id="glow-c_010-62" cx="50%" cy="38%" r="60%">
      <stop offset="0%" stop-color="#fef2c9" stop-opacity="0.94" />
      <stop offset="100%" stop-color="#2c7a4b" stop-opacity="0" />
    </radialGradient>
  </defs>
  <rect width="256" height="256" rx="36" fill="url(#bg-c_010-62)" />
  <rect x="12" y="12" width="232" height="232" rx="28" fill="url(#glow-c_010-62)" opacity="0.75" />
  <path d="M42 64 L58 88 H46 L64 116 L32 92 H46 Z" fill="#d0b052" opacity="0.8" />
  <circle cx="128" cy="128" r="104" fill="none" stroke="#eadeb5" stroke-width="8" opacity="0.85" />
  <path d="M52 222 Q128 173 204 222 V256 H52 Z" fill="#49372f" />
  <path d="M68 210 Q128 187 188 210" fill="none" stroke="#d0b052" stroke-width="8" stroke-linecap="round" opacity="0.8" />
  <path d="M86 206 Q128 170 170 206" fill="none" stroke="#f2e6bd" stroke-width="6" stroke-linecap="round" opacity="0.65" />
  <ellipse cx="128" cy="146" rx="84" ry="97" fill="#fdf1c8" />
  <path d="M84 132 Q128 66 172 132 L168 92 Q128 47 88 92 Z" fill="#261812" />
  <path d="M80 134 Q74 162 92 188" fill="none" stroke="#261812" stroke-width="16" stroke-linecap="round" opacity="0.95" />
  <path d="M176 134 Q182 162 164 188" fill="none" stroke="#261812" stroke-width="16" stroke-linecap="round" opacity="0.95" />
  
      <path d="M68 81 Q128 19 188 81 L176 124 Q128 96 80 124 Z" fill="#2c7a4b" />
      <path d="M94 79 Q128 45 162 79" fill="none" stroke="#d0b052" stroke-width="8" stroke-linecap="round" />
    
  <path d="M93 98 Q103 92 115 98" fill="none" stroke="#261812" stroke-width="5" stroke-linecap="round" />
  <path d="M141 98 Q153 92 163 98" fill="none" stroke="#261812" stroke-width="5" stroke-linecap="round" />
  <ellipse cx="103" cy="110" rx="7" ry="5" fill="#251b1a" />
  <ellipse cx="153" cy="110" rx="7" ry="5" fill="#251b1a" />
  <circle cx="101" cy="109" r="2" fill="#fff8ee" opacity="0.8" />
  <circle cx="151" cy="109" r="2" fill="#fff8ee" opacity="0.8" />
  <path d="M128 120 Q120 138 128 148 Q136 138 128 120" fill="#efe3ba" opacity="0.68" />
  <path d="M104 166 Q128 180 152 166" fill="none" stroke="#30221c" stroke-width="5" stroke-linecap="round" />
  <path d="M45 232 Q128 180 211 232" fill="none" stroke="#614f47" stroke-width="12" stroke-linecap="round" opacity="0.55" />
  
      <path d="M104 150 Q118 140 128 150 Q138 140 152 150" fill="none" stroke="#261812" stroke-width="6" stroke-linecap="round" />
    
  <circle cx="128" cy="206" r="34" fill="#206e3f" opacity="0.92" />
  <path d="M96 220 Q128 188 160 220" fill="none" stroke="#d0b052" stroke-width="6" /><path d="M104 222 V206 M128 222 V198 M152 222 V206" stroke="#f2e6bd" stroke-width="4" />
  <text x="128" y="92" text-anchor="middle" font-size="18" font-weight="700" font-family="Georgia, serif" fill="#e6dab1" opacity="0.75">ZF</text>
</svg>