<?xml version="1.0" encoding="UTF-8"?>
<svg xmlns="http://www.w3.org/2000/svg" viewBox="0 0 256 256" role="img" aria-label="Zhang Fei avatar 84">
  <defs>
    <linearGradient id="bg-c_010-84" x1="0" x2="1" y1="0" y2="1">
      <stop offset="0%" stop-color="#2d7b4c" />
      <stop offset="100%" stop-color="#e4c466" />
    </linearGradient>
    <radialGradient id="glow-c_010-84" cx="50%" cy="38%" r="60%">
      <stop offset="0%" stop-color="#fef2c9" stop-opacity="0.94" />
      <stop offset="100%" stop-color="#2c7a4b" stop-opacity="0" />
    </radialGradient>
  </defs>
  <rect width="256" height="256" rx="36" fill="url(#bg-c_010-84)" />
  <rect x="12" y="12" width="232" height="232" rx="28" fill="url(#glow-c_010-84)" opacity="0.75" />
  <path d="M42 64 L58 88 H46 L64 116 L32 92 H46 Z" fill="#e0c062" opacity="0.8" />
  <circle cx="128" cy="128" r="104" fill="none" stroke="#eadeb5" stroke-width="8" opacity="0.85" />
  <path d="M52 222 Q128 167 204 222 V256 H52 Z" fill="#402e26" />
  <path d="M68 210 Q128 190 188 210" fill="none" stroke="#e0c062" stroke-width="8" stroke-linecap="round" opacity="0.8" />
  <path d="M86 206 Q128 170 170 206" fill="none" stroke="#f2e6bd" stroke-width="6" stroke-linecap="round" opacity="0.65" />
  <ellipse cx="128" cy="146" rx="88" ry="93" fill="#ebdfb6" />
  <path d="M84 132 Q128 56 172 132 L168 92 Q128 39 88 92 Z" fill="#291b15" />
  <path d="M80 134 Q74 162 92 188" fill="none" stroke="#291b15" stroke-width="16" stroke-linecap="round" opacity="0.95" />
  <path d="M176 134 Q182 162 164 188" fill="none" stroke="#291b15" stroke-width="16" stroke-linecap="round" opacity="0.95" />
  
      <path d="M68 84 Q128 22 188 84 L176 124 Q128 96 80 124 Z" fill="#2c7a4b" />
      <path d="M94 82 Q128 48 162 82" fill="none" stroke="#e0c062" stroke-width="8" stroke-linecap="round" />
    
  <path d="M95 97 Q105 91 117 97" fill="none" stroke="#291b15" stroke-width="5" stroke-linecap="round" />
  <path d="M139 97 Q151 91 161 97" fill="none" stroke="#291b15" stroke-width="5" stroke-linecap="round" />
  <ellipse cx="105" cy="109" rx="7" ry="5" fill="#251b1a" />
  <ellipse cx="151" cy="109" rx="7" ry="5" fill="#251b1a" />
  <circle cx="103" cy="108" r="2" fill="#fff8ee" opacity="0.8" />
  <circle cx="149" cy="108" r="2" fill="#fff8ee" opacity="0.8" />
  <path d="M128 119 Q120 137 128 147 Q136 137 128 119" fill="#ddd1a8" opacity="0.68" />
  <path d="M104 165 Q128 179 152 165" fill="none" stroke="#33251f" stroke-width="5" stroke-linecap="round" />
  <path d="M37 232 Q128 180 219 232" fill="none" stroke="#58463e" stroke-width="12" stroke-linecap="round" opacity="0.55" />
  
      <path d="M104 150 Q118 140 128 150 Q138 140 152 150" fill="none" stroke="#291b15" stroke-width="6" stroke-linecap="round" />
    
  <circle cx="128" cy="206" r="34" fill="#206e3f" opacity="0.92" />
  <path d="M96 220 Q128 188 160 220" fill="none" stroke="#e0c062" stroke-width="6" /><path d="M104 222 V206 M128 222 V198 M152 222 V206" stroke="#f2e6bd" stroke-width="4" />
  <text x="128" y="92" text-anchor="middle" font-size="18" font-weight="700" font-family="Georgia, serif" fill="#e6dab1" opacity="0.75">ZF</text>
</svg>